{"glyphs":{"0":{"ha":717,"x_min":72,"x_max":650,"o":"m 367 107 q 481 149 444 107 q 518 296 518 190 l 518 781 q 482 920 518 885 q 367 956 446 956 q 244 919 283 956 q 204 781 204 883 l 204 296 q 240 147 204 188 q 367 107 276 107 m 367 -14 q 141 58 210 -14 q 72 296 72 131 l 72 781 q 367 1072 72 1072 q 650 781 650 1072 l 650 296 q 583 58 650 131 q 367 -14 517 -14 z "},"1":{"ha":526,"x_min":33,"x_max":504,"o":"m 33 0 l 33 113 l 207 113 l 207 954 l 71 954 l 71 1072 l 339 1072 l 339 113 l 504 113 l 504 0 l 33 0 z "},"2":{"ha":714,"x_min":68,"x_max":656,"o":"m 69 0 l 69 211 q 94 373 69 303 q 159 483 119 443 q 247 554 199 524 q 344 608 296 585 q 433 655 393 631 q 497 717 472 679 q 522 807 522 756 q 483 925 522 886 q 360 964 443 964 q 200 785 200 964 l 68 785 q 147 1010 68 936 q 365 1085 225 1085 q 579 1016 503 1085 q 656 808 656 947 q 631 674 656 731 q 566 587 606 618 q 478 531 526 556 q 382 483 431 507 q 294 429 333 460 q 229 344 254 399 q 204 213 204 289 l 204 131 l 647 131 l 647 0 l 69 0 z "},"3":{"ha":719,"x_min":56,"x_max":660,"o":"m 56 303 l 185 303 q 222 165 185 207 q 346 124 258 124 q 478 168 435 124 q 521 317 521 213 q 335 519 521 519 l 258 519 l 258 636 l 335 636 q 458 690 399 639 q 517 813 517 742 q 476 926 517 886 q 357 967 435 967 q 193 788 193 967 l 68 788 q 358 1083 68 1079 q 565 1014 486 1083 q 644 811 644 944 q 610 674 644 740 q 501 578 575 608 q 622 486 583 546 q 660 318 660 426 q 580 80 660 165 q 347 -6 500 -6 q 123 69 190 -6 q 56 303 56 144 z "},"4":{"ha":760,"x_min":-3,"x_max":679,"o":"m 453 232 l 17 232 l -3 339 l 461 1074 l 585 1074 l 585 353 l 679 353 l 679 232 l 585 232 l 585 0 l 453 0 l 453 232 m 453 353 l 453 840 l 151 353 l 453 353 z "},"5":{"ha":721,"x_min":56,"x_max":665,"o":"m 56 317 l 186 317 q 354 118 186 118 q 533 333 533 118 l 533 371 q 499 528 533 489 q 364 568 464 568 l 74 568 l 74 1071 l 631 1071 l 631 947 l 203 947 l 203 693 l 367 693 q 599 620 532 693 q 665 374 665 547 l 665 332 q 581 75 665 160 q 354 -10 497 -10 q 133 66 211 -10 q 56 317 56 142 z "},"6":{"ha":758,"x_min":76,"x_max":685,"o":"m 583 1074 l 586 1064 q 276 760 349 900 q 419 776 340 776 q 615 706 544 776 q 685 493 685 636 l 685 296 q 615 58 685 129 q 381 -14 544 -14 q 147 58 217 -14 q 76 296 76 129 l 76 493 q 169 825 76 675 q 408 1074 263 975 l 583 1074 m 248 151 q 268 132 248 151 q 381 113 288 113 q 513 151 474 113 q 553 296 553 189 l 553 493 q 513 626 553 590 q 381 663 474 663 q 248 626 288 663 q 208 493 208 590 l 208 296 q 248 151 208 189 z "},"7":{"ha":625,"x_min":18,"x_max":596,"o":"m 596 1072 l 596 1040 l 235 0 l 92 0 l 425 947 l 18 947 l 18 1072 l 596 1072 z "},"8":{"ha":761,"x_min":56,"x_max":692,"o":"m 374 -12 q 133 68 211 -12 q 56 319 56 149 q 85 502 56 439 q 178 600 115 565 q 76 810 76 665 q 156 1016 76 942 q 374 1090 236 1090 q 591 1010 515 1090 q 667 807 667 931 q 565 606 667 675 q 662 508 632 569 q 692 326 692 447 q 613 69 692 151 q 374 -12 535 -12 m 240 165 q 259 140 240 165 q 374 114 278 114 q 507 165 469 114 q 544 324 544 217 q 507 488 544 432 q 374 546 469 544 q 240 488 278 544 q 203 324 203 432 q 240 165 203 217 m 208 806 q 253 699 208 738 q 372 661 299 661 q 531 806 531 661 q 374 963 531 963 q 250 921 292 963 q 208 806 208 879 z "},"9":{"ha":758,"x_min":76,"x_max":685,"o":"m 183 0 l 181 10 q 485 314 410 168 q 342 297 421 297 q 147 367 217 297 q 76 581 76 438 l 76 778 q 147 1016 76 944 q 381 1088 217 1088 q 615 1016 544 1088 q 685 778 685 944 l 685 581 q 596 247 685 397 q 363 0 507 97 l 183 0 m 513 923 q 493 942 513 923 q 381 961 474 961 q 248 923 288 961 q 208 778 208 885 l 208 581 q 248 447 208 483 q 381 411 288 411 q 513 447 474 411 q 553 581 553 483 l 553 778 q 513 923 553 885 z "},"\r":{"ha":372,"x_min":0,"x_max":0,"o":""}," ":{"ha":349,"x_min":0,"x_max":0,"o":""},"!":{"ha":317,"x_min":83,"x_max":243,"o":"m 229 231 l 97 231 l 97 1074 l 229 1074 l 229 231 m 83 68 q 108 125 83 104 q 163 147 133 146 q 218 126 193 147 q 243 68 243 106 q 203 1 243 21 q 123 -1 163 -19 q 83 68 83 18 z "},"\"":{"ha":368,"x_min":49,"x_max":335,"o":"m 154 818 l 53 818 l 49 1072 l 158 1072 l 154 818 m 331 818 l 229 818 l 225 1072 l 335 1072 l 331 818 z "},"#":{"ha":1015,"x_min":44,"x_max":981,"o":"m 118 606 l 147 722 l 319 722 l 406 1074 l 521 1074 l 435 722 l 678 722 l 764 1074 l 879 1074 l 793 722 l 981 722 l 951 606 l 764 606 l 718 419 l 906 419 l 876 303 l 690 303 l 615 -3 l 499 -3 l 574 303 l 331 303 l 256 -3 l 140 -3 l 215 303 l 44 303 l 74 419 l 244 419 l 290 606 l 118 606 m 406 606 l 360 419 l 603 419 l 649 606 l 406 606 z "},"$":{"ha":767,"x_min":61,"x_max":725,"o":"m 460 -146 l 336 -146 l 336 -3 q 61 283 74 21 l 204 283 q 251 166 210 208 q 389 124 293 124 l 415 124 q 553 169 518 124 q 589 317 589 215 q 573 415 589 378 q 517 471 557 453 q 448 494 476 489 q 354 504 419 499 q 340 506 344 506 q 245 524 289 510 q 160 569 201 539 q 96 653 119 600 q 72 781 72 707 q 135 994 72 919 q 336 1081 199 1069 l 336 1215 l 460 1215 l 460 1078 q 696 807 683 1049 l 558 807 q 517 919 553 881 q 388 957 481 957 q 247 914 283 957 q 210 782 210 871 q 214 742 210 760 q 224 710 218 724 q 242 684 229 696 q 263 665 254 672 q 292 651 272 657 q 322 641 311 644 q 358 634 332 638 q 394 629 383 631 q 434 625 404 628 q 474 621 464 622 q 725 324 725 596 q 663 83 725 161 q 460 -4 600 6 l 460 -146 z "},"%":{"ha":1093,"x_min":42,"x_max":1038,"o":"m 832 0 q 678 50 728 0 q 629 206 629 100 l 629 325 q 832 531 629 531 q 988 481 938 531 q 1038 325 1038 431 l 1038 206 q 988 50 1038 100 q 832 0 938 0 m 832 101 q 905 128 885 101 q 925 211 925 156 l 925 322 q 906 403 925 378 q 832 429 886 429 q 760 403 781 429 q 740 322 740 376 l 740 211 q 760 128 740 156 q 832 101 781 101 m 636 1082 l 736 1082 l 424 -19 l 321 -19 l 636 1082 m 244 549 q 91 599 140 549 q 42 754 42 649 l 42 874 q 244 1079 42 1079 q 400 1029 350 1079 q 450 874 450 979 l 450 754 q 400 599 450 649 q 244 549 350 549 m 244 650 q 317 677 297 650 q 338 760 338 704 l 338 871 q 318 952 338 926 q 244 978 299 978 q 173 951 193 978 q 153 871 153 925 l 153 760 q 173 677 153 704 q 244 650 193 650 z "},"&":{"ha":849,"x_min":74,"x_max":808,"o":"m 788 122 l 785 -15 q 676 9 715 -15 q 611 96 636 33 q 397 -17 533 -17 q 158 60 244 -17 q 74 300 72 136 q 240 572 74 482 q 115 796 115 654 q 194 1006 115 925 q 399 1086 272 1086 q 608 1013 535 1086 q 674 806 682 940 l 553 806 q 399 965 561 965 q 289 919 333 965 q 244 797 244 874 q 289 682 244 732 q 399 632 333 632 l 808 632 l 808 515 l 679 515 l 679 286 q 788 122 679 122 m 550 288 l 550 515 l 397 515 q 260 453 317 515 q 204 294 204 392 q 223 199 204 239 q 272 140 242 160 q 333 113 303 121 q 397 106 364 106 q 506 160 463 106 q 550 288 550 214 z "},"'":{"ha":204,"x_min":49,"x_max":158,"o":"m 154 818 l 53 818 l 49 1072 l 158 1072 l 154 818 z "},"(":{"ha":358,"x_min":81,"x_max":326,"o":"m 215 813 l 215 101 q 238 -8 215 28 q 326 -44 260 -44 l 326 -181 q 81 100 81 -181 l 81 814 q 326 1094 81 1094 l 326 958 q 238 922 260 958 q 215 813 215 886 z "},")":{"ha":371,"x_min":43,"x_max":289,"o":"m 154 101 l 154 813 q 132 922 154 886 q 43 958 110 958 l 43 1094 q 289 814 289 1094 l 289 100 q 43 -181 289 -181 l 43 -44 q 132 -8 110 -44 q 154 101 154 28 z "},"*":{"ha":444,"x_min":40,"x_max":417,"o":"m 417 817 l 307 707 l 243 811 l 214 813 l 150 708 l 42 817 l 143 881 l 144 910 l 40 974 l 150 1083 l 213 981 l 243 978 l 307 1083 l 417 975 l 313 911 l 311 882 l 417 817 z "},"+":{"ha":629,"x_min":46,"x_max":576,"o":"m 576 556 l 576 447 l 371 447 l 371 233 l 250 233 l 250 447 l 46 447 l 46 556 l 250 556 l 250 764 l 371 764 l 371 556 l 576 556 z "},",":{"ha":263,"x_min":0,"x_max":199,"o":"m 42 -211 l 0 -143 q 69 -56 54 -103 q 83 78 83 -8 l 199 78 q 163 -102 199 -39 q 42 -211 128 -165 z "},"-":{"ha":685,"x_min":85,"x_max":607,"o":"m 607 478 l 607 357 l 85 357 l 85 478 l 607 478 z "},".":{"ha":279,"x_min":69,"x_max":229,"o":"m 69 68 q 94 125 69 104 q 149 147 119 146 q 204 126 179 147 q 229 68 229 106 q 189 1 229 21 q 109 -1 149 -19 q 69 68 69 18 z "},"/":{"ha":517,"x_min":56,"x_max":457,"o":"m 346 1069 l 457 1069 l 167 -1 l 56 -1 l 346 1069 z "},":":{"ha":290,"x_min":69,"x_max":229,"o":"m 69 68 q 94 125 69 104 q 149 147 119 146 q 204 126 179 147 q 229 68 229 106 q 189 1 229 21 q 109 -1 149 -19 q 69 68 69 18 m 69 590 q 94 647 69 626 q 149 669 119 668 q 204 649 179 669 q 229 590 229 628 q 189 523 229 543 q 109 522 149 503 q 69 590 69 540 z "},";":{"ha":310,"x_min":19,"x_max":239,"o":"m 79 590 q 104 647 79 626 q 159 669 129 668 q 214 649 189 669 q 239 590 239 628 q 199 523 239 543 q 119 522 158 503 q 79 590 79 540 m 61 -211 l 19 -143 q 88 -56 74 -103 q 103 78 103 -8 l 218 78 q 183 -102 218 -39 q 61 -211 147 -165 z "},"<":{"ha":533,"x_min":69,"x_max":450,"o":"m 374 743 l 446 665 l 201 439 l 450 214 l 374 135 l 69 419 l 69 458 l 374 743 z "},"=":{"ha":792,"x_min":108,"x_max":683,"o":"m 108 636 l 683 636 l 683 529 l 108 529 l 108 636 m 108 343 l 683 343 l 683 236 l 108 236 l 108 343 z "},">":{"ha":536,"x_min":86,"x_max":467,"o":"m 467 458 l 467 419 l 161 135 l 86 210 l 335 439 l 89 668 l 161 743 l 467 458 z "},"?":{"ha":681,"x_min":42,"x_max":611,"o":"m 169 807 l 42 807 q 51 924 42 876 q 90 1014 61 971 q 178 1078 118 1057 q 331 1100 238 1100 q 611 778 611 1100 l 611 717 q 597 601 611 651 q 558 522 582 551 q 506 469 535 493 q 450 425 478 446 q 399 381 422 404 q 360 320 375 358 q 346 232 346 282 l 221 232 q 235 346 221 297 q 272 424 250 394 q 322 476 294 453 q 378 519 350 499 q 428 563 406 539 q 465 625 450 586 q 479 715 479 664 l 479 774 q 442 930 478 885 q 324 975 406 975 q 201 940 233 975 q 169 807 169 906 m 213 68 q 238 125 213 104 q 292 147 263 146 q 347 126 322 147 q 372 68 372 106 q 332 1 372 21 q 252 -1 292 -19 q 213 68 213 18 z "},"@":{"ha":949,"x_min":63,"x_max":886,"o":"m 467 410 q 536 504 536 410 l 536 685 l 465 685 q 393 608 393 685 l 393 493 q 467 410 393 410 m 581 942 l 357 942 q 225 903 258 942 q 192 782 192 865 l 192 288 q 225 166 192 204 q 357 128 258 128 l 713 128 l 713 -1 l 315 -1 q 183 15 235 -1 q 106 67 132 32 q 72 142 81 101 q 63 244 63 182 l 63 754 q 74 901 63 844 q 120 998 86 957 q 215 1056 154 1039 q 372 1074 275 1074 l 572 1074 q 731 1056 669 1074 q 826 998 792 1039 q 874 901 861 957 q 886 754 886 844 l 886 486 q 835 313 886 358 q 700 268 785 268 q 569 353 606 268 q 540 324 551 333 q 500 303 528 314 q 438 292 472 292 q 313 336 357 292 q 268 464 268 381 l 268 631 q 326 756 268 711 q 465 801 383 801 l 661 801 l 661 478 q 663 428 661 444 q 675 397 664 413 q 708 382 686 382 q 745 403 736 382 q 754 475 754 425 l 754 758 q 722 904 754 867 q 581 942 689 942 z "},"A":{"ha":728,"x_min":13,"x_max":715,"o":"m 715 0 l 579 0 l 525 199 l 204 199 l 150 0 l 13 0 l 297 1068 l 432 1068 l 715 0 m 435 551 l 364 896 l 292 547 l 238 324 l 490 324 l 435 551 z "},"B":{"ha":796,"x_min":83,"x_max":746,"o":"m 83 -1 l 83 1075 l 353 1075 q 567 1000 492 1075 q 643 797 643 925 q 567 596 643 674 q 700 499 654 569 q 746 326 746 429 q 400 -1 746 -1 l 83 -1 m 218 125 l 403 125 q 565 176 518 125 q 611 325 611 226 q 558 465 611 422 q 407 507 506 507 l 218 507 l 218 125 m 353 951 l 215 951 l 215 633 l 339 633 q 467 681 426 633 q 508 797 508 729 q 465 912 508 872 q 353 951 422 951 z "},"C":{"ha":819,"x_min":82,"x_max":758,"o":"m 758 769 l 629 769 q 589 915 628 874 q 424 957 550 957 q 313 945 354 957 q 249 901 271 933 q 222 830 228 869 q 215 721 215 790 l 215 354 q 255 169 215 219 q 424 118 294 118 q 594 158 557 118 q 632 328 632 199 l 758 328 q 755 230 758 268 q 741 149 751 192 q 708 82 731 107 q 649 35 686 57 q 556 3 613 13 q 424 -7 500 -7 q 290 3 346 -7 q 196 35 233 13 q 135 85 158 58 q 101 158 113 113 q 85 247 89 203 q 82 356 82 290 l 82 719 q 95 876 82 814 q 145 987 108 938 q 250 1058 182 1036 q 424 1081 318 1081 q 592 1062 526 1081 q 694 1001 658 1043 q 744 906 731 960 q 758 769 757 853 z "},"D":{"ha":835,"x_min":99,"x_max":761,"o":"m 231 126 l 414 126 q 532 138 489 126 q 596 181 575 149 q 622 249 617 213 q 628 358 628 286 l 628 714 q 622 823 628 786 q 596 892 617 860 q 532 935 575 924 q 414 946 489 946 l 231 946 l 231 126 m 414 0 l 99 0 l 99 1071 l 424 1071 q 597 1049 529 1071 q 700 978 664 1026 q 749 868 736 929 q 761 713 761 807 l 761 360 q 748 203 761 265 q 698 92 735 142 q 592 21 661 43 q 414 0 522 -1 z "},"E":{"ha":724,"x_min":97,"x_max":672,"o":"m 97 1072 l 638 1072 l 638 956 l 229 956 l 229 633 l 599 633 l 599 510 l 229 510 l 229 124 l 672 124 l 672 0 l 97 0 l 97 1072 z "},"F":{"ha":715,"x_min":96,"x_max":671,"o":"m 671 949 l 228 949 l 228 621 l 613 621 l 613 497 l 228 497 l 228 -1 l 96 -1 l 96 1071 l 671 1071 l 671 949 z "},"G":{"ha":849,"x_min":79,"x_max":774,"o":"m 769 783 l 640 783 q 623 886 639 850 q 560 943 607 922 q 426 964 514 964 q 255 912 297 964 q 213 724 213 860 l 213 349 q 218 239 213 276 q 244 169 224 201 q 308 124 265 136 q 426 113 351 113 q 544 120 503 113 q 608 155 586 128 q 635 217 631 182 q 640 322 640 251 l 640 468 l 432 468 l 432 588 l 774 588 l 774 322 q 769 207 774 251 q 744 117 764 163 q 688 46 725 71 q 586 5 651 21 q 426 -11 521 -11 q 249 11 318 -11 q 142 83 179 33 q 92 194 106 132 q 79 350 79 256 l 79 722 q 92 878 79 817 q 142 990 106 940 q 249 1061 179 1039 q 426 1083 318 1083 q 640 1051 565 1083 q 740 957 714 1018 q 769 783 767 896 z "},"H":{"ha":818,"x_min":97,"x_max":722,"o":"m 722 0 l 590 0 l 590 449 l 232 449 l 232 -1 l 97 -1 l 97 1068 l 232 1068 l 232 575 l 590 575 l 590 1068 l 722 1068 l 722 0 z "},"I":{"ha":329,"x_min":97,"x_max":232,"o":"m 232 -1 l 97 -1 l 97 1068 l 232 1068 l 232 -1 z "},"J":{"ha":671,"x_min":11,"x_max":588,"o":"m 299 -8 q 72 72 132 -8 q 11 321 11 153 l 136 321 q 170 163 136 208 q 301 118 204 118 q 427 167 400 118 q 454 354 454 217 l 454 1072 l 588 1072 l 588 356 q 576 198 588 260 q 535 87 565 136 q 447 15 506 38 q 299 -8 389 -8 z "},"K":{"ha":783,"x_min":90,"x_max":778,"o":"m 778 0 l 615 0 l 274 461 l 222 461 l 222 0 l 90 0 l 90 1071 l 222 1071 l 222 599 l 274 599 l 593 1071 l 749 1071 l 379 535 l 778 0 z "},"L":{"ha":682,"x_min":97,"x_max":649,"o":"m 649 0 l 97 0 l 97 1071 l 231 1071 l 231 122 l 649 122 l 649 0 z "},"M":{"ha":874,"x_min":97,"x_max":778,"o":"m 249 1072 l 438 483 l 626 1072 l 778 1072 l 778 0 l 646 0 l 646 504 l 665 797 l 469 196 l 406 196 l 210 797 l 229 504 l 229 0 l 97 0 l 97 1072 l 249 1072 z "},"N":{"ha":792,"x_min":96,"x_max":696,"o":"m 221 1071 l 583 251 l 564 615 l 564 1071 l 696 1071 l 696 0 l 572 0 l 219 769 l 228 418 l 228 0 l 96 0 l 96 1071 l 221 1071 z "},"O":{"ha":863,"x_min":82,"x_max":776,"o":"m 776 725 l 776 351 q 763 195 776 257 q 713 84 750 133 q 607 13 676 35 q 429 -10 538 -10 q 251 13 321 -10 q 145 84 182 35 q 95 195 108 133 q 82 351 82 257 l 82 725 q 95 881 82 819 q 145 992 108 943 q 251 1064 182 1042 q 429 1086 321 1086 q 607 1064 538 1086 q 713 992 676 1042 q 763 881 750 943 q 776 725 776 819 m 643 350 l 643 726 q 640 817 643 785 q 626 883 638 850 q 591 931 614 915 q 528 956 568 946 q 429 965 489 965 q 330 956 369 965 q 267 931 290 946 q 233 883 244 915 q 218 817 221 850 q 215 726 215 785 l 215 350 q 221 240 215 278 q 247 170 226 203 q 311 126 268 138 q 429 114 354 114 q 547 126 504 114 q 611 170 590 138 q 638 240 632 203 q 643 350 643 278 z "},"P":{"ha":747,"x_min":97,"x_max":689,"o":"m 97 1071 l 385 1072 q 611 1004 533 1072 q 689 781 689 936 l 689 664 q 619 426 689 497 q 385 354 549 354 l 229 354 l 229 -1 l 97 -1 l 97 1071 m 385 947 l 229 947 l 229 481 l 385 481 q 517 519 478 481 q 557 664 557 557 l 557 781 q 520 913 557 883 q 385 947 483 942 z "},"Q":{"ha":860,"x_min":82,"x_max":776,"o":"m 776 724 l 776 358 q 735 122 776 204 q 578 13 694 40 q 624 -106 583 -68 q 764 -132 664 -144 l 764 -250 q 446 -3 454 -275 l 429 -3 q 251 19 321 -3 q 145 91 182 42 q 95 202 108 140 q 82 358 82 264 l 82 724 q 95 880 82 818 q 145 991 108 942 q 251 1063 182 1040 q 429 1085 321 1085 q 607 1063 538 1085 q 713 991 676 1040 q 763 880 750 942 q 776 724 776 818 m 643 357 l 643 725 q 638 835 643 797 q 611 905 632 872 q 547 949 590 938 q 429 961 504 961 q 311 949 354 961 q 247 905 268 938 q 221 835 226 872 q 215 725 215 797 l 215 357 q 221 247 215 285 q 247 177 226 210 q 311 133 268 144 q 429 121 354 121 q 547 133 504 121 q 611 177 590 144 q 638 247 632 210 q 643 357 643 285 z "},"R":{"ha":750,"x_min":97,"x_max":721,"o":"m 689 706 q 643 499 689 572 q 489 404 597 425 l 721 0 l 565 0 l 350 396 l 229 396 l 229 -1 l 97 -1 l 97 1072 l 385 1074 q 610 1005 532 1074 q 689 781 689 936 l 689 706 m 385 947 l 229 947 l 229 522 l 385 522 q 517 560 478 522 q 557 706 557 599 l 557 781 q 520 913 557 883 q 385 947 483 942 z "},"S":{"ha":788,"x_min":61,"x_max":725,"o":"m 696 807 l 558 807 q 517 919 553 881 q 388 957 481 957 q 247 914 283 957 q 210 782 210 871 q 214 742 210 760 q 224 710 218 724 q 242 684 229 696 q 263 665 254 672 q 292 651 272 657 q 322 641 311 644 q 358 634 332 638 q 394 629 383 631 q 434 625 404 628 q 474 621 464 622 q 725 324 725 596 q 653 72 725 150 q 417 -6 582 -6 l 390 -6 q 61 283 76 -6 l 204 283 q 251 166 210 208 q 389 124 293 124 l 415 124 q 553 169 518 124 q 589 317 589 215 q 573 415 589 378 q 517 471 557 453 q 448 494 476 489 q 354 504 419 499 q 340 506 344 506 q 245 524 289 510 q 160 569 201 539 q 96 653 119 600 q 72 781 72 707 q 147 1008 72 933 q 388 1082 222 1082 q 616 1013 543 1082 q 696 807 689 943 z "},"T":{"ha":599,"x_min":11,"x_max":588,"o":"m 588 943 l 365 943 l 365 0 l 233 0 l 233 943 l 11 943 l 11 1065 l 588 1065 l 588 943 z "},"U":{"ha":836,"x_min":83,"x_max":744,"o":"m 611 351 l 611 1072 l 744 1072 l 744 353 q 672 80 744 168 q 415 -8 599 -8 q 158 80 232 -8 q 83 353 83 168 l 83 1071 l 217 1071 l 217 351 q 256 167 217 218 q 415 115 296 115 q 573 167 535 115 q 611 351 611 218 z "},"V":{"ha":726,"x_min":13,"x_max":714,"o":"m 256 674 l 364 203 l 471 675 l 578 1072 l 714 1072 l 424 -1 l 303 -1 l 13 1072 l 149 1072 l 256 674 z "},"W":{"ha":1133,"x_min":13,"x_max":1115,"o":"m 329 219 l 513 1014 l 615 1014 l 799 219 l 876 619 l 979 1072 l 1115 1072 l 860 -1 l 739 -1 l 649 358 l 564 743 l 479 358 l 389 -1 l 268 -1 l 13 1072 l 149 1072 l 251 619 l 329 219 z "},"X":{"ha":678,"x_min":13,"x_max":665,"o":"m 246 869 l 339 629 l 432 868 l 521 1072 l 665 1072 l 431 539 l 665 -1 l 521 -1 l 463 132 l 339 446 l 217 133 l 157 -1 l 13 -1 l 247 539 l 13 1072 l 157 1072 l 246 869 z "},"Y":{"ha":640,"x_min":-3,"x_max":644,"o":"m 226 864 l 321 597 l 415 864 l 501 1072 l 644 1072 l 386 449 l 386 -1 l 254 -1 l 254 449 l -3 1072 l 140 1072 l 226 864 z "},"Z":{"ha":653,"x_min":19,"x_max":635,"o":"m 635 1072 l 207 121 l 619 121 l 619 0 l 19 0 l 447 956 l 76 956 l 76 1072 l 635 1072 z "},"[":{"ha":461,"x_min":126,"x_max":415,"o":"m 126 1076 l 415 1076 l 415 972 l 243 972 l 243 -46 l 415 -46 l 415 -151 l 126 -151 l 126 1076 z "},"\\":{"ha":517,"x_min":63,"x_max":464,"o":"m 63 1069 l 174 1069 l 464 -1 l 353 -1 l 63 1069 z "},"]":{"ha":474,"x_min":58,"x_max":347,"o":"m 347 -147 l 58 -147 l 58 -42 l 231 -42 l 231 976 l 58 976 l 58 1081 l 347 1081 l 347 -147 z "},"^":{"ha":860,"x_min":75,"x_max":764,"o":"m 76 600 l 75 607 l 375 1076 l 460 1076 l 764 607 l 763 600 l 638 600 l 418 950 l 197 600 l 76 600 z "},"_":{"ha":747,"x_min":49,"x_max":701,"o":"m 49 -12 l 701 -12 l 701 -124 l 49 -124 l 49 -12 z "},"`":{"ha":340,"x_min":39,"x_max":247,"o":"m 138 890 l 39 1069 l 39 1074 l 174 1074 l 247 897 l 247 890 l 138 890 z "},"a":{"ha":728,"x_min":61,"x_max":640,"o":"m 640 549 l 640 0 l 521 0 l 510 110 q 430 27 486 61 q 303 -7 374 -7 q 61 188 81 -7 q 119 367 51 294 q 311 457 186 439 q 507 469 374 467 l 507 549 q 473 662 507 624 q 353 700 439 700 q 257 670 290 700 q 225 564 224 640 l 96 564 q 158 758 92 696 q 357 821 225 821 q 568 756 496 821 q 640 549 640 692 m 510 360 q 322 346 385 360 q 194 204 181 315 q 317 119 201 119 q 510 360 503 119 z "},"b":{"ha":761,"x_min":76,"x_max":685,"o":"m 210 511 l 208 296 q 249 151 208 190 q 381 113 290 113 q 512 151 471 113 q 553 296 553 190 l 553 506 q 513 655 553 615 q 381 694 474 694 q 256 654 300 694 q 210 511 211 614 m 685 508 l 685 296 q 615 58 685 129 q 381 -14 544 -14 q 147 58 217 -14 q 76 296 76 129 l 76 1093 l 210 1093 l 210 739 q 401 821 265 821 q 617 742 550 821 q 685 508 685 664 z "},"c":{"ha":733,"x_min":69,"x_max":671,"o":"m 546 275 l 671 275 q 601 51 669 115 q 374 -14 533 -14 q 142 59 214 -14 q 69 296 69 132 l 69 526 q 374 822 69 822 q 591 761 517 822 q 671 550 665 700 l 546 549 q 501 669 542 639 q 374 700 460 700 q 242 665 283 700 q 201 526 201 631 l 201 296 q 242 151 201 190 q 374 113 283 113 q 505 144 465 113 q 546 275 544 176 z "},"d":{"ha":786,"x_min":75,"x_max":679,"o":"m 679 1086 l 679 0 l 568 0 l 551 107 q 478 26 533 56 q 350 -4 422 -4 q 75 289 75 -4 l 75 503 q 350 818 75 818 q 468 803 422 818 q 546 747 514 789 l 546 1086 l 679 1086 m 546 507 q 508 650 546 610 q 379 690 469 690 q 248 648 289 690 q 207 500 207 606 l 207 288 q 245 156 207 192 q 369 119 283 119 q 502 169 458 122 q 546 332 546 217 l 546 507 z "},"e":{"ha":747,"x_min":74,"x_max":674,"o":"m 543 236 l 671 236 q 599 53 671 115 q 374 -8 528 -8 q 142 59 211 -8 q 74 289 74 126 l 74 526 q 151 748 74 679 q 374 817 228 817 q 674 526 674 817 l 674 353 l 204 353 l 204 292 q 243 151 204 188 q 374 114 282 114 q 543 236 543 114 m 204 526 l 204 468 l 547 468 l 547 526 q 503 663 547 626 q 374 700 460 700 q 246 664 288 700 q 204 526 204 628 z "},"f":{"ha":444,"x_min":82,"x_max":411,"o":"m 82 -1 l 82 782 q 170 1019 82 944 q 411 1081 258 1094 l 411 960 q 263 932 313 969 q 214 782 214 894 l 214 754 l 388 754 l 388 632 l 214 632 l 214 -1 l 82 -1 z "},"g":{"ha":739,"x_min":69,"x_max":669,"o":"m 351 -4 q 69 275 69 -4 l 69 521 q 344 814 69 814 q 471 785 417 814 q 543 703 525 756 l 560 806 l 669 806 l 669 -28 q 590 -262 669 -187 q 369 -337 511 -337 q 164 -281 235 -337 q 88 -96 93 -225 l 214 -96 q 259 -190 219 -164 q 371 -217 299 -217 q 501 -174 457 -217 q 546 -28 546 -132 l 546 106 q 478 28 529 61 q 351 -4 426 -4 m 351 119 q 490 166 443 119 q 538 332 538 213 l 538 489 q 494 642 536 597 q 364 690 451 688 q 240 654 278 690 q 201 522 201 618 l 201 290 q 239 159 201 199 q 351 119 276 119 z "},"h":{"ha":750,"x_min":76,"x_max":674,"o":"m 674 0 l 542 0 l 542 506 q 505 654 542 614 q 376 694 468 694 q 252 651 293 694 q 210 511 211 607 l 208 0 l 76 0 l 76 1093 l 210 1093 l 210 739 q 394 822 267 822 q 609 744 544 822 q 674 508 674 665 l 674 0 z "},"i":{"ha":333,"x_min":88,"x_max":247,"o":"m 232 0 l 100 0 l 100 807 l 232 807 l 232 0 m 88 999 q 113 1056 88 1035 q 167 1077 138 1076 q 222 1057 197 1078 q 247 999 247 1036 q 207 931 247 951 q 127 930 167 911 q 88 999 88 949 z "},"j":{"ha":336,"x_min":1,"x_max":256,"o":"m 240 806 l 240 -37 q 183 -219 240 -165 q 1 -262 125 -274 l 1 -144 q 44 -146 25 -149 q 79 -135 64 -143 q 103 -102 94 -126 q 111 -37 111 -78 l 111 806 l 240 806 m 96 999 q 121 1056 96 1035 q 176 1077 146 1076 q 231 1057 206 1078 q 256 999 256 1036 q 215 931 256 951 q 135 930 175 911 q 96 999 96 949 z "},"k":{"ha":708,"x_min":76,"x_max":701,"o":"m 701 0 l 543 0 l 268 361 l 208 361 l 208 0 l 76 0 l 76 1072 l 208 1072 l 208 486 l 261 486 l 513 813 l 674 813 l 376 431 l 701 0 z "},"l":{"ha":351,"x_min":97,"x_max":310,"o":"m 97 211 l 97 1072 l 226 1072 l 226 213 q 245 148 226 165 q 310 131 264 131 l 310 0 q 142 43 188 0 q 97 211 97 86 z "},"m":{"ha":1281,"x_min":103,"x_max":1178,"o":"m 103 0 l 103 813 l 214 813 l 224 724 q 432 822 292 822 q 654 722 597 822 q 903 822 735 822 q 1110 756 1043 822 q 1178 525 1178 690 l 1178 0 l 1044 0 l 1044 528 q 886 696 1044 696 q 707 489 707 696 l 707 0 l 574 0 l 574 531 q 535 665 574 632 q 413 699 496 699 q 284 658 332 699 q 236 529 236 617 l 236 0 l 103 0 z "},"n":{"ha":810,"x_min":110,"x_max":714,"o":"m 110 0 l 110 813 l 228 813 l 236 726 q 444 822 294 822 q 649 755 583 822 q 714 529 714 688 l 714 0 l 581 0 l 581 528 q 538 657 581 613 q 422 701 496 701 q 293 657 343 701 q 243 529 243 613 l 243 0 l 110 0 z "},"o":{"ha":747,"x_min":69,"x_max":678,"o":"m 374 101 q 506 144 467 101 q 546 296 546 188 l 546 528 q 505 668 546 632 q 374 704 464 704 q 242 668 283 704 q 201 528 201 632 l 201 296 q 242 144 201 188 q 374 101 282 101 m 374 -14 q 140 58 210 -14 q 69 296 69 129 l 69 528 q 148 753 69 683 q 374 822 226 822 q 599 753 521 822 q 678 528 678 683 l 678 296 q 606 58 678 131 q 374 -14 535 -14 z "},"p":{"ha":781,"x_min":92,"x_max":696,"o":"m 92 -274 l 92 813 l 203 813 l 219 706 q 293 787 238 757 q 421 817 349 817 q 696 524 696 817 l 696 310 q 421 -6 696 -6 q 303 9 349 -6 q 225 65 257 24 l 225 -274 l 92 -274 m 225 306 q 263 163 225 203 q 392 122 301 122 q 523 165 482 122 q 564 313 564 207 l 564 525 q 526 657 564 621 q 401 693 488 693 q 269 643 313 690 q 225 481 225 596 l 225 306 z "},"q":{"ha":764,"x_min":74,"x_max":682,"o":"m 549 300 l 550 515 q 509 660 550 621 q 378 699 468 699 q 247 660 288 699 q 206 515 206 621 l 206 306 q 245 156 206 196 q 378 117 285 117 q 503 157 458 117 q 549 300 547 197 m 74 303 l 74 515 q 144 753 74 682 q 378 825 214 825 q 612 753 542 825 q 682 515 682 682 l 682 -282 l 549 -282 l 549 72 q 357 -10 493 -10 q 141 69 208 -10 q 74 303 74 147 z "},"r":{"ha":483,"x_min":83,"x_max":443,"o":"m 443 813 l 443 678 q 279 653 343 694 q 215 521 215 611 l 215 -1 l 83 -1 l 83 813 l 204 813 l 210 738 q 305 806 240 785 q 443 813 369 828 z "},"s":{"ha":678,"x_min":53,"x_max":635,"o":"m 613 583 l 486 583 q 338 703 486 703 q 192 574 192 703 q 202 522 192 542 q 235 492 213 501 q 282 478 258 482 q 343 472 306 475 q 364 471 357 471 q 440 462 411 467 q 511 443 469 457 q 576 406 553 429 q 617 342 600 383 q 635 244 635 301 q 556 57 635 121 q 347 -7 478 -7 q 53 251 63 -7 l 186 251 q 347 114 196 114 q 462 149 421 114 q 503 243 503 183 q 491 291 503 271 q 464 322 479 311 q 419 340 449 332 q 368 349 389 347 q 308 354 347 351 q 60 574 60 372 q 132 754 60 686 q 342 822 204 822 q 548 760 481 822 q 613 583 615 699 z "},"t":{"ha":407,"x_min":89,"x_max":364,"o":"m 89 224 l 89 954 l 218 969 l 218 808 l 358 808 l 358 683 l 218 683 l 218 228 q 251 138 218 164 q 364 122 285 113 l 364 0 q 150 42 211 -17 q 89 224 89 100 z "},"u":{"ha":793,"x_min":92,"x_max":696,"o":"m 696 807 l 696 0 l 578 0 l 569 86 q 361 -10 511 -10 q 157 58 222 -10 q 92 283 92 125 l 92 807 l 225 807 l 225 285 q 267 156 225 200 q 383 111 310 111 q 513 156 463 111 q 563 283 563 200 l 563 807 l 696 807 z "},"v":{"ha":621,"x_min":4,"x_max":618,"o":"m 142 813 l 225 542 q 311 183 268 396 q 397 544 361 435 l 481 813 l 618 813 l 378 -1 l 244 -1 l 4 813 l 142 813 z "},"w":{"ha":1032,"x_min":11,"x_max":1019,"o":"m 797 542 l 881 813 l 1019 813 l 786 -1 l 654 -1 l 588 236 l 515 551 l 442 232 l 376 -1 l 244 -1 l 11 813 l 150 813 l 233 542 q 263 427 250 486 q 292 284 276 368 q 311 183 307 200 q 392 544 349 375 l 467 813 l 564 813 l 640 544 q 719 183 676 401 q 739 284 724 200 q 767 427 754 368 q 797 542 781 486 z "},"x":{"ha":660,"x_min":13,"x_max":649,"o":"m 500 0 l 418 142 l 328 313 l 238 140 l 157 0 l 13 0 l 253 410 l 21 810 l 169 810 l 246 681 l 329 519 l 415 682 l 490 810 l 635 810 l 404 411 l 649 0 l 500 0 z "},"y":{"ha":682,"x_min":21,"x_max":665,"o":"m 243 551 l 347 175 q 449 560 376 324 l 528 813 l 665 813 l 411 -1 l 363 -156 q 253 -311 324 -278 q 67 -297 182 -344 l 90 -185 q 135 -199 115 -194 q 176 -199 154 -203 q 216 -174 199 -194 q 246 -117 233 -154 l 279 -1 l 21 813 l 165 813 l 243 551 z "},"z":{"ha":675,"x_min":43,"x_max":647,"o":"m 43 0 l 43 21 l 443 692 l 81 692 l 81 813 l 639 813 l 639 789 l 244 124 l 647 124 l 647 0 l 43 0 z "},"{":{"ha":444,"x_min":57,"x_max":414,"o":"m 414 -182 l 413 -183 q 218 -155 275 -206 q 161 24 161 -104 l 161 331 q 57 472 161 472 l 57 560 q 161 701 161 560 l 161 951 q 220 1131 161 1079 q 413 1158 279 1183 l 413 1065 q 303 1056 332 1081 q 275 947 275 1032 l 275 701 q 274 641 275 661 q 264 591 272 621 q 234 544 256 561 q 178 517 213 526 q 235 489 214 507 q 265 441 257 471 q 275 392 274 411 q 276 332 276 372 l 276 29 q 303 -76 276 -54 q 413 -86 329 -97 l 414 -182 z "},"|":{"ha":365,"x_min":126,"x_max":239,"o":"m 239 1078 l 239 -143 l 126 -143 l 126 1078 l 239 1078 z "},"}":{"ha":471,"x_min":49,"x_max":406,"o":"m 50 -183 l 49 -182 l 50 -86 q 160 -76 133 -97 q 186 29 186 -54 l 186 332 q 188 392 186 372 q 197 441 189 411 q 227 489 206 471 q 285 517 249 507 q 228 544 250 526 q 199 591 207 561 q 189 641 190 621 q 188 701 188 661 l 188 947 q 159 1056 188 1032 q 50 1065 131 1081 l 50 1158 q 242 1131 183 1183 q 301 951 301 1079 l 301 701 q 406 560 301 560 l 406 472 q 301 331 301 472 l 301 24 q 244 -155 301 -104 q 50 -183 188 -206 z "},"~":{"ha":897,"x_min":106,"x_max":796,"o":"m 710 501 l 796 468 q 693 333 761 369 q 525 338 625 297 l 346 425 q 286 438 314 435 q 231 417 258 440 q 185 344 204 394 l 106 378 q 215 514 138 472 q 378 514 292 556 l 554 428 q 710 501 658 375 z "},"¡":{"ha":317,"x_min":82,"x_max":242,"o":"m 96 590 l 228 590 l 228 -253 l 96 -253 l 96 590 m 242 753 q 201 684 242 704 q 122 683 161 664 q 82 753 82 703 q 122 820 82 800 q 201 822 161 840 q 242 753 242 803 z "},"¢":{"ha":733,"x_min":69,"x_max":678,"o":"m 432 -140 l 306 -140 l 306 -10 q 125 76 181 4 q 69 296 69 149 l 69 526 q 311 818 69 786 l 311 956 l 440 956 l 440 819 q 620 746 563 804 q 678 547 678 688 l 546 547 q 507 672 546 640 q 374 704 468 704 q 242 665 282 704 q 201 526 201 625 l 201 296 q 242 149 201 189 q 374 110 282 110 q 508 143 469 110 q 546 281 546 176 l 678 281 q 620 67 678 133 q 432 -11 563 0 l 432 -140 z "},"£":{"ha":761,"x_min":46,"x_max":699,"o":"m 694 818 l 574 818 q 538 925 574 888 q 444 963 503 963 q 344 922 381 963 q 308 801 308 881 l 308 617 l 557 617 l 557 489 l 308 489 l 308 125 l 699 125 l 699 0 l 46 0 l 46 126 l 179 126 l 179 489 l 46 489 l 46 617 l 179 617 l 179 797 q 247 1008 179 932 q 444 1083 314 1083 q 627 1015 560 1083 q 694 818 694 946 z "},"¤":{"ha":750,"x_min":75,"x_max":685,"o":"m 379 267 q 496 316 454 267 q 538 442 538 365 q 496 571 538 522 q 379 619 454 619 q 264 567 307 619 q 221 442 221 514 q 264 319 221 371 q 379 267 307 267 m 244 188 l 168 104 l 75 207 l 149 286 q 111 439 111 356 q 150 596 111 522 l 76 676 l 168 781 l 244 696 q 381 733 308 733 q 515 696 456 733 l 593 781 l 685 676 l 613 597 q 651 442 651 528 q 613 286 651 360 l 685 207 l 593 104 l 515 188 q 379 151 454 151 q 244 188 308 151 z "},"¥":{"ha":703,"x_min":31,"x_max":678,"o":"m 260 864 l 354 597 l 449 864 l 535 1072 l 678 1072 l 454 535 l 578 535 l 578 433 l 419 433 l 419 381 l 579 381 l 579 282 l 419 282 l 419 -1 l 288 -1 l 288 282 l 135 282 l 135 381 l 288 381 l 288 433 l 135 433 l 135 535 l 251 535 l 31 1072 l 174 1072 l 260 864 z "},"¦":{"ha":375,"x_min":128,"x_max":247,"o":"m 128 567 l 128 1071 l 247 1071 l 247 567 l 128 567 m 247 468 l 247 -36 l 128 -36 l 128 468 l 247 468 z "},"§":{"ha":694,"x_min":67,"x_max":594,"o":"m 583 861 l 469 861 q 440 942 472 914 q 340 969 408 969 q 204 853 208 969 q 224 794 203 814 q 267 769 244 774 q 343 761 289 765 q 357 760 353 760 q 425 751 399 756 q 488 735 451 747 q 546 702 525 722 q 581 644 567 682 q 594 556 596 607 q 496 389 590 449 q 592 231 596 344 q 516 62 589 119 q 325 4 443 4 q 67 238 71 4 l 188 238 q 328 113 192 113 q 432 144 394 113 q 472 229 469 176 q 464 272 474 254 q 440 300 454 290 q 399 316 425 310 q 353 325 374 322 q 300 329 333 328 q 228 340 264 329 q 157 374 192 351 q 101 440 122 396 q 82 542 81 483 q 176 703 85 640 q 109 756 133 717 q 86 853 85 796 q 156 1015 89 954 q 346 1076 222 1076 q 531 1020 471 1076 q 583 861 590 964 m 200 542 q 233 465 199 492 q 331 438 268 438 q 435 469 397 438 q 475 554 472 501 q 435 627 476 600 q 340 654 394 654 q 241 625 281 654 q 200 542 201 596 z "},"¨":{"ha":618,"x_min":81,"x_max":543,"o":"m 81 1000 q 106 1057 81 1036 q 160 1078 131 1078 q 215 1058 190 1079 q 240 1000 240 1038 q 200 933 240 953 q 120 931 160 913 q 81 1000 81 950 m 383 1000 q 424 1069 383 1049 q 503 1069 464 1089 q 543 1000 543 1050 q 503 933 543 953 q 424 931 464 913 q 383 1000 383 950 z "},"©":{"ha":1169,"x_min":85,"x_max":1086,"o":"m 588 1031 l 588 1029 q 954 886 822 1031 q 1086 533 1086 742 q 957 163 1086 310 q 588 17 828 17 q 215 158 346 17 q 85 522 85 300 q 117 710 85 621 q 209 873 149 800 q 368 989 269 946 q 588 1031 467 1032 m 588 932 q 291 818 394 932 q 188 519 188 704 q 291 224 188 339 q 588 110 394 110 q 882 224 781 110 q 983 531 983 339 q 880 821 983 710 q 588 932 776 932 m 703 433 l 794 433 q 744 276 793 322 q 586 231 696 231 q 424 283 476 231 q 372 449 372 335 l 372 607 q 586 815 372 815 q 794 624 786 815 l 703 622 q 674 705 701 683 q 586 726 646 726 q 496 703 524 726 q 468 607 468 679 l 468 449 q 497 348 468 375 q 586 321 525 321 q 676 342 650 321 q 703 433 703 364 z "},"ª":{"ha":624,"x_min":67,"x_max":547,"o":"m 89 396 l 546 396 l 546 289 l 89 289 l 89 396 m 547 846 l 547 496 l 458 496 l 444 582 q 392 519 432 546 q 293 493 353 493 q 67 717 67 493 l 67 846 q 133 1022 67 965 q 310 1078 199 1078 q 547 846 547 1078 m 442 846 q 407 951 442 922 q 310 979 372 979 q 174 846 174 979 l 174 729 q 203 624 174 656 q 293 592 233 592 q 404 630 367 592 q 442 763 442 668 l 442 846 z "},"«":{"ha":635,"x_min":68,"x_max":564,"o":"m 260 718 l 382 718 l 192 413 l 382 106 l 260 106 l 68 413 l 260 718 m 250 413 l 442 718 l 564 718 l 374 413 l 564 106 l 442 106 l 250 413 z "},"¬":{"ha":735,"x_min":108,"x_max":619,"o":"m 619 247 l 515 247 l 515 431 l 108 431 l 108 535 l 619 535 l 619 247 z "},"­":{"ha":657,"x_min":74,"x_max":571,"o":"m 74 515 l 571 515 l 571 407 l 74 407 l 74 515 z "},"®":{"ha":1164,"x_min":81,"x_max":1090,"o":"m 585 1006 q 955 858 819 1006 q 1090 492 1090 711 q 955 125 1090 272 q 585 -22 819 -22 q 216 126 351 -22 q 81 492 81 274 q 216 858 81 711 q 585 1006 351 1006 m 188 492 l 188 494 q 294 194 188 313 q 585 75 400 75 q 878 194 771 75 q 985 493 985 313 q 878 794 985 675 q 585 913 771 913 q 294 793 400 913 q 188 492 188 674 m 793 590 q 766 470 793 513 q 676 415 739 428 l 799 204 l 690 204 l 578 397 l 506 397 l 506 204 l 414 204 l 414 797 l 596 797 q 741 758 689 797 q 793 615 793 718 l 793 590 m 596 707 l 506 707 l 506 485 l 596 485 q 673 506 650 485 q 696 590 696 528 l 696 615 q 691 665 696 647 q 671 692 686 683 q 642 703 656 700 q 596 707 628 706 z "},"¯":{"ha":535,"x_min":93,"x_max":433,"o":"m 93 1076 l 433 1076 l 433 974 l 93 974 l 93 1076 z "},"°":{"ha":453,"x_min":53,"x_max":381,"o":"m 217 996 q 156 970 178 996 q 133 915 133 944 q 154 859 132 885 q 217 833 176 833 q 277 859 256 833 q 299 915 299 885 q 276 970 299 944 q 217 996 254 996 m 110 1045 q 132 1062 110 1045 q 218 1079 154 1079 q 326 1045 282 1079 q 380 963 369 1011 q 381 867 390 915 q 327 785 371 819 q 219 751 283 751 q 108 785 153 751 q 53 867 63 819 q 54 963 43 915 q 110 1045 65 1011 z "},"±":{"ha":690,"x_min":81,"x_max":619,"o":"m 81 569 l 294 569 l 294 788 l 406 788 l 406 569 l 619 569 l 619 464 l 406 464 l 406 244 l 294 244 l 294 464 l 81 464 l 81 569 m 86 153 l 615 153 l 615 47 l 86 47 l 86 153 z "},"²":{"ha":440,"x_min":54,"x_max":378,"o":"m 54 501 l 54 624 q 66 710 54 674 q 104 772 78 747 q 149 807 131 796 q 201 835 167 818 q 276 925 276 871 q 217 986 276 986 q 156 903 150 986 l 61 903 q 219 1083 50 1083 q 336 1043 294 1083 q 378 925 378 1003 q 344 818 378 856 q 254 754 311 781 q 238 747 251 753 q 222 739 225 740 q 208 731 219 738 q 194 721 197 725 q 183 709 190 717 q 172 694 175 701 q 165 676 169 686 q 160 653 161 665 q 158 625 158 640 l 158 604 l 376 604 l 376 501 l 54 501 z "},"³":{"ha":433,"x_min":39,"x_max":383,"o":"m 39 675 l 142 675 q 208 592 143 592 q 275 672 275 592 q 208 749 275 749 l 164 749 l 164 847 l 208 847 q 271 921 271 850 q 211 982 271 982 q 165 961 183 982 q 146 899 146 940 l 46 899 q 87 1033 46 990 q 213 1078 128 1076 q 331 1040 286 1078 q 376 921 376 1001 q 360 853 376 889 q 313 804 343 818 q 383 672 383 774 q 338 538 383 586 q 207 490 292 490 q 79 536 119 490 q 39 675 39 582 z "},"´":{"ha":340,"x_min":75,"x_max":279,"o":"m 181 890 l 75 890 l 75 897 l 149 1074 l 279 1074 l 279 1069 l 181 890 z "},"µ":{"ha":754,"x_min":82,"x_max":674,"o":"m 82 -307 l 82 -306 l 82 807 l 219 807 l 219 294 q 382 104 219 104 q 502 151 463 104 q 542 311 542 199 l 542 806 l 674 806 l 674 0 l 561 0 l 547 76 q 482 -6 528 24 q 378 -36 436 -36 q 211 60 246 -36 l 211 -307 l 82 -307 z "},"¶":{"ha":897,"x_min":58,"x_max":861,"o":"m 457 942 l 457 -290 l 319 -290 l 319 357 q 58 713 56 378 q 356 1074 61 1074 l 861 1074 l 861 942 l 740 942 l 740 -289 l 606 -289 l 606 942 l 457 942 z "},"·":{"ha":279,"x_min":65,"x_max":225,"o":"m 65 460 q 90 517 65 496 q 145 538 115 538 q 200 518 175 539 q 225 460 225 497 q 185 392 225 413 q 105 391 144 372 q 65 460 65 410 z "},"¸":{"ha":408,"x_min":38,"x_max":332,"o":"m 114 -99 l 111 -100 l 142 26 l 232 26 l 217 -43 q 314 -87 286 -39 q 332 -193 342 -136 q 273 -291 319 -256 q 165 -322 226 -326 q 38 -251 75 -317 l 85 -178 q 168 -228 114 -228 q 235 -181 222 -228 q 212 -119 243 -142 q 133 -117 181 -96 l 114 -99 z "},"¹":{"ha":368,"x_min":53,"x_max":319,"o":"m 53 499 l 53 588 l 142 588 l 142 986 l 75 986 l 75 1074 l 236 1074 l 236 588 l 319 588 l 319 499 l 53 499 z "},"º":{"ha":607,"x_min":65,"x_max":538,"o":"m 303 608 q 133 672 200 608 q 65 844 65 735 q 132 1016 65 954 q 301 1078 199 1078 q 471 1016 404 1078 q 538 846 538 954 q 470 672 538 736 q 303 608 403 608 m 206 745 q 225 726 206 745 q 303 707 243 707 q 399 744 363 707 q 436 844 436 782 q 397 945 436 906 q 301 985 358 985 q 207 946 244 985 q 169 846 169 907 q 206 745 169 783 m 90 521 l 515 521 l 515 414 l 90 414 l 90 521 z "},"»":{"ha":635,"x_min":72,"x_max":567,"o":"m 193 108 l 72 108 l 261 414 l 72 719 l 193 719 l 385 414 l 193 108 m 567 414 l 375 108 l 254 108 l 443 414 l 254 719 l 375 719 l 567 414 z "},"¼":{"ha":1051,"x_min":72,"x_max":989,"o":"m 215 -3 l 729 1075 l 840 1075 l 324 -3 l 215 -3 m 831 115 l 607 115 l 594 189 l 819 563 l 933 563 l 933 213 l 989 213 l 989 115 l 933 115 l 933 -1 l 831 -1 l 831 115 m 832 213 l 832 303 l 846 436 l 724 213 l 832 213 m 72 499 l 72 588 l 161 588 l 161 986 l 94 986 l 94 1074 l 256 1074 l 256 588 l 339 588 l 339 499 l 72 499 z "},"½":{"ha":1126,"x_min":72,"x_max":1008,"o":"m 215 -3 l 729 1075 l 840 1075 l 324 -3 l 215 -3 m 72 499 l 72 588 l 161 588 l 161 986 l 94 986 l 94 1074 l 256 1074 l 256 588 l 339 588 l 339 499 l 72 499 m 682 0 l 682 122 q 694 209 682 172 q 732 270 706 246 q 776 306 758 294 q 829 333 794 317 q 904 424 904 369 q 844 485 904 485 q 783 401 778 485 l 689 401 q 847 582 678 582 q 964 542 922 582 q 1006 424 1006 501 q 972 317 1006 354 q 882 253 939 279 q 866 245 879 251 q 850 238 853 239 q 836 230 847 236 q 822 219 825 224 q 810 208 818 215 q 800 192 803 200 q 793 174 797 185 q 788 151 789 164 q 786 124 786 139 l 786 103 l 1008 103 l 1008 0 l 682 0 z "},"¾":{"ha":1118,"x_min":81,"x_max":1031,"o":"m 257 -3 l 771 1075 l 882 1075 l 365 -3 l 257 -3 m 872 115 l 649 115 l 636 189 l 861 563 l 975 563 l 975 213 l 1031 213 l 1031 115 l 975 115 l 975 -1 l 872 -1 l 872 115 m 874 213 l 874 303 l 888 436 l 765 213 l 874 213 m 81 675 l 183 675 q 250 592 185 592 q 317 672 317 592 q 250 749 317 749 l 206 749 l 206 847 l 250 847 q 313 921 313 850 q 253 982 313 982 q 206 961 225 982 q 188 899 188 940 l 88 899 q 128 1033 88 990 q 254 1078 169 1076 q 373 1040 328 1078 q 418 921 418 1001 q 401 853 418 889 q 354 804 385 818 q 425 672 425 774 q 379 538 425 586 q 249 490 333 490 q 121 536 161 490 q 81 675 81 582 z "},"¿":{"ha":681,"x_min":63,"x_max":632,"o":"m 504 10 l 632 10 q 622 -107 632 -60 q 584 -197 613 -154 q 496 -262 556 -240 q 343 -283 436 -283 q 63 39 63 -283 l 63 88 q 82 219 63 164 q 131 305 101 275 q 195 364 161 335 q 259 417 229 393 q 308 483 289 440 q 328 585 328 526 l 453 585 q 426 436 453 496 q 362 344 400 376 q 285 283 324 313 q 221 207 247 254 q 194 89 194 160 l 194 43 q 232 -113 196 -68 q 350 -158 268 -158 q 472 -124 440 -158 q 504 10 504 -89 m 461 749 q 421 680 461 700 q 341 679 381 660 q 301 749 301 699 q 341 816 301 796 q 421 817 381 836 q 461 749 461 799 z "},"À":{"ha":728,"x_min":13,"x_max":715,"o":"m 715 0 l 579 0 l 525 199 l 204 199 l 150 0 l 13 0 l 297 1068 l 432 1068 l 715 0 m 435 551 l 364 896 l 292 547 l 238 324 l 490 324 l 435 551 m 307 1139 l 208 1318 l 208 1322 l 343 1322 l 417 1146 l 417 1139 l 307 1139 z "},"Á":{"ha":728,"x_min":13,"x_max":715,"o":"m 715 0 l 579 0 l 525 199 l 204 199 l 150 0 l 13 0 l 297 1068 l 432 1068 l 715 0 m 435 551 l 364 896 l 292 547 l 238 324 l 490 324 l 435 551 m 422 1133 l 317 1133 l 317 1140 l 390 1317 l 521 1317 l 521 1313 l 422 1133 z "},"Â":{"ha":728,"x_min":13,"x_max":715,"o":"m 715 0 l 579 0 l 525 199 l 204 199 l 150 0 l 13 0 l 297 1068 l 432 1068 l 715 0 m 435 551 l 364 896 l 292 547 l 238 324 l 490 324 l 435 551 m 321 1308 l 400 1308 l 572 1139 l 572 1129 l 443 1129 l 364 1208 l 283 1129 l 154 1129 l 154 1139 l 321 1308 z "},"Ã":{"ha":728,"x_min":13,"x_max":715,"o":"m 715 0 l 579 0 l 525 199 l 204 199 l 150 0 l 13 0 l 297 1068 l 432 1068 l 715 0 m 435 551 l 364 896 l 292 547 l 238 324 l 490 324 l 435 551 m 251 1131 l 175 1167 q 238 1258 190 1229 q 344 1265 286 1286 l 407 1236 q 478 1272 460 1217 l 557 1240 q 496 1143 543 1169 q 396 1138 449 1117 l 335 1165 q 251 1131 272 1188 z "},"Ä":{"ha":728,"x_min":13,"x_max":715,"o":"m 715 0 l 579 0 l 525 199 l 204 199 l 150 0 l 13 0 l 297 1068 l 432 1068 l 715 0 m 435 551 l 364 896 l 292 547 l 238 324 l 490 324 l 435 551 m 132 1194 q 157 1251 132 1231 q 212 1273 182 1272 q 267 1253 242 1274 q 292 1194 292 1232 q 251 1127 292 1147 q 172 1126 211 1107 q 132 1194 132 1144 m 435 1194 q 460 1251 435 1231 q 515 1273 485 1272 q 569 1253 544 1274 q 594 1194 594 1232 q 554 1127 594 1147 q 474 1126 514 1107 q 435 1194 435 1144 z "},"Å":{"ha":728,"x_min":13,"x_max":715,"o":"m 214 1144 l 215 1144 q 259 1251 215 1213 q 364 1289 303 1289 q 469 1251 424 1289 q 514 1146 514 1213 q 444 1021 514 1060 l 715 0 l 579 0 l 525 199 l 204 199 l 150 0 l 13 0 l 283 1018 q 214 1144 214 1057 m 435 551 l 364 896 l 292 547 l 238 324 l 490 324 l 435 551 m 422 1176 q 413 1191 422 1176 q 364 1207 404 1207 q 307 1176 324 1207 q 307 1113 290 1144 q 364 1082 324 1082 q 422 1113 406 1082 q 422 1176 439 1144 z "},"Æ":{"ha":1042,"x_min":3,"x_max":994,"o":"m 429 1072 l 982 1072 l 982 960 l 618 960 l 618 633 l 960 633 l 960 515 l 618 515 l 618 118 l 994 118 l 994 0 l 496 0 l 496 256 l 235 256 l 138 0 l 3 0 l 429 1072 m 279 374 l 496 374 l 496 951 l 413 713 l 279 374 z "},"Ç":{"ha":806,"x_min":68,"x_max":744,"o":"m 329 -126 l 326 -128 l 356 -6 q 201 24 260 0 q 113 99 142 49 q 76 206 85 150 q 68 356 68 261 l 68 719 q 81 876 68 814 q 131 987 94 938 q 236 1058 168 1036 q 410 1081 304 1081 q 578 1062 513 1081 q 681 1001 644 1043 q 730 906 717 960 q 744 769 743 853 l 615 769 q 575 915 614 874 q 410 957 536 957 q 299 945 340 957 q 235 901 257 933 q 208 830 214 869 q 201 721 201 790 l 201 354 q 241 169 201 219 q 410 118 281 118 q 581 158 543 118 q 618 328 618 199 l 744 328 q 740 217 744 260 q 719 128 736 174 q 671 57 703 82 q 583 15 639 32 q 446 -6 528 -3 l 432 -71 q 531 -116 501 -67 q 550 -222 560 -165 q 490 -321 536 -287 q 381 -350 444 -354 q 253 -279 290 -344 l 300 -206 q 383 -256 329 -256 q 450 -208 438 -256 q 427 -147 458 -169 q 349 -144 396 -124 l 329 -126 z "},"È":{"ha":707,"x_min":81,"x_max":656,"o":"m 81 1072 l 621 1072 l 621 956 l 213 956 l 213 633 l 582 633 l 582 510 l 213 510 l 213 124 l 656 124 l 656 0 l 81 0 l 81 1072 m 324 1138 l 225 1317 l 225 1321 l 360 1321 l 433 1144 l 433 1138 l 324 1138 z "},"É":{"ha":707,"x_min":81,"x_max":656,"o":"m 81 1072 l 621 1072 l 621 956 l 213 956 l 213 633 l 582 633 l 582 510 l 213 510 l 213 124 l 656 124 l 656 0 l 81 0 l 81 1072 m 411 1142 l 306 1142 l 306 1149 l 379 1325 l 510 1325 l 510 1321 l 411 1142 z "},"Ê":{"ha":707,"x_min":81,"x_max":656,"o":"m 81 1072 l 621 1072 l 621 956 l 213 956 l 213 633 l 582 633 l 582 510 l 213 510 l 213 124 l 656 124 l 656 0 l 81 0 l 81 1072 m 333 1325 l 413 1325 l 585 1156 l 585 1146 l 456 1146 l 376 1225 l 296 1146 l 167 1146 l 167 1156 l 333 1325 z "},"Ë":{"ha":707,"x_min":81,"x_max":656,"o":"m 81 1072 l 621 1072 l 621 956 l 213 956 l 213 633 l 582 633 l 582 510 l 213 510 l 213 124 l 656 124 l 656 0 l 81 0 l 81 1072 m 133 1232 q 174 1301 133 1281 q 253 1301 214 1321 q 293 1232 293 1282 q 253 1165 293 1185 q 174 1163 214 1144 q 133 1232 133 1182 m 436 1232 q 476 1301 436 1281 q 556 1301 517 1321 q 596 1232 596 1282 q 556 1165 596 1185 q 476 1163 517 1144 q 436 1232 436 1182 z "},"Ì":{"ha":326,"x_min":17,"x_max":232,"o":"m 232 -1 l 97 -1 l 97 1068 l 232 1068 l 232 -1 m 115 1140 l 17 1319 l 17 1324 l 151 1324 l 225 1147 l 225 1140 l 115 1140 z "},"Í":{"ha":329,"x_min":97,"x_max":322,"o":"m 232 -1 l 97 -1 l 97 1068 l 232 1068 l 232 -1 m 224 1156 l 118 1156 l 118 1163 l 192 1339 l 322 1339 l 322 1335 l 224 1156 z "},"Î":{"ha":329,"x_min":-42,"x_max":376,"o":"m 232 -1 l 97 -1 l 97 1068 l 232 1068 l 232 -1 m 125 1319 l 204 1319 l 376 1150 l 376 1140 l 247 1140 l 168 1219 l 88 1140 l -42 1140 l -42 1150 l 125 1319 z "},"Ï":{"ha":329,"x_min":-42,"x_max":388,"o":"m -42 1208 q -1 1277 -42 1257 q 78 1278 39 1297 q 118 1208 118 1258 q 78 1141 118 1161 q -1 1140 39 1121 q -42 1208 -42 1158 m 228 1208 q 268 1277 228 1257 q 348 1278 308 1297 q 388 1208 388 1258 q 348 1141 388 1161 q 268 1140 308 1121 q 228 1208 228 1158 m 232 -1 l 97 -1 l 97 1068 l 232 1068 l 232 -1 z "},"Ð":{"ha":842,"x_min":4,"x_max":768,"o":"m 421 0 l 106 0 l 106 476 l 4 476 l 4 585 l 106 585 l 106 1071 l 431 1071 q 603 1049 536 1071 q 707 978 671 1026 q 756 868 743 929 q 768 713 768 807 l 768 360 q 755 203 768 265 q 705 92 742 142 q 599 21 668 43 q 421 0 529 -1 m 238 126 l 421 126 q 539 138 496 126 q 603 181 582 149 q 629 249 624 213 q 635 358 635 286 l 635 714 q 629 823 635 786 q 603 892 624 860 q 539 935 582 924 q 421 946 496 946 l 238 946 l 238 585 l 403 585 l 403 476 l 238 476 l 238 126 z "},"Ñ":{"ha":764,"x_min":88,"x_max":688,"o":"m 213 1071 l 575 251 l 556 615 l 556 1071 l 688 1071 l 688 0 l 564 0 l 211 769 l 219 418 l 219 0 l 88 0 l 88 1071 l 213 1071 m 272 1165 l 196 1201 q 259 1292 211 1264 q 365 1300 307 1321 l 428 1271 q 499 1307 481 1251 l 578 1275 q 517 1178 564 1204 q 417 1172 469 1151 l 356 1200 q 272 1165 293 1222 z "},"Ò":{"ha":828,"x_min":71,"x_max":765,"o":"m 765 725 l 765 351 q 752 195 765 257 q 702 84 739 133 q 596 13 665 35 q 418 -10 526 -10 q 240 13 310 -10 q 134 84 171 35 q 84 195 97 133 q 71 351 71 257 l 71 725 q 84 881 71 819 q 134 992 97 943 q 240 1064 171 1042 q 418 1086 310 1086 q 596 1064 526 1086 q 702 992 665 1042 q 752 881 739 943 q 765 725 765 819 m 632 350 l 632 726 q 629 817 632 785 q 615 883 626 850 q 580 931 603 915 q 517 956 557 946 q 418 965 478 965 q 319 956 358 965 q 256 931 279 946 q 222 883 233 915 q 207 817 210 850 q 204 726 204 785 l 204 350 q 210 240 204 278 q 236 170 215 203 q 300 126 257 138 q 418 114 343 114 q 536 126 493 114 q 600 170 579 138 q 626 240 621 203 q 632 350 632 278 m 378 1156 l 279 1335 l 279 1339 l 414 1339 l 488 1163 l 488 1156 l 378 1156 z "},"Ó":{"ha":828,"x_min":71,"x_max":765,"o":"m 765 725 l 765 351 q 752 195 765 257 q 702 84 739 133 q 596 13 665 35 q 418 -10 526 -10 q 240 13 310 -10 q 134 84 171 35 q 84 195 97 133 q 71 351 71 257 l 71 725 q 84 881 71 819 q 134 992 97 943 q 240 1064 171 1042 q 418 1086 310 1086 q 596 1064 526 1086 q 702 992 665 1042 q 752 881 739 943 q 765 725 765 819 m 632 350 l 632 726 q 629 817 632 785 q 615 883 626 850 q 580 931 603 915 q 517 956 557 946 q 418 965 478 965 q 319 956 358 965 q 256 931 279 946 q 222 883 233 915 q 207 817 210 850 q 204 726 204 785 l 204 350 q 210 240 204 278 q 236 170 215 203 q 300 126 257 138 q 418 114 343 114 q 536 126 493 114 q 600 170 579 138 q 626 240 621 203 q 632 350 632 278 m 482 1156 l 376 1156 l 376 1163 l 450 1339 l 581 1339 l 581 1335 l 482 1156 z "},"Ô":{"ha":828,"x_min":71,"x_max":765,"o":"m 765 725 l 765 351 q 752 195 765 257 q 702 84 739 133 q 596 13 665 35 q 418 -10 526 -10 q 240 13 310 -10 q 134 84 171 35 q 84 195 97 133 q 71 351 71 257 l 71 725 q 84 881 71 819 q 134 992 97 943 q 240 1064 171 1042 q 418 1086 310 1086 q 596 1064 526 1086 q 702 992 665 1042 q 752 881 739 943 q 765 725 765 819 m 632 350 l 632 726 q 629 817 632 785 q 615 883 626 850 q 580 931 603 915 q 517 956 557 946 q 418 965 478 965 q 319 956 358 965 q 256 931 279 946 q 222 883 233 915 q 207 817 210 850 q 204 726 204 785 l 204 350 q 210 240 204 278 q 236 170 215 203 q 300 126 257 138 q 418 114 343 114 q 536 126 493 114 q 600 170 579 138 q 626 240 621 203 q 632 350 632 278 m 392 1335 l 471 1335 l 643 1165 l 643 1156 l 514 1156 l 435 1235 l 354 1156 l 225 1156 l 225 1165 l 392 1335 z "},"Õ":{"ha":828,"x_min":71,"x_max":765,"o":"m 765 725 l 765 351 q 752 195 765 257 q 702 84 739 133 q 596 13 665 35 q 418 -10 526 -10 q 240 13 310 -10 q 134 84 171 35 q 84 195 97 133 q 71 351 71 257 l 71 725 q 84 881 71 819 q 134 992 97 943 q 240 1064 171 1042 q 418 1086 310 1086 q 596 1064 526 1086 q 702 992 665 1042 q 752 881 739 943 q 765 725 765 819 m 632 350 l 632 726 q 629 817 632 785 q 615 883 626 850 q 580 931 603 915 q 517 956 557 946 q 418 965 478 965 q 319 956 358 965 q 256 931 279 946 q 222 883 233 915 q 207 817 210 850 q 204 726 204 785 l 204 350 q 210 240 204 278 q 236 170 215 203 q 300 126 257 138 q 418 114 343 114 q 536 126 493 114 q 600 170 579 138 q 626 240 621 203 q 632 350 632 278 m 307 1165 l 231 1201 q 294 1292 246 1264 q 400 1300 342 1321 l 463 1271 q 533 1307 515 1251 l 613 1275 q 551 1178 599 1204 q 451 1172 504 1151 l 390 1200 q 307 1165 328 1222 z "},"Ö":{"ha":828,"x_min":71,"x_max":765,"o":"m 765 725 l 765 351 q 752 195 765 257 q 702 84 739 133 q 596 13 665 35 q 418 -10 526 -10 q 240 13 310 -10 q 134 84 171 35 q 84 195 97 133 q 71 351 71 257 l 71 725 q 84 881 71 819 q 134 992 97 943 q 240 1064 171 1042 q 418 1086 310 1086 q 596 1064 526 1086 q 702 992 665 1042 q 752 881 739 943 q 765 725 765 819 m 632 350 l 632 726 q 629 817 632 785 q 615 883 626 850 q 580 931 603 915 q 517 956 557 946 q 418 965 478 965 q 319 956 358 965 q 256 931 279 946 q 222 883 233 915 q 207 817 210 850 q 204 726 204 785 l 204 350 q 210 240 204 278 q 236 170 215 203 q 300 126 257 138 q 418 114 343 114 q 536 126 493 114 q 600 170 579 138 q 626 240 621 203 q 632 350 632 278 m 196 1231 q 221 1288 196 1267 q 276 1309 246 1308 q 331 1289 306 1310 q 356 1231 356 1268 q 315 1163 356 1183 q 235 1162 275 1143 q 196 1231 196 1181 m 499 1231 q 524 1288 499 1267 q 578 1309 549 1308 q 633 1289 608 1310 q 658 1231 658 1268 q 618 1163 658 1183 q 538 1162 578 1143 q 499 1231 499 1181 z "},"×":{"ha":653,"x_min":94,"x_max":556,"o":"m 172 672 l 325 518 l 479 672 l 553 600 l 396 442 l 556 283 l 483 214 l 326 372 l 169 214 l 94 288 l 253 446 l 97 600 l 172 672 z "},"Ø":{"ha":828,"x_min":71,"x_max":765,"o":"m 765 725 l 765 351 q 752 195 765 257 q 702 84 739 133 q 596 13 665 35 q 418 -10 526 -10 q 265 6 331 -10 l 224 -106 l 113 -106 l 171 49 q 92 163 114 90 q 71 351 71 235 l 71 725 q 84 881 71 819 q 134 992 97 943 q 240 1064 171 1042 q 418 1086 310 1086 q 557 1072 492 1086 l 601 1189 l 713 1189 l 654 1036 q 742 921 718 996 q 765 725 765 846 m 632 350 l 632 726 q 604 903 632 857 l 310 124 q 418 114 349 114 q 536 126 493 114 q 600 170 579 138 q 626 240 621 203 q 632 350 632 278 m 204 350 q 224 189 204 229 l 514 957 q 418 965 475 965 q 319 956 358 965 q 256 931 279 946 q 222 883 233 915 q 207 817 210 850 q 204 726 204 785 l 204 350 z "},"Ù":{"ha":836,"x_min":83,"x_max":744,"o":"m 611 351 l 611 1072 l 744 1072 l 744 353 q 672 80 744 168 q 415 -8 599 -8 q 158 80 232 -8 q 83 353 83 168 l 83 1071 l 217 1071 l 217 351 q 256 167 217 218 q 415 115 296 115 q 573 167 535 115 q 611 351 611 218 m 365 1150 l 267 1329 l 267 1333 l 401 1333 l 475 1157 l 475 1150 l 365 1150 z "},"Ú":{"ha":836,"x_min":83,"x_max":744,"o":"m 611 351 l 611 1072 l 744 1072 l 744 353 q 672 80 744 168 q 415 -8 599 -8 q 158 80 232 -8 q 83 353 83 168 l 83 1071 l 217 1071 l 217 351 q 256 167 217 218 q 415 115 296 115 q 573 167 535 115 q 611 351 611 218 m 471 1142 l 365 1142 l 365 1149 l 439 1325 l 569 1325 l 569 1321 l 471 1142 z "},"Û":{"ha":836,"x_min":83,"x_max":744,"o":"m 611 351 l 611 1072 l 744 1072 l 744 353 q 672 80 744 168 q 415 -8 599 -8 q 158 80 232 -8 q 83 353 83 168 l 83 1071 l 217 1071 l 217 351 q 256 167 217 218 q 415 115 296 115 q 573 167 535 115 q 611 351 611 218 m 386 1329 l 465 1329 l 638 1160 l 638 1150 l 508 1150 l 429 1229 l 349 1150 l 219 1150 l 219 1160 l 386 1329 z "},"Ü":{"ha":836,"x_min":83,"x_max":744,"o":"m 611 351 l 611 1072 l 744 1072 l 744 353 q 672 80 744 168 q 415 -8 599 -8 q 158 80 232 -8 q 83 353 83 168 l 83 1071 l 217 1071 l 217 351 q 256 167 217 218 q 415 115 296 115 q 573 167 535 115 q 611 351 611 218 m 189 1238 q 229 1306 189 1286 q 309 1307 269 1326 q 349 1238 349 1288 q 309 1170 349 1190 q 229 1169 269 1150 q 189 1238 189 1188 m 492 1238 q 532 1306 492 1286 q 612 1307 572 1326 q 651 1238 651 1288 q 612 1170 651 1190 q 532 1169 572 1150 q 492 1238 492 1188 z "},"Ý":{"ha":640,"x_min":-3,"x_max":644,"o":"m 226 864 l 321 597 l 415 864 l 501 1072 l 644 1072 l 386 449 l 386 -1 l 254 -1 l 254 449 l -3 1072 l 140 1072 l 226 864 m 367 1136 l 261 1136 l 261 1143 l 335 1319 l 465 1319 l 465 1315 l 367 1136 z "},"Þ":{"ha":736,"x_min":97,"x_max":689,"o":"m 97 1071 l 229 1071 l 229 901 l 385 901 q 611 833 533 901 q 689 610 689 765 l 689 493 q 619 255 689 326 q 385 183 549 183 l 229 183 l 229 0 l 97 0 l 97 1071 m 385 776 l 229 776 l 229 310 l 385 310 q 517 348 478 310 q 557 493 557 386 l 557 610 q 519 745 557 714 q 385 776 482 776 z "},"ß":{"ha":718,"x_min":71,"x_max":667,"o":"m 203 811 l 203 0 l 71 0 l 71 811 q 128 1016 71 943 q 325 1089 185 1089 q 521 1016 465 1089 q 576 811 576 943 q 486 599 576 665 q 667 326 667 544 q 593 76 667 153 q 346 0 519 0 l 265 0 l 265 117 l 349 117 q 497 169 460 117 q 535 325 535 221 q 492 466 535 425 q 353 507 449 507 l 268 507 l 268 633 l 301 633 q 377 649 347 633 q 420 694 407 665 q 438 750 433 724 q 443 811 443 776 q 417 931 443 892 q 322 971 392 971 q 230 931 257 971 q 203 811 203 890 z "},"à":{"ha":728,"x_min":61,"x_max":640,"o":"m 640 549 l 640 0 l 521 0 l 510 110 q 430 27 486 61 q 303 -7 374 -7 q 61 188 81 -7 q 119 367 51 294 q 311 457 186 439 q 507 469 374 467 l 507 549 q 473 662 507 624 q 353 700 439 700 q 257 670 290 700 q 225 564 224 640 l 96 564 q 158 758 92 696 q 357 821 225 821 q 568 756 496 821 q 640 549 640 692 m 510 360 q 322 346 385 360 q 194 204 181 315 q 317 119 201 119 q 510 360 503 119 m 336 901 l 238 1081 l 238 1085 l 372 1085 l 446 908 l 446 901 l 336 901 z "},"á":{"ha":728,"x_min":61,"x_max":640,"o":"m 640 549 l 640 0 l 521 0 l 510 110 q 430 27 486 61 q 303 -7 374 -7 q 61 188 81 -7 q 119 367 51 294 q 311 457 186 439 q 507 469 374 467 l 507 549 q 473 662 507 624 q 353 700 439 700 q 257 670 290 700 q 225 564 224 640 l 96 564 q 158 758 92 696 q 357 821 225 821 q 568 756 496 821 q 640 549 640 692 m 510 360 q 322 346 385 360 q 194 204 181 315 q 317 119 201 119 q 510 360 503 119 m 421 904 l 315 904 l 315 911 l 389 1088 l 519 1088 l 519 1083 l 421 904 z "},"â":{"ha":728,"x_min":61,"x_max":640,"o":"m 640 549 l 640 0 l 521 0 l 510 110 q 430 27 486 61 q 303 -7 374 -7 q 61 188 81 -7 q 119 367 51 294 q 311 457 186 439 q 507 469 374 467 l 507 549 q 473 662 507 624 q 353 700 439 700 q 257 670 290 700 q 225 564 224 640 l 96 564 q 158 758 92 696 q 357 821 225 821 q 568 756 496 821 q 640 549 640 692 m 510 360 q 322 346 385 360 q 194 204 181 315 q 317 119 201 119 q 510 360 503 119 m 343 1078 l 422 1078 l 594 908 l 594 899 l 465 899 l 386 978 l 306 899 l 176 899 l 176 908 l 343 1078 z "},"ã":{"ha":728,"x_min":61,"x_max":640,"o":"m 640 549 l 640 0 l 521 0 l 510 110 q 430 27 486 61 q 303 -7 374 -7 q 61 188 81 -7 q 119 367 51 294 q 311 457 186 439 q 507 469 374 467 l 507 549 q 473 662 507 624 q 353 700 439 700 q 257 670 290 700 q 225 564 224 640 l 96 564 q 158 758 92 696 q 357 821 225 821 q 568 756 496 821 q 640 549 640 692 m 510 360 q 322 346 385 360 q 194 204 181 315 q 317 119 201 119 q 510 360 503 119 m 254 938 l 178 974 q 241 1065 193 1036 q 347 1072 289 1093 l 410 1043 q 481 1079 463 1024 l 560 1047 q 499 950 546 976 q 399 944 451 924 l 338 972 q 254 938 275 994 z "},"ä":{"ha":728,"x_min":61,"x_max":640,"o":"m 172 1000 q 213 1069 172 1049 q 292 1069 253 1089 q 332 1000 332 1050 q 292 933 332 953 q 213 931 253 913 q 172 1000 172 950 m 446 1000 q 471 1057 446 1036 q 526 1078 496 1078 q 581 1058 556 1079 q 606 1000 606 1038 q 565 933 606 953 q 485 931 525 913 q 446 1000 446 950 m 640 549 l 640 0 l 521 0 l 510 110 q 430 27 486 61 q 303 -7 374 -7 q 61 188 81 -7 q 119 367 51 294 q 311 457 186 439 q 507 469 374 467 l 507 549 q 473 662 507 624 q 353 700 439 700 q 257 670 290 700 q 225 564 224 640 l 96 564 q 158 758 92 696 q 357 821 225 821 q 568 756 496 821 q 640 549 640 692 m 510 360 q 322 346 385 360 q 194 204 181 315 q 317 119 201 119 q 510 360 503 119 z "},"å":{"ha":728,"x_min":61,"x_max":640,"o":"m 640 549 l 640 0 l 521 0 l 510 110 q 430 27 486 61 q 303 -7 374 -7 q 61 188 81 -7 q 119 367 51 294 q 311 457 186 439 q 507 469 374 467 l 507 549 q 473 662 507 624 q 353 700 439 700 q 257 670 290 700 q 225 564 224 640 l 96 564 q 158 758 92 696 q 357 821 225 821 q 568 756 496 821 q 640 549 640 692 m 510 360 q 322 346 385 360 q 194 204 181 315 q 317 119 201 119 q 510 360 503 119 m 224 1008 q 267 1104 224 1069 q 374 1139 311 1139 q 479 1104 433 1139 q 525 1010 525 1069 q 481 914 525 949 q 372 879 436 879 q 265 913 307 879 q 224 1008 222 947 m 431 1037 q 423 1051 431 1037 q 374 1065 414 1065 q 317 1037 333 1065 q 317 981 300 1008 q 374 953 333 953 q 432 981 415 953 q 431 1037 449 1008 z "},"æ":{"ha":1144,"x_min":54,"x_max":1079,"o":"m 947 233 l 1076 233 q 1008 48 1076 110 q 783 -14 939 -14 q 628 15 685 -14 q 540 107 572 44 q 431 15 489 43 q 296 -14 374 -14 q 54 188 75 -14 q 108 367 43 296 q 304 457 174 439 q 504 469 367 467 l 504 549 q 469 661 504 622 q 346 700 433 700 q 250 670 283 700 q 218 564 217 640 l 89 564 q 151 758 85 696 q 350 821 218 821 q 563 724 510 821 q 783 822 625 822 q 1003 753 928 822 q 1079 528 1079 683 l 1079 351 l 618 351 l 618 290 q 655 147 618 183 q 783 110 692 110 q 909 140 871 110 q 947 233 947 169 m 618 528 l 618 469 l 951 469 l 951 528 q 910 667 951 631 q 783 704 869 704 q 658 668 697 704 q 618 528 618 632 m 507 356 q 315 346 360 356 q 188 204 174 315 q 226 138 192 160 q 310 117 260 117 q 507 356 500 117 z "},"ç":{"ha":733,"x_min":69,"x_max":671,"o":"m 292 -126 l 289 -128 l 318 -11 q 129 73 189 0 q 69 296 69 146 l 69 526 q 374 822 69 822 q 591 761 517 822 q 671 550 665 700 l 546 549 q 501 669 542 639 q 374 700 460 700 q 242 665 283 700 q 201 526 201 631 l 201 296 q 242 151 201 190 q 374 113 283 113 q 505 144 465 113 q 546 275 544 176 l 671 275 q 608 60 669 125 q 408 -12 547 -6 l 394 -72 q 491 -115 464 -68 q 508 -218 518 -162 q 450 -312 496 -278 q 343 -343 404 -347 q 217 -274 256 -337 l 263 -203 q 298 -237 275 -222 q 346 -251 321 -251 q 413 -206 400 -251 q 390 -145 421 -167 q 311 -143 358 -124 l 292 -126 z "},"è":{"ha":736,"x_min":74,"x_max":674,"o":"m 543 236 l 671 236 q 599 53 671 115 q 374 -8 528 -8 q 142 59 211 -8 q 74 289 74 126 l 74 526 q 151 748 74 679 q 374 817 228 817 q 674 526 674 817 l 674 353 l 204 353 l 204 292 q 243 151 204 188 q 374 114 282 114 q 543 236 543 114 m 204 526 l 204 468 l 547 468 l 547 526 q 503 663 547 626 q 374 700 460 700 q 246 664 288 700 q 204 526 204 628 m 332 897 l 233 1076 l 233 1081 l 368 1081 l 442 904 l 442 897 l 332 897 z "},"é":{"ha":736,"x_min":74,"x_max":674,"o":"m 543 236 l 671 236 q 599 53 671 115 q 374 -8 528 -8 q 142 59 211 -8 q 74 289 74 126 l 74 526 q 151 748 74 679 q 374 817 228 817 q 674 526 674 817 l 674 353 l 204 353 l 204 292 q 243 151 204 188 q 374 114 282 114 q 543 236 543 114 m 204 526 l 204 468 l 547 468 l 547 526 q 503 663 547 626 q 374 700 460 700 q 246 664 288 700 q 204 526 204 628 m 435 904 l 329 904 l 329 911 l 403 1088 l 533 1088 l 533 1083 l 435 904 z "},"ê":{"ha":736,"x_min":74,"x_max":674,"o":"m 543 236 l 671 236 q 599 53 671 115 q 374 -8 528 -8 q 142 59 211 -8 q 74 289 74 126 l 74 526 q 151 748 74 679 q 374 817 228 817 q 674 526 674 817 l 674 353 l 204 353 l 204 292 q 243 151 204 188 q 374 114 282 114 q 543 236 543 114 m 204 526 l 204 468 l 547 468 l 547 526 q 503 663 547 626 q 374 700 460 700 q 246 664 288 700 q 204 526 204 628 m 339 1078 l 418 1078 l 590 908 l 590 899 l 461 899 l 382 978 l 301 899 l 172 899 l 172 908 l 339 1078 z "},"ë":{"ha":736,"x_min":74,"x_max":674,"o":"m 176 1000 q 201 1057 176 1036 q 256 1078 226 1078 q 311 1058 286 1079 q 336 1000 336 1038 q 296 933 336 953 q 216 931 256 913 q 176 1000 176 950 m 444 1000 q 485 1069 444 1049 q 565 1069 525 1089 q 604 1000 604 1050 q 565 933 604 953 q 485 931 525 913 q 444 1000 444 950 m 543 236 l 671 236 q 599 53 671 115 q 374 -8 528 -8 q 142 59 211 -8 q 74 289 74 126 l 74 526 q 151 748 74 679 q 374 817 228 817 q 674 526 674 817 l 674 353 l 204 353 l 204 292 q 243 151 204 188 q 374 114 282 114 q 543 236 543 114 m 204 526 l 204 468 l 547 468 l 547 526 q 503 663 547 626 q 374 700 460 700 q 246 664 288 700 q 204 526 204 628 z "},"ì":{"ha":340,"x_min":38,"x_max":246,"o":"m 242 0 l 110 0 l 110 807 l 242 807 l 242 0 m 136 890 l 38 1069 l 38 1074 l 172 1074 l 246 897 l 246 890 l 136 890 z "},"í":{"ha":340,"x_min":110,"x_max":319,"o":"m 242 0 l 110 0 l 110 807 l 242 807 l 242 0 m 221 890 l 115 890 l 115 897 l 189 1074 l 319 1074 l 319 1069 l 221 890 z "},"î":{"ha":340,"x_min":-1,"x_max":354,"o":"m 140 1078 l 207 1078 l 354 900 l 354 890 l 244 890 l 176 961 l 108 890 l -1 890 l -1 900 l 140 1078 m 242 0 l 110 0 l 110 807 l 242 807 l 242 0 z "},"ï":{"ha":388,"x_min":-8,"x_max":400,"o":"m -8 1000 q 32 1069 -8 1049 q 112 1069 72 1089 q 151 1000 151 1050 q 112 933 151 953 q 32 931 72 913 q -8 1000 -8 950 m 240 1000 q 265 1057 240 1036 q 320 1078 290 1078 q 375 1058 350 1079 q 400 1000 400 1038 q 360 933 400 953 q 280 931 319 913 q 240 1000 240 950 m 256 0 l 124 0 l 124 807 l 256 807 l 256 0 z "},"ð":{"ha":758,"x_min":78,"x_max":686,"o":"m 299 831 l 256 896 l 329 944 q 176 1064 274 994 l 179 1074 l 354 1074 q 435 1011 392 1047 l 525 1072 l 569 1007 l 493 956 q 686 493 686 750 l 686 296 q 616 58 686 129 q 382 -14 546 -14 q 148 58 218 -14 q 78 296 78 129 l 78 493 q 148 706 78 636 q 343 776 218 776 q 486 760 422 776 q 388 888 453 822 l 299 831 m 249 151 q 269 132 249 151 q 382 113 289 113 q 515 151 475 113 q 554 296 554 189 l 554 493 q 515 626 554 590 q 382 663 475 663 q 249 626 289 663 q 210 493 210 590 l 210 296 q 249 151 210 189 z "},"ñ":{"ha":810,"x_min":110,"x_max":714,"o":"m 110 0 l 110 813 l 228 813 l 236 726 q 444 822 294 822 q 649 755 583 822 q 714 529 714 688 l 714 0 l 581 0 l 581 528 q 538 657 581 613 q 422 701 496 701 q 293 657 343 701 q 243 529 243 613 l 243 0 l 110 0 m 308 939 l 232 975 q 295 1066 247 1038 q 401 1074 343 1094 l 464 1044 q 535 1081 517 1025 l 614 1049 q 553 951 600 978 q 453 946 506 925 l 392 974 q 308 939 329 996 z "},"ò":{"ha":747,"x_min":69,"x_max":678,"o":"m 374 101 q 506 144 467 101 q 546 296 546 188 l 546 528 q 505 668 546 632 q 374 704 464 704 q 242 668 283 704 q 201 528 201 632 l 201 296 q 242 144 201 188 q 374 101 282 101 m 374 -14 q 140 58 210 -14 q 69 296 69 129 l 69 528 q 148 753 69 683 q 374 822 226 822 q 599 753 521 822 q 678 528 678 683 l 678 296 q 606 58 678 131 q 374 -14 535 -14 m 339 896 l 240 1075 l 240 1079 l 375 1079 l 449 903 l 449 896 l 339 896 z "},"ó":{"ha":747,"x_min":69,"x_max":678,"o":"m 374 101 q 506 144 467 101 q 546 296 546 188 l 546 528 q 505 668 546 632 q 374 704 464 704 q 242 668 283 704 q 201 528 201 632 l 201 296 q 242 144 201 188 q 374 101 282 101 m 374 -14 q 140 58 210 -14 q 69 296 69 129 l 69 528 q 148 753 69 683 q 374 822 226 822 q 599 753 521 822 q 678 528 678 683 l 678 296 q 606 58 678 131 q 374 -14 535 -14 m 425 890 l 319 890 l 319 897 l 393 1074 l 524 1074 l 524 1069 l 425 890 z "},"ô":{"ha":747,"x_min":69,"x_max":678,"o":"m 374 101 q 506 144 467 101 q 546 296 546 188 l 546 528 q 505 668 546 632 q 374 704 464 704 q 242 668 283 704 q 201 528 201 632 l 201 296 q 242 144 201 188 q 374 101 282 101 m 374 -14 q 140 58 210 -14 q 69 296 69 129 l 69 528 q 148 753 69 683 q 374 822 226 822 q 599 753 521 822 q 678 528 678 683 l 678 296 q 606 58 678 131 q 374 -14 535 -14 m 344 1078 l 424 1078 l 596 908 l 596 899 l 467 899 l 388 978 l 307 899 l 178 899 l 178 908 l 344 1078 z "},"õ":{"ha":747,"x_min":69,"x_max":678,"o":"m 374 101 q 506 144 467 101 q 546 296 546 188 l 546 528 q 505 668 546 632 q 374 704 464 704 q 242 668 283 704 q 201 528 201 632 l 201 296 q 242 144 201 188 q 374 101 282 101 m 374 -14 q 140 58 210 -14 q 69 296 69 129 l 69 528 q 148 753 69 683 q 374 822 226 822 q 599 753 521 822 q 678 528 678 683 l 678 296 q 606 58 678 131 q 374 -14 535 -14 m 269 925 l 193 961 q 256 1052 208 1024 q 363 1060 304 1081 l 425 1031 q 496 1067 478 1011 l 575 1035 q 514 938 561 964 q 414 932 467 911 l 353 960 q 269 925 290 982 z "},"ö":{"ha":747,"x_min":69,"x_max":678,"o":"m 165 1000 q 190 1057 165 1036 q 245 1078 215 1078 q 300 1058 275 1079 q 325 1000 325 1038 q 285 933 325 953 q 205 931 244 913 q 165 1000 165 950 m 433 1000 q 474 1069 433 1049 q 553 1069 514 1089 q 593 1000 593 1050 q 553 933 593 953 q 474 931 514 913 q 433 1000 433 950 m 374 101 q 506 144 467 101 q 546 296 546 188 l 546 528 q 505 668 546 632 q 374 704 464 704 q 242 668 283 704 q 201 528 201 632 l 201 296 q 242 144 201 188 q 374 101 282 101 m 374 -14 q 140 58 210 -14 q 69 296 69 129 l 69 528 q 148 753 69 683 q 374 822 226 822 q 599 753 521 822 q 678 528 678 683 l 678 296 q 606 58 678 131 q 374 -14 535 -14 z "},"÷":{"ha":708,"x_min":49,"x_max":638,"o":"m 271 688 q 294 742 271 722 q 345 763 317 763 q 397 742 374 763 q 419 688 419 722 q 382 623 419 642 q 308 623 344 604 q 271 688 271 642 m 49 401 l 638 401 l 638 514 l 49 514 l 49 401 m 271 221 q 294 276 271 256 q 345 296 317 296 q 397 276 374 296 q 419 221 419 256 q 382 156 419 175 q 308 156 344 138 q 271 221 271 175 z "},"ø":{"ha":747,"x_min":69,"x_max":678,"o":"m 219 -101 l 108 -101 l 165 35 q 69 296 69 103 l 69 528 q 148 753 69 683 q 374 822 226 822 q 489 810 436 822 l 526 900 l 638 900 l 582 767 q 678 528 678 694 l 678 296 q 606 58 678 131 q 374 -14 535 -14 q 260 -3 313 -14 l 219 -101 m 201 296 q 222 172 201 218 l 442 697 q 374 704 410 704 q 242 668 283 704 q 201 528 201 632 l 201 296 m 374 101 q 506 144 467 101 q 546 296 546 188 l 546 528 q 526 635 546 596 l 307 108 q 374 101 331 101 z "},"ù":{"ha":810,"x_min":108,"x_max":713,"o":"m 713 807 l 713 0 l 594 0 l 586 86 q 378 -10 528 -10 q 174 58 239 -10 q 108 283 108 125 l 108 807 l 242 807 l 242 285 q 284 156 242 200 q 400 111 326 111 q 529 156 479 111 q 579 283 579 200 l 579 807 l 713 807 m 383 890 l 285 1069 l 285 1074 l 419 1074 l 493 897 l 493 890 l 383 890 z "},"ú":{"ha":810,"x_min":108,"x_max":713,"o":"m 713 807 l 713 0 l 594 0 l 586 86 q 378 -10 528 -10 q 174 58 239 -10 q 108 283 108 125 l 108 807 l 242 807 l 242 285 q 284 156 242 200 q 400 111 326 111 q 529 156 479 111 q 579 283 579 200 l 579 807 l 713 807 m 469 890 l 364 890 l 364 897 l 438 1074 l 568 1074 l 568 1069 l 469 890 z "},"û":{"ha":810,"x_min":108,"x_max":713,"o":"m 713 807 l 713 0 l 594 0 l 586 86 q 378 -10 528 -10 q 174 58 239 -10 q 108 283 108 125 l 108 807 l 242 807 l 242 285 q 284 156 242 200 q 400 111 326 111 q 529 156 479 111 q 579 283 579 200 l 579 807 l 713 807 m 371 1078 l 450 1078 l 622 908 l 622 899 l 493 899 l 414 978 l 333 899 l 204 899 l 204 908 l 371 1078 z "},"ü":{"ha":810,"x_min":108,"x_max":713,"o":"m 713 807 l 713 0 l 594 0 l 586 86 q 378 -10 528 -10 q 174 58 239 -10 q 108 283 108 125 l 108 807 l 242 807 l 242 285 q 284 156 242 200 q 400 111 326 111 q 529 156 479 111 q 579 283 579 200 l 579 807 l 713 807 m 197 1000 q 238 1069 197 1049 q 317 1069 278 1089 q 357 1000 357 1050 q 317 933 357 953 q 238 931 278 913 q 197 1000 197 950 m 500 1000 q 540 1069 500 1049 q 620 1069 581 1089 q 660 1000 660 1050 q 620 933 660 953 q 540 931 581 913 q 500 1000 500 950 z "},"ý":{"ha":682,"x_min":21,"x_max":665,"o":"m 243 551 l 347 175 q 449 560 376 324 l 528 813 l 665 813 l 411 -1 l 363 -156 q 253 -311 324 -278 q 67 -297 182 -344 l 90 -185 q 135 -199 115 -194 q 176 -199 154 -203 q 216 -174 199 -194 q 246 -117 233 -154 l 279 -1 l 21 813 l 165 813 l 243 551 m 376 890 l 271 890 l 271 897 l 344 1074 l 475 1074 l 475 1069 l 376 890 z "},"þ":{"ha":781,"x_min":92,"x_max":696,"o":"m 92 -274 l 92 1074 l 224 1074 l 224 715 q 298 790 244 764 q 421 817 351 817 q 696 524 696 817 l 696 310 q 421 -6 696 -6 q 303 9 349 -6 q 225 65 257 24 l 225 -274 l 92 -274 m 225 306 q 263 163 225 203 q 392 122 301 122 q 523 165 482 122 q 564 313 564 207 l 564 525 q 526 657 564 621 q 401 693 488 693 q 269 643 313 690 q 225 481 225 596 l 225 306 z "},"ÿ":{"ha":682,"x_min":21,"x_max":665,"o":"m 243 551 l 347 175 q 449 560 376 324 l 528 813 l 665 813 l 411 -1 l 363 -156 q 253 -311 324 -278 q 67 -297 182 -344 l 90 -185 q 135 -199 115 -194 q 176 -199 154 -203 q 216 -174 199 -194 q 246 -117 233 -154 l 279 -1 l 21 813 l 165 813 l 243 551 m 118 1000 q 143 1057 118 1036 q 198 1078 168 1078 q 253 1058 228 1079 q 278 1000 278 1038 q 238 933 278 953 q 158 931 197 913 q 118 1000 118 950 m 421 1000 q 446 1057 421 1036 q 501 1078 471 1078 q 556 1058 531 1079 q 581 1000 581 1038 q 540 933 581 953 q 460 931 500 913 q 421 1000 421 950 z "},"Ā":{"ha":728,"x_min":13,"x_max":715,"o":"m 211 1256 l 515 1256 l 515 1153 l 211 1153 l 211 1256 m 715 0 l 579 0 l 525 199 l 204 199 l 150 0 l 13 0 l 297 1068 l 432 1068 l 715 0 m 435 551 l 364 896 l 292 547 l 238 324 l 490 324 l 435 551 z "},"ā":{"ha":728,"x_min":61,"x_max":640,"o":"m 217 1050 l 521 1050 l 521 947 l 217 947 l 217 1050 m 640 549 l 640 0 l 521 0 l 510 110 q 430 27 486 61 q 303 -7 374 -7 q 61 188 81 -7 q 119 367 51 294 q 311 457 186 439 q 507 469 374 467 l 507 549 q 473 662 507 624 q 353 700 439 700 q 257 670 290 700 q 225 564 224 640 l 96 564 q 158 758 92 696 q 357 821 225 821 q 568 756 496 821 q 640 549 640 692 m 510 360 q 322 346 385 360 q 194 204 181 315 q 317 119 201 119 q 510 360 503 119 z "},"Ă":{"ha":728,"x_min":13,"x_max":715,"o":"m 715 0 l 579 0 l 525 199 l 204 199 l 150 0 l 13 0 l 297 1068 l 432 1068 l 715 0 m 435 551 l 364 896 l 292 547 l 238 324 l 490 324 l 435 551 m 361 1136 q 185 1318 176 1136 l 283 1318 q 299 1250 283 1272 q 361 1228 314 1228 q 423 1250 408 1228 q 438 1318 438 1272 l 536 1318 q 361 1136 544 1136 z "},"ă":{"ha":728,"x_min":61,"x_max":640,"o":"m 640 549 l 640 0 l 521 0 l 510 110 q 430 27 486 61 q 303 -7 374 -7 q 61 188 81 -7 q 119 367 51 294 q 311 457 186 439 q 507 469 374 467 l 507 549 q 473 662 507 624 q 353 700 439 700 q 257 670 290 700 q 225 564 224 640 l 96 564 q 158 758 92 696 q 357 821 225 821 q 568 756 496 821 q 640 549 640 692 m 510 360 q 322 346 385 360 q 194 204 181 315 q 317 119 201 119 q 510 360 503 119 m 378 906 q 201 1088 193 906 l 300 1088 q 315 1019 300 1042 q 378 997 331 997 q 440 1019 425 997 q 454 1088 454 1042 l 553 1088 q 378 906 561 906 z "},"Ą":{"ha":728,"x_min":13,"x_max":715,"o":"m 715 0 q 642 -50 668 -18 q 617 -101 617 -82 q 665 -147 617 -147 q 715 -144 693 -147 l 715 -262 q 493 -144 493 -275 q 596 0 493 -54 l 579 0 l 525 199 l 204 199 l 150 0 l 13 0 l 297 1068 l 432 1068 l 715 0 m 435 551 l 364 896 l 292 547 l 238 324 l 490 324 l 435 551 z "},"ą":{"ha":728,"x_min":61,"x_max":640,"o":"m 640 549 l 640 0 q 567 -50 593 -18 q 542 -101 542 -82 q 590 -147 542 -147 q 640 -144 618 -147 l 640 -262 q 418 -144 418 -275 q 521 0 418 -54 l 510 110 q 430 27 486 61 q 303 -7 374 -7 q 61 188 81 -7 q 119 367 51 294 q 311 457 186 439 q 507 469 374 467 l 507 549 q 473 662 507 624 q 353 700 439 700 q 257 670 290 700 q 225 564 224 640 l 96 564 q 158 758 92 696 q 357 821 225 821 q 568 756 496 821 q 640 549 640 692 m 510 360 q 322 346 385 360 q 194 204 181 315 q 317 119 201 119 q 510 360 503 119 z "},"Ć":{"ha":806,"x_min":68,"x_max":744,"o":"m 744 769 l 615 769 q 575 915 614 874 q 410 957 536 957 q 299 945 340 957 q 235 901 257 933 q 208 830 214 869 q 201 721 201 790 l 201 354 q 241 169 201 219 q 410 118 281 118 q 581 158 543 118 q 618 328 618 199 l 744 328 q 741 230 744 268 q 727 149 738 192 q 694 82 717 107 q 635 35 672 57 q 542 3 599 13 q 410 -7 486 -7 q 276 3 332 -7 q 182 35 219 13 q 122 85 144 58 q 87 158 99 113 q 72 247 75 203 q 68 356 68 290 l 68 719 q 81 876 68 814 q 131 987 94 938 q 236 1058 168 1036 q 410 1081 304 1081 q 578 1062 513 1081 q 681 1001 644 1043 q 730 906 717 960 q 744 769 743 853 m 461 1160 l 356 1160 l 356 1167 l 429 1343 l 560 1343 l 560 1339 l 461 1160 z "},"ć":{"ha":733,"x_min":69,"x_max":671,"o":"m 546 275 l 671 275 q 601 51 669 115 q 374 -14 533 -14 q 142 59 214 -14 q 69 296 69 132 l 69 526 q 374 822 69 822 q 591 761 517 822 q 671 550 665 700 l 546 549 q 501 669 542 639 q 374 700 460 700 q 242 665 283 700 q 201 526 201 631 l 201 296 q 242 151 201 190 q 374 113 283 113 q 505 144 465 113 q 546 275 544 176 m 414 899 l 308 899 l 308 906 l 382 1082 l 513 1082 l 513 1078 l 414 899 z "},"Ĉ":{"ha":806,"x_min":68,"x_max":744,"o":"m 744 769 l 615 769 q 575 915 614 874 q 410 957 536 957 q 299 945 340 957 q 235 901 257 933 q 208 830 214 869 q 201 721 201 790 l 201 354 q 241 169 201 219 q 410 118 281 118 q 581 158 543 118 q 618 328 618 199 l 744 328 q 741 230 744 268 q 727 149 738 192 q 694 82 717 107 q 635 35 672 57 q 542 3 599 13 q 410 -7 486 -7 q 276 3 332 -7 q 182 35 219 13 q 122 85 144 58 q 87 158 99 113 q 72 247 75 203 q 68 356 68 290 l 68 719 q 81 876 68 814 q 131 987 94 938 q 236 1058 168 1036 q 410 1081 304 1081 q 578 1062 513 1081 q 681 1001 644 1043 q 730 906 717 960 q 744 769 743 853 m 374 1328 l 453 1328 l 625 1158 l 625 1149 l 496 1149 l 417 1228 l 336 1149 l 207 1149 l 207 1158 l 374 1328 z "},"ĉ":{"ha":733,"x_min":69,"x_max":671,"o":"m 546 275 l 671 275 q 601 51 669 115 q 374 -14 533 -14 q 142 59 214 -14 q 69 296 69 132 l 69 526 q 374 822 69 822 q 591 761 517 822 q 671 550 665 700 l 546 549 q 501 669 542 639 q 374 700 460 700 q 242 665 283 700 q 201 526 201 631 l 201 296 q 242 151 201 190 q 374 113 283 113 q 505 144 465 113 q 546 275 544 176 m 347 1086 l 426 1086 l 599 917 l 599 907 l 469 907 l 390 986 l 310 907 l 181 907 l 181 917 l 347 1086 z "},"Ċ":{"ha":806,"x_min":68,"x_max":744,"o":"m 350 1226 q 389 1293 350 1274 q 467 1294 428 1313 q 507 1228 507 1275 q 491 1179 507 1199 q 451 1156 475 1160 q 405 1156 428 1151 q 366 1179 382 1160 q 350 1226 350 1199 m 744 769 l 615 769 q 575 915 614 874 q 410 957 536 957 q 299 945 340 957 q 235 901 257 933 q 208 830 214 869 q 201 721 201 790 l 201 354 q 241 169 201 219 q 410 118 281 118 q 581 158 543 118 q 618 328 618 199 l 744 328 q 741 230 744 268 q 727 149 738 192 q 694 82 717 107 q 635 35 672 57 q 542 3 599 13 q 410 -7 486 -7 q 276 3 332 -7 q 182 35 219 13 q 122 85 144 58 q 87 158 99 113 q 72 247 75 203 q 68 356 68 290 l 68 719 q 81 876 68 814 q 131 987 94 938 q 236 1058 168 1036 q 410 1081 304 1081 q 578 1062 513 1081 q 681 1001 644 1043 q 730 906 717 960 q 744 769 743 853 z "},"ċ":{"ha":733,"x_min":69,"x_max":671,"o":"m 340 942 q 320 951 340 942 q 301 1006 301 960 q 340 1069 301 1051 q 417 1069 378 1088 q 456 1006 456 1051 q 417 942 456 960 q 340 942 378 924 m 546 275 l 671 275 q 601 51 669 115 q 374 -14 533 -14 q 142 59 214 -14 q 69 296 69 132 l 69 526 q 374 822 69 822 q 591 761 517 822 q 671 550 665 700 l 546 549 q 501 669 542 639 q 374 700 460 700 q 242 665 283 700 q 201 526 201 631 l 201 296 q 242 151 201 190 q 374 113 283 113 q 505 144 465 113 q 546 275 544 176 z "},"Č":{"ha":806,"x_min":68,"x_max":744,"o":"m 744 769 l 615 769 q 575 915 614 874 q 410 957 536 957 q 299 945 340 957 q 235 901 257 933 q 208 830 214 869 q 201 721 201 790 l 201 354 q 241 169 201 219 q 410 118 281 118 q 581 158 543 118 q 618 328 618 199 l 744 328 q 741 230 744 268 q 727 149 738 192 q 694 82 717 107 q 635 35 672 57 q 542 3 599 13 q 410 -7 486 -7 q 276 3 332 -7 q 182 35 219 13 q 122 85 144 58 q 87 158 99 113 q 72 247 75 203 q 68 356 68 290 l 68 719 q 81 876 68 814 q 131 987 94 938 q 236 1058 168 1036 q 410 1081 304 1081 q 578 1062 513 1081 q 681 1001 644 1043 q 730 906 717 960 q 744 769 743 853 m 465 1147 l 385 1147 l 211 1306 l 211 1315 l 342 1315 l 422 1242 l 504 1315 l 635 1315 l 635 1306 l 465 1147 z "},"č":{"ha":733,"x_min":69,"x_max":671,"o":"m 546 275 l 671 275 q 601 51 669 115 q 374 -14 533 -14 q 142 59 214 -14 q 69 296 69 132 l 69 526 q 374 822 69 822 q 591 761 517 822 q 671 550 665 700 l 546 549 q 501 669 542 639 q 374 700 460 700 q 242 665 283 700 q 201 526 201 631 l 201 296 q 242 151 201 190 q 374 113 283 113 q 505 144 465 113 q 546 275 544 176 m 411 894 l 332 894 l 160 1064 l 160 1074 l 289 1074 l 368 994 l 449 1074 l 578 1074 l 578 1064 l 411 894 z "},"Ď":{"ha":826,"x_min":90,"x_max":753,"o":"m 222 126 l 406 126 q 524 138 481 126 q 588 181 567 149 q 614 249 608 213 q 619 358 619 286 l 619 714 q 614 823 619 786 q 588 892 608 860 q 524 935 567 924 q 406 946 481 946 l 222 946 l 222 126 m 406 0 l 90 0 l 90 1071 l 415 1071 q 588 1049 521 1071 q 692 978 656 1026 q 740 868 728 929 q 753 713 753 807 l 753 360 q 740 203 753 265 q 690 92 726 142 q 583 21 653 43 q 406 0 514 -1 m 432 1136 l 353 1136 l 181 1306 l 181 1315 l 310 1315 l 389 1236 l 469 1315 l 599 1315 l 599 1306 l 432 1136 z "},"ď":{"ha":929,"x_min":75,"x_max":926,"o":"m 813 1086 l 926 1086 l 864 842 l 768 842 l 813 1086 m 679 1086 l 679 0 l 568 0 l 551 107 q 478 26 533 56 q 350 -4 422 -4 q 75 289 75 -4 l 75 503 q 350 818 75 818 q 468 803 422 818 q 546 747 514 789 l 546 1086 l 679 1086 m 546 507 q 508 650 546 610 q 379 690 469 690 q 248 648 289 690 q 207 500 207 606 l 207 288 q 245 156 207 192 q 369 119 283 119 q 502 169 458 122 q 546 332 546 217 l 546 507 z "},"Đ":{"ha":842,"x_min":4,"x_max":768,"o":"m 421 0 l 106 0 l 106 476 l 4 476 l 4 585 l 106 585 l 106 1071 l 431 1071 q 603 1049 536 1071 q 707 978 671 1026 q 756 868 743 929 q 768 713 768 807 l 768 360 q 755 203 768 265 q 705 92 742 142 q 599 21 668 43 q 421 0 529 -1 m 238 126 l 421 126 q 539 138 496 126 q 603 181 582 149 q 629 249 624 213 q 635 358 635 286 l 635 714 q 629 823 635 786 q 603 892 624 860 q 539 935 582 924 q 421 946 496 946 l 238 946 l 238 585 l 403 585 l 403 476 l 238 476 l 238 126 z "},"đ":{"ha":768,"x_min":75,"x_max":764,"o":"m 679 1086 l 679 990 l 764 990 l 764 906 l 679 906 l 679 0 l 568 0 l 551 107 q 478 26 533 56 q 350 -4 422 -4 q 75 289 75 -4 l 75 503 q 350 818 75 818 q 468 803 422 818 q 546 747 514 789 l 546 906 l 436 906 l 436 990 l 546 990 l 546 1086 l 679 1086 m 546 507 q 508 650 546 610 q 379 690 469 690 q 248 648 289 690 q 207 500 207 606 l 207 288 q 245 156 207 192 q 369 119 283 119 q 502 169 458 122 q 546 332 546 217 l 546 507 z "},"Ē":{"ha":707,"x_min":81,"x_max":656,"o":"m 203 1269 l 513 1269 l 513 1168 l 203 1168 l 203 1269 m 81 1072 l 621 1072 l 621 956 l 213 956 l 213 633 l 582 633 l 582 510 l 213 510 l 213 124 l 656 124 l 656 0 l 81 0 l 81 1072 z "},"ē":{"ha":736,"x_min":74,"x_max":674,"o":"m 232 1051 l 549 1051 l 549 947 l 232 947 l 232 1051 m 543 236 l 671 236 q 599 53 671 115 q 374 -8 528 -8 q 142 59 211 -8 q 74 289 74 126 l 74 526 q 151 748 74 679 q 374 817 228 817 q 674 526 674 817 l 674 353 l 204 353 l 204 292 q 243 151 204 188 q 374 114 282 114 q 543 236 543 114 m 204 526 l 204 468 l 547 468 l 547 526 q 503 663 547 626 q 374 700 460 700 q 246 664 288 700 q 204 526 204 628 z "},"Ĕ":{"ha":707,"x_min":81,"x_max":656,"o":"m 81 1072 l 621 1072 l 621 956 l 213 956 l 213 633 l 582 633 l 582 510 l 213 510 l 213 124 l 656 124 l 656 0 l 81 0 l 81 1072 m 363 1147 q 186 1329 178 1147 l 285 1329 q 300 1262 285 1285 q 363 1239 315 1239 q 424 1261 410 1239 q 439 1329 439 1283 l 538 1329 q 363 1147 546 1147 z "},"ĕ":{"ha":736,"x_min":74,"x_max":674,"o":"m 543 236 l 671 236 q 599 53 671 115 q 374 -8 528 -8 q 142 59 211 -8 q 74 289 74 126 l 74 526 q 151 748 74 679 q 374 817 228 817 q 674 526 674 817 l 674 353 l 204 353 l 204 292 q 243 151 204 188 q 374 114 282 114 q 543 236 543 114 m 204 526 l 204 468 l 547 468 l 547 526 q 503 663 547 626 q 374 700 460 700 q 246 664 288 700 q 204 526 204 628 m 374 901 q 197 1083 189 901 l 296 1083 q 311 1016 296 1039 q 374 993 326 993 q 435 1015 421 993 q 450 1083 450 1038 l 549 1083 q 374 901 557 901 z "},"Ė":{"ha":707,"x_min":81,"x_max":656,"o":"m 327 1151 q 308 1160 327 1151 q 289 1215 289 1169 q 327 1279 289 1261 q 403 1279 365 1297 q 442 1215 442 1261 q 403 1151 442 1169 q 327 1151 365 1133 m 81 1072 l 621 1072 l 621 956 l 213 956 l 213 633 l 582 633 l 582 510 l 213 510 l 213 124 l 656 124 l 656 0 l 81 0 l 81 1072 z "},"ė":{"ha":736,"x_min":74,"x_max":674,"o":"m 301 1004 q 342 1071 301 1051 q 424 1071 383 1090 q 464 1004 464 1051 q 438 949 464 969 q 383 929 413 929 q 327 949 353 929 q 301 1004 301 969 m 543 236 l 671 236 q 599 53 671 115 q 374 -8 528 -8 q 142 59 211 -8 q 74 289 74 126 l 74 526 q 151 748 74 679 q 374 817 228 817 q 674 526 674 817 l 674 353 l 204 353 l 204 292 q 243 151 204 188 q 374 114 282 114 q 543 236 543 114 m 204 526 l 204 468 l 547 468 l 547 526 q 503 663 547 626 q 374 700 460 700 q 246 664 288 700 q 204 526 204 628 z "},"Ę":{"ha":724,"x_min":97,"x_max":672,"o":"m 97 1072 l 638 1072 l 638 956 l 229 956 l 229 633 l 599 633 l 599 510 l 229 510 l 229 124 l 672 124 l 672 0 q 599 -50 625 -18 q 574 -101 574 -82 q 622 -147 574 -147 q 672 -144 650 -147 l 672 -262 q 450 -144 450 -275 q 553 0 450 -54 l 97 0 l 97 1072 z "},"ę":{"ha":747,"x_min":74,"x_max":674,"o":"m 543 236 l 671 236 q 607 60 671 125 q 537 -35 561 11 q 513 -101 513 -82 q 561 -147 513 -147 q 611 -144 589 -147 l 611 -262 q 389 -144 389 -275 q 476 0 389 -57 q 374 -8 431 -8 q 142 59 211 -8 q 74 289 74 126 l 74 526 q 151 748 74 679 q 374 817 228 817 q 674 526 674 817 l 674 353 l 204 353 l 204 292 q 243 151 204 188 q 374 114 282 114 q 543 236 543 114 m 204 526 l 204 468 l 547 468 l 547 526 q 503 663 547 626 q 374 700 460 700 q 246 664 288 700 q 204 526 204 628 z "},"Ě":{"ha":707,"x_min":81,"x_max":656,"o":"m 81 1072 l 621 1072 l 621 956 l 213 956 l 213 633 l 582 633 l 582 510 l 213 510 l 213 124 l 656 124 l 656 0 l 81 0 l 81 1072 m 401 1142 l 324 1142 l 156 1300 l 156 1310 l 282 1310 l 360 1236 l 439 1310 l 565 1310 l 565 1300 l 401 1142 z "},"ě":{"ha":736,"x_min":74,"x_max":674,"o":"m 543 236 l 671 236 q 599 53 671 115 q 374 -8 528 -8 q 142 59 211 -8 q 74 289 74 126 l 74 526 q 151 748 74 679 q 374 817 228 817 q 674 526 674 817 l 674 353 l 204 353 l 204 292 q 243 151 204 188 q 374 114 282 114 q 543 236 543 114 m 204 526 l 204 468 l 547 468 l 547 526 q 503 663 547 626 q 374 700 460 700 q 246 664 288 700 q 204 526 204 628 m 422 901 l 343 901 l 171 1071 l 171 1081 l 300 1081 l 379 1001 l 460 1081 l 589 1081 l 589 1071 l 422 901 z "},"Ĝ":{"ha":835,"x_min":74,"x_max":768,"o":"m 764 783 l 635 783 q 617 886 633 850 q 555 943 601 922 q 421 964 508 964 q 249 912 292 964 q 207 724 207 860 l 207 349 q 213 239 207 276 q 239 169 218 201 q 303 124 260 136 q 421 113 346 113 q 539 120 497 113 q 603 155 581 128 q 630 217 625 182 q 635 322 635 251 l 635 468 l 426 468 l 426 588 l 768 588 l 768 322 q 763 207 768 251 q 739 117 758 163 q 683 46 719 71 q 581 5 646 21 q 421 -11 515 -11 q 243 11 313 -11 q 137 83 174 33 q 87 194 100 132 q 74 350 74 256 l 74 722 q 87 878 74 817 q 137 990 100 940 q 243 1061 174 1039 q 421 1083 313 1083 q 634 1051 560 1083 q 735 957 708 1018 q 764 783 761 896 m 396 1317 l 475 1317 l 647 1147 l 647 1138 l 518 1138 l 439 1217 l 358 1138 l 229 1138 l 229 1147 l 396 1317 z "},"ĝ":{"ha":756,"x_min":69,"x_max":669,"o":"m 351 -4 q 69 275 69 -4 l 69 521 q 344 814 69 814 q 471 785 417 814 q 543 703 525 756 l 560 806 l 669 806 l 669 -28 q 590 -262 669 -187 q 369 -337 511 -337 q 164 -281 235 -337 q 88 -96 93 -225 l 214 -96 q 259 -190 219 -164 q 371 -217 299 -217 q 501 -174 457 -217 q 546 -28 546 -132 l 546 106 q 478 28 529 61 q 351 -4 426 -4 m 351 119 q 490 166 443 119 q 538 332 538 213 l 538 489 q 494 642 536 597 q 364 690 451 688 q 240 654 278 690 q 201 522 201 618 l 201 290 q 239 159 201 199 q 351 119 276 119 m 357 1078 l 436 1078 l 608 908 l 608 899 l 479 899 l 400 978 l 319 899 l 190 899 l 190 908 l 357 1078 z "},"Ğ":{"ha":829,"x_min":76,"x_max":771,"o":"m 767 783 l 638 783 q 620 886 636 850 q 558 943 604 922 q 424 964 511 964 q 252 912 294 964 q 210 724 210 860 l 210 349 q 215 239 210 276 q 242 169 221 201 q 306 124 263 136 q 424 113 349 113 q 542 120 500 113 q 606 155 583 128 q 633 217 628 182 q 638 322 638 251 l 638 468 l 429 468 l 429 588 l 771 588 l 771 322 q 766 207 771 251 q 742 117 761 163 q 685 46 722 71 q 583 5 649 21 q 424 -11 518 -11 q 246 11 315 -11 q 140 83 176 33 q 90 194 103 132 q 76 350 76 256 l 76 722 q 90 878 76 817 q 140 990 103 940 q 246 1061 176 1039 q 424 1083 315 1083 q 637 1051 563 1083 q 738 957 711 1018 q 767 783 764 896 m 429 1144 q 253 1326 244 1144 l 351 1326 q 367 1258 351 1281 q 429 1236 382 1236 q 491 1258 476 1236 q 506 1326 506 1281 l 604 1326 q 429 1144 613 1144 z "},"ğ":{"ha":756,"x_min":69,"x_max":669,"o":"m 351 -4 q 69 275 69 -4 l 69 521 q 344 814 69 814 q 471 785 417 814 q 543 703 525 756 l 560 806 l 669 806 l 669 -28 q 590 -262 669 -187 q 369 -337 511 -337 q 164 -281 235 -337 q 88 -96 93 -225 l 214 -96 q 259 -190 219 -164 q 371 -217 299 -217 q 501 -174 457 -217 q 546 -28 546 -132 l 546 106 q 478 28 529 61 q 351 -4 426 -4 m 351 119 q 490 166 443 119 q 538 332 538 213 l 538 489 q 494 642 536 597 q 364 690 451 688 q 240 654 278 690 q 201 522 201 618 l 201 290 q 239 159 201 199 q 351 119 276 119 m 378 900 q 201 1082 193 900 l 300 1082 q 315 1014 300 1036 q 378 992 331 992 q 440 1014 425 992 q 454 1082 454 1036 l 553 1082 q 378 900 561 900 z "},"Ġ":{"ha":835,"x_min":74,"x_max":768,"o":"m 375 1173 q 363 1182 375 1173 q 351 1225 351 1192 q 375 1277 351 1258 q 427 1296 399 1296 q 479 1277 456 1296 q 503 1225 503 1258 q 479 1173 503 1192 q 427 1154 456 1154 q 375 1173 399 1154 m 764 783 l 635 783 q 617 886 633 850 q 555 943 601 922 q 421 964 508 964 q 249 912 292 964 q 207 724 207 860 l 207 349 q 213 239 207 276 q 239 169 218 201 q 303 124 260 136 q 421 113 346 113 q 539 120 497 113 q 603 155 581 128 q 630 217 625 182 q 635 322 635 251 l 635 468 l 426 468 l 426 588 l 768 588 l 768 322 q 763 207 768 251 q 739 117 758 163 q 683 46 719 71 q 581 5 646 21 q 421 -11 515 -11 q 243 11 313 -11 q 137 83 174 33 q 87 194 100 132 q 74 350 74 256 l 74 722 q 87 878 74 817 q 137 990 100 940 q 243 1061 174 1039 q 421 1083 313 1083 q 634 1051 560 1083 q 735 957 708 1018 q 764 783 761 896 z "},"ġ":{"ha":744,"x_min":69,"x_max":669,"o":"m 301 1006 q 342 1073 301 1053 q 424 1073 383 1093 q 465 1006 465 1053 q 424 936 465 957 q 342 936 383 915 q 301 1006 301 957 m 351 -4 q 69 275 69 -4 l 69 521 q 344 814 69 814 q 471 785 417 814 q 543 703 525 756 l 560 806 l 669 806 l 669 -28 q 590 -262 669 -187 q 369 -337 511 -337 q 164 -281 235 -337 q 88 -96 93 -225 l 214 -96 q 259 -190 219 -164 q 371 -217 299 -217 q 501 -174 457 -217 q 546 -28 546 -132 l 546 106 q 478 28 529 61 q 351 -4 426 -4 m 351 119 q 490 166 443 119 q 538 332 538 213 l 538 489 q 494 642 536 597 q 364 690 451 688 q 240 654 278 690 q 201 522 201 618 l 201 290 q 239 159 201 199 q 351 119 276 119 z "},"Ģ":{"ha":838,"x_min":82,"x_max":776,"o":"m 772 783 l 643 783 q 626 886 642 850 q 563 943 610 922 q 429 964 517 964 q 258 912 300 964 q 215 724 215 860 l 215 349 q 221 239 215 276 q 247 169 226 201 q 311 124 268 136 q 429 113 354 113 q 547 120 506 113 q 611 155 589 128 q 638 217 633 182 q 643 322 643 251 l 643 468 l 435 468 l 435 588 l 776 588 l 776 322 q 772 207 776 251 q 747 117 767 163 q 691 46 728 71 q 589 5 654 21 q 429 -11 524 -11 q 251 11 321 -11 q 145 83 182 33 q 95 194 108 132 q 82 350 82 256 l 82 722 q 95 878 82 817 q 145 990 108 940 q 251 1061 182 1039 q 429 1083 321 1083 q 642 1051 568 1083 q 743 957 717 1018 q 772 783 769 896 m 331 -343 l 283 -281 q 360 -201 344 -244 q 376 -79 376 -158 l 506 -79 q 466 -244 506 -186 q 331 -343 426 -301 z "},"ģ":{"ha":863,"x_min":69,"x_max":669,"o":"m 468 1126 l 511 1069 q 441 999 456 1038 q 426 888 426 960 l 311 888 q 347 1037 311 985 q 468 1126 382 1089 m 351 -4 q 69 275 69 -4 l 69 521 q 344 814 69 814 q 471 785 417 814 q 543 703 525 756 l 560 806 l 669 806 l 669 -28 q 590 -262 669 -187 q 369 -337 511 -337 q 164 -281 235 -337 q 88 -96 93 -225 l 214 -96 q 259 -190 219 -164 q 371 -217 299 -217 q 501 -174 457 -217 q 546 -28 546 -132 l 546 106 q 478 28 529 61 q 351 -4 426 -4 m 351 119 q 490 166 443 119 q 538 332 538 213 l 538 489 q 494 642 536 597 q 364 690 451 688 q 240 654 278 690 q 201 522 201 618 l 201 290 q 239 159 201 199 q 351 119 276 119 z "},"Ĥ":{"ha":807,"x_min":97,"x_max":722,"o":"m 722 0 l 590 0 l 590 449 l 232 449 l 232 -1 l 97 -1 l 97 1068 l 232 1068 l 232 575 l 590 575 l 590 1068 l 722 1068 l 722 0 m 376 1324 l 456 1324 l 628 1154 l 628 1144 l 499 1144 l 419 1224 l 339 1144 l 210 1144 l 210 1154 l 376 1324 z "},"ĥ":{"ha":758,"x_min":76,"x_max":674,"o":"m 674 0 l 542 0 l 542 506 q 505 654 542 614 q 376 694 468 694 q 252 651 293 694 q 210 511 211 607 l 208 0 l 76 0 l 76 1093 l 210 1093 l 210 739 q 394 822 267 822 q 609 744 544 822 q 674 508 674 665 l 674 0 m 318 1326 l 397 1326 l 569 1157 l 569 1147 l 440 1147 l 361 1226 l 281 1147 l 151 1147 l 151 1157 l 318 1326 z "},"Ħ":{"ha":811,"x_min":10,"x_max":807,"o":"m 722 0 l 590 0 l 590 449 l 232 449 l 232 -1 l 97 -1 l 97 778 l 10 778 l 10 861 l 97 861 l 97 1068 l 232 1068 l 232 861 l 590 861 l 590 1068 l 722 1068 l 722 861 l 807 861 l 807 778 l 722 778 l 722 0 m 232 575 l 590 575 l 590 778 l 232 778 l 232 575 z "},"ħ":{"ha":756,"x_min":-1,"x_max":674,"o":"m -1 903 l -1 986 l 76 986 l 76 1093 l 210 1093 l 210 986 l 314 986 l 314 903 l 210 903 l 210 739 q 394 822 267 822 q 609 744 544 822 q 674 508 674 665 l 674 0 l 542 0 l 542 506 q 505 654 542 614 q 376 694 468 694 q 252 651 293 694 q 210 511 211 607 l 208 0 l 76 0 l 76 903 l -1 903 z "},"Ĩ":{"ha":329,"x_min":-8,"x_max":339,"o":"m 232 -1 l 97 -1 l 97 1068 l 232 1068 l 232 -1 m 61 1143 l -8 1179 q 49 1270 6 1242 q 146 1278 93 1299 l 203 1249 q 268 1285 250 1229 l 339 1253 q 283 1156 326 1182 q 193 1150 240 1129 l 138 1178 q 61 1143 81 1200 z "},"ĩ":{"ha":333,"x_min":11,"x_max":333,"o":"m 232 0 l 100 0 l 100 807 l 232 807 l 232 0 m 72 929 l 11 972 q 70 1061 26 1036 q 161 1061 114 1086 l 208 1033 q 269 1069 250 1010 l 333 1031 q 273 935 317 958 q 190 939 229 911 l 143 963 q 72 929 93 989 z "},"Ī":{"ha":329,"x_min":22,"x_max":303,"o":"m 22 1261 l 303 1261 l 303 1161 l 22 1161 l 22 1261 m 232 -1 l 97 -1 l 97 1068 l 232 1068 l 232 -1 z "},"ī":{"ha":331,"x_min":25,"x_max":301,"o":"m 25 1053 l 301 1053 l 301 946 l 25 946 l 25 1053 m 232 0 l 100 0 l 100 807 l 232 807 l 232 0 z "},"Ĭ":{"ha":329,"x_min":-3,"x_max":343,"o":"m 232 -1 l 97 -1 l 97 1068 l 232 1068 l 232 -1 m 171 1129 q 35 1172 78 1129 q -3 1300 -7 1214 l 93 1300 q 108 1236 93 1257 q 171 1215 124 1215 q 232 1236 218 1215 q 246 1300 246 1257 l 343 1300 q 305 1172 347 1214 q 171 1129 263 1129 z "},"ĭ":{"ha":333,"x_min":1,"x_max":333,"o":"m 232 0 l 100 0 l 100 807 l 232 807 l 232 0 m 333 1072 q 168 892 342 892 q 1 1072 -6 892 l 94 1072 q 109 1006 94 1028 q 168 983 124 983 q 226 1005 213 983 q 240 1072 240 1026 l 333 1072 z "},"Į":{"ha":329,"x_min":8,"x_max":340,"o":"m 232 -1 l 189 -1 q 126 -28 146 -7 q 113 -75 106 -50 q 176 -114 122 -114 q 268 -64 229 -114 l 340 -115 q 179 -221 290 -217 q 65 -192 111 -222 q 8 -108 19 -161 q 20 -13 -1 -61 q 97 57 42 35 l 97 1068 l 232 1068 l 232 -1 z "},"į":{"ha":319,"x_min":17,"x_max":342,"o":"m 88 999 q 113 1056 88 1035 q 167 1077 138 1076 q 222 1057 197 1078 q 247 999 247 1036 q 207 931 247 951 q 127 930 167 911 q 88 999 88 949 m 232 0 l 231 0 q 149 -24 176 0 q 124 -74 121 -49 q 136 -118 126 -100 q 194 -147 157 -144 q 278 -107 232 -149 l 342 -165 q 182 -251 276 -254 q 43 -179 88 -249 q 17 -110 22 -147 q 33 -35 13 -74 q 100 24 53 3 l 100 807 l 232 807 l 232 0 z "},"İ":{"ha":329,"x_min":85,"x_max":247,"o":"m 126 1144 q 105 1154 126 1144 q 85 1211 85 1164 q 126 1278 85 1258 q 207 1277 167 1297 q 247 1210 247 1257 q 207 1143 247 1163 q 126 1144 167 1124 m 232 -1 l 97 -1 l 97 1068 l 232 1068 l 232 -1 z "},"ı":{"ha":335,"x_min":110,"x_max":242,"o":"m 242 0 l 110 0 l 110 807 l 242 807 l 242 0 z "},"Ĳ":{"ha":1044,"x_min":106,"x_max":936,"o":"m 240 -1 l 106 -1 l 106 1068 l 240 1068 l 240 -1 m 647 -8 q 420 72 481 -8 q 360 321 360 153 l 485 321 q 519 163 485 208 q 650 118 553 118 q 776 167 749 118 q 803 354 803 217 l 803 1072 l 936 1072 l 936 356 q 925 198 936 260 q 884 87 914 136 q 796 15 854 38 q 647 -8 738 -8 z "},"ĳ":{"ha":615,"x_min":88,"x_max":546,"o":"m 232 0 l 100 0 l 100 807 l 232 807 l 232 0 m 88 999 q 113 1056 88 1035 q 167 1077 138 1076 q 222 1057 197 1078 q 247 999 247 1036 q 207 931 247 951 q 127 930 167 911 q 88 999 88 949 m 531 806 l 531 -37 q 473 -219 531 -165 q 292 -262 415 -274 l 292 -144 q 334 -146 314 -149 q 369 -135 354 -143 q 393 -102 385 -126 q 401 -37 401 -78 l 401 806 l 531 806 m 386 999 q 426 1067 386 1047 q 506 1068 467 1088 q 546 999 546 1049 q 506 931 546 951 q 426 930 467 911 q 386 999 386 949 z "},"Ĵ":{"ha":693,"x_min":42,"x_max":760,"o":"m 329 -8 q 102 72 163 -8 q 42 321 42 153 l 167 321 q 201 163 167 208 q 332 118 235 118 q 458 167 431 118 q 485 354 485 217 l 485 1072 l 618 1072 l 618 356 q 607 198 618 260 q 566 87 596 136 q 478 15 536 38 q 329 -8 419 -8 m 508 1311 l 588 1311 l 760 1142 l 760 1132 l 631 1132 l 551 1211 l 471 1132 l 342 1132 l 342 1142 l 508 1311 z "},"ĵ":{"ha":335,"x_min":-12,"x_max":374,"o":"m 240 806 l 240 -37 q 183 -219 240 -165 q 1 -262 125 -274 l 1 -144 q 44 -146 25 -149 q 79 -135 64 -143 q 103 -102 94 -126 q 111 -37 111 -78 l 111 806 l 240 806 m 142 1078 l 214 1078 l 374 899 l 374 889 l 254 889 l 181 972 l 107 889 l -12 889 l -12 899 l 142 1078 z "},"Ķ":{"ha":772,"x_min":90,"x_max":778,"o":"m 778 0 l 615 0 l 274 461 l 222 461 l 222 0 l 90 0 l 90 1071 l 222 1071 l 222 599 l 274 599 l 593 1071 l 749 1071 l 379 535 l 778 0 m 332 -286 l 290 -226 q 359 -151 344 -192 q 374 -36 374 -111 l 489 -36 q 453 -191 489 -136 q 332 -286 418 -246 z "},"ķ":{"ha":703,"x_min":76,"x_max":701,"o":"m 701 0 l 543 0 l 268 361 l 208 361 l 208 0 l 76 0 l 76 1072 l 208 1072 l 208 486 l 261 486 l 513 813 l 674 813 l 376 431 l 701 0 m 269 -290 l 228 -231 q 297 -156 282 -196 q 311 -40 311 -115 l 426 -40 q 391 -195 426 -140 q 269 -290 356 -250 z "},"ĸ":{"ha":708,"x_min":76,"x_max":701,"o":"m 701 0 l 543 0 l 268 361 l 208 361 l 208 0 l 76 0 l 76 810 l 208 810 l 208 486 l 261 486 l 513 813 l 674 813 l 376 431 l 701 0 z "},"Ĺ":{"ha":682,"x_min":97,"x_max":649,"o":"m 649 0 l 97 0 l 97 1071 l 231 1071 l 231 122 l 649 122 l 649 0 m 214 1143 l 108 1143 l 108 1150 l 182 1326 l 313 1326 l 313 1322 l 214 1143 z "},"ĺ":{"ha":353,"x_min":97,"x_max":310,"o":"m 97 211 l 97 1072 l 226 1072 l 226 213 q 245 148 226 165 q 310 131 264 131 l 310 0 q 142 43 188 0 q 97 211 97 86 m 203 1140 l 97 1140 l 97 1147 l 171 1324 l 301 1324 l 301 1319 l 203 1140 z "},"Ļ":{"ha":682,"x_min":97,"x_max":649,"o":"m 649 0 l 97 0 l 97 1071 l 231 1071 l 231 122 l 649 122 l 649 0 m 294 -315 l 253 -256 q 322 -181 307 -221 q 336 -65 336 -140 l 451 -65 q 416 -220 451 -165 q 294 -315 381 -275 z "},"ļ":{"ha":353,"x_min":85,"x_max":310,"o":"m 126 -318 l 85 -258 q 153 -183 139 -224 q 168 -68 168 -143 l 283 -68 q 248 -223 283 -168 q 126 -318 213 -278 m 97 211 l 97 1072 l 226 1072 l 226 213 q 245 148 226 165 q 310 131 264 131 l 310 0 q 142 43 188 0 q 97 211 97 86 z "},"Ľ":{"ha":682,"x_min":97,"x_max":649,"o":"m 486 1069 l 604 1069 l 515 824 l 426 824 l 486 1069 m 649 0 l 97 0 l 97 1071 l 231 1071 l 231 122 l 649 122 l 649 0 z "},"ľ":{"ha":464,"x_min":97,"x_max":478,"o":"m 364 1072 l 478 1072 l 413 826 l 319 826 l 364 1072 m 97 211 l 97 1072 l 226 1072 l 226 213 q 245 148 226 165 q 310 131 264 131 l 310 0 q 142 43 188 0 q 97 211 97 86 z "},"Ŀ":{"ha":682,"x_min":97,"x_max":649,"o":"m 397 448 q 378 458 397 448 q 358 517 358 468 q 397 585 358 565 q 475 585 436 606 q 514 517 514 565 q 475 448 514 468 q 397 448 436 428 m 649 0 l 97 0 l 97 1071 l 231 1071 l 231 122 l 649 122 l 649 0 z "},"ŀ":{"ha":519,"x_min":97,"x_max":485,"o":"m 368 441 q 349 451 368 441 q 329 510 329 461 q 368 578 329 558 q 446 578 407 599 q 485 510 485 558 q 446 441 485 461 q 368 441 407 421 m 97 211 l 97 1072 l 226 1072 l 226 213 q 245 148 226 165 q 310 131 264 131 l 310 0 q 142 43 188 0 q 97 211 97 86 z "},"Ł":{"ha":682,"x_min":17,"x_max":649,"o":"m 17 385 l 17 486 l 97 522 l 97 1071 l 231 1071 l 231 582 l 447 681 l 447 579 l 231 481 l 231 122 l 649 122 l 649 0 l 97 0 l 97 421 l 17 385 z "},"ł":{"ha":349,"x_min":21,"x_max":319,"o":"m 21 432 l 21 526 l 97 560 l 97 1072 l 226 1072 l 226 617 l 319 658 l 319 563 l 226 521 l 226 213 q 245 148 226 165 q 310 131 264 131 l 310 0 q 142 43 188 0 q 97 211 97 86 l 97 465 l 21 432 z "},"Ń":{"ha":764,"x_min":88,"x_max":688,"o":"m 213 1071 l 575 251 l 556 615 l 556 1071 l 688 1071 l 688 0 l 564 0 l 211 769 l 219 418 l 219 0 l 88 0 l 88 1071 l 213 1071 m 431 1124 l 325 1124 l 325 1131 l 399 1307 l 529 1307 l 529 1303 l 431 1124 z "},"ń":{"ha":810,"x_min":110,"x_max":714,"o":"m 110 0 l 110 813 l 228 813 l 236 726 q 444 822 294 822 q 649 755 583 822 q 714 529 714 688 l 714 0 l 581 0 l 581 528 q 538 657 581 613 q 422 701 496 701 q 293 657 343 701 q 243 529 243 613 l 243 0 l 110 0 m 418 901 l 313 901 l 313 908 l 386 1085 l 517 1085 l 517 1081 l 418 901 z "},"Ņ":{"ha":764,"x_min":88,"x_max":688,"o":"m 213 1071 l 575 251 l 556 615 l 556 1071 l 688 1071 l 688 0 l 564 0 l 211 769 l 219 418 l 219 0 l 88 0 l 88 1071 l 213 1071 m 308 -315 l 267 -256 q 335 -181 321 -221 q 350 -65 350 -140 l 465 -65 q 430 -220 465 -165 q 308 -315 394 -275 z "},"ņ":{"ha":810,"x_min":110,"x_max":714,"o":"m 110 0 l 110 813 l 228 813 l 236 726 q 444 822 294 822 q 649 755 583 822 q 714 529 714 688 l 714 0 l 581 0 l 581 528 q 538 657 581 613 q 422 701 496 701 q 293 657 343 701 q 243 529 243 613 l 243 0 l 110 0 m 319 -315 l 278 -256 q 347 -181 332 -221 q 361 -65 361 -140 l 476 -65 q 441 -220 476 -165 q 319 -315 406 -275 z "},"Ň":{"ha":764,"x_min":88,"x_max":688,"o":"m 213 1071 l 575 251 l 556 615 l 556 1071 l 688 1071 l 688 0 l 564 0 l 211 769 l 219 418 l 219 0 l 88 0 l 88 1071 l 213 1071 m 426 1133 l 347 1133 l 175 1303 l 175 1313 l 304 1313 l 383 1233 l 464 1313 l 593 1313 l 593 1303 l 426 1133 z "},"ň":{"ha":810,"x_min":110,"x_max":714,"o":"m 110 0 l 110 813 l 228 813 l 236 726 q 444 822 294 822 q 649 755 583 822 q 714 529 714 688 l 714 0 l 581 0 l 581 528 q 538 657 581 613 q 422 701 496 701 q 293 657 343 701 q 243 529 243 613 l 243 0 l 110 0 m 454 894 l 375 894 l 203 1064 l 203 1074 l 332 1074 l 411 994 l 492 1074 l 621 1074 l 621 1064 l 454 894 z "},"ŉ":{"ha":810,"x_min":110,"x_max":714,"o":"m 110 0 l 110 813 l 228 813 l 236 726 q 444 822 294 822 q 649 755 583 822 q 714 529 714 688 l 714 0 l 581 0 l 581 528 q 538 657 581 613 q 422 701 496 701 q 293 657 343 701 q 243 529 243 613 l 243 0 l 110 0 z "},"Ŋ":{"ha":765,"x_min":88,"x_max":688,"o":"m 213 1071 l 575 251 l 556 615 l 556 1071 l 688 1071 l 688 -33 q 642 -222 689 -157 q 485 -286 594 -286 q 422 -278 451 -286 l 447 -176 q 481 -179 469 -179 q 558 -142 539 -178 q 576 -35 576 -107 l 576 -11 l 211 769 l 219 418 l 219 0 l 88 0 l 88 1071 l 213 1071 z "},"ŋ":{"ha":811,"x_min":110,"x_max":714,"o":"m 110 0 l 110 813 l 228 813 l 236 726 q 444 822 294 822 q 649 755 583 822 q 714 529 714 688 l 714 14 q 510 -236 718 -236 q 451 -229 474 -236 l 469 -112 q 504 -115 481 -115 q 549 -108 532 -115 q 572 -83 565 -101 q 579 -51 578 -65 q 581 -1 581 -36 q 581 15 581 10 l 581 528 q 538 657 581 613 q 422 701 496 701 q 293 657 343 701 q 243 529 243 613 l 243 0 l 110 0 z "},"Ō":{"ha":828,"x_min":71,"x_max":765,"o":"m 269 1279 l 581 1279 l 581 1178 l 269 1178 l 269 1279 m 765 725 l 765 351 q 752 195 765 257 q 702 84 739 133 q 596 13 665 35 q 418 -10 526 -10 q 240 13 310 -10 q 134 84 171 35 q 84 195 97 133 q 71 351 71 257 l 71 725 q 84 881 71 819 q 134 992 97 943 q 240 1064 171 1042 q 418 1086 310 1086 q 596 1064 526 1086 q 702 992 665 1042 q 752 881 739 943 q 765 725 765 819 m 632 350 l 632 726 q 629 817 632 785 q 615 883 626 850 q 580 931 603 915 q 517 956 557 946 q 418 965 478 965 q 319 956 358 965 q 256 931 279 946 q 222 883 233 915 q 207 817 210 850 q 204 726 204 785 l 204 350 q 210 240 204 278 q 236 170 215 203 q 300 126 257 138 q 418 114 343 114 q 536 126 493 114 q 600 170 579 138 q 626 240 621 203 q 632 350 632 278 z "},"ō":{"ha":747,"x_min":69,"x_max":678,"o":"m 228 1049 l 532 1049 l 532 944 l 228 944 l 228 1049 m 374 101 q 506 144 467 101 q 546 296 546 188 l 546 528 q 505 668 546 632 q 374 704 464 704 q 242 668 283 704 q 201 528 201 632 l 201 296 q 242 144 201 188 q 374 101 282 101 m 374 -14 q 140 58 210 -14 q 69 296 69 129 l 69 528 q 148 753 69 683 q 374 822 226 822 q 599 753 521 822 q 678 528 678 683 l 678 296 q 606 58 678 131 q 374 -14 535 -14 z "},"Ŏ":{"ha":828,"x_min":71,"x_max":765,"o":"m 765 725 l 765 351 q 752 195 765 257 q 702 84 739 133 q 596 13 665 35 q 418 -10 526 -10 q 240 13 310 -10 q 134 84 171 35 q 84 195 97 133 q 71 351 71 257 l 71 725 q 84 881 71 819 q 134 992 97 943 q 240 1064 171 1042 q 418 1086 310 1086 q 596 1064 526 1086 q 702 992 665 1042 q 752 881 739 943 q 765 725 765 819 m 632 350 l 632 726 q 629 817 632 785 q 615 883 626 850 q 580 931 603 915 q 517 956 557 946 q 418 965 478 965 q 319 956 358 965 q 256 931 279 946 q 222 883 233 915 q 207 817 210 850 q 204 726 204 785 l 204 350 q 210 240 204 278 q 236 170 215 203 q 300 126 257 138 q 418 114 343 114 q 536 126 493 114 q 600 170 579 138 q 626 240 621 203 q 632 350 632 278 m 426 1154 q 250 1336 242 1154 l 349 1336 q 364 1269 349 1292 q 426 1246 379 1246 q 488 1268 474 1246 q 503 1336 503 1290 l 601 1336 q 426 1154 610 1154 z "},"ŏ":{"ha":747,"x_min":69,"x_max":678,"o":"m 374 101 q 506 144 467 101 q 546 296 546 188 l 546 528 q 505 668 546 632 q 374 704 464 704 q 242 668 283 704 q 201 528 201 632 l 201 296 q 242 144 201 188 q 374 101 282 101 m 374 -14 q 140 58 210 -14 q 69 296 69 129 l 69 528 q 148 753 69 683 q 374 822 226 822 q 599 753 521 822 q 678 528 678 683 l 678 296 q 606 58 678 131 q 374 -14 535 -14 m 382 901 q 206 1083 197 901 l 304 1083 q 319 1016 304 1039 q 382 993 335 993 q 444 1015 429 993 q 458 1083 458 1038 l 557 1083 q 382 901 565 901 z "},"Ő":{"ha":828,"x_min":71,"x_max":765,"o":"m 765 725 l 765 351 q 752 195 765 257 q 702 84 739 133 q 596 13 665 35 q 418 -10 526 -10 q 240 13 310 -10 q 134 84 171 35 q 84 195 97 133 q 71 351 71 257 l 71 725 q 84 881 71 819 q 134 992 97 943 q 240 1064 171 1042 q 418 1086 310 1086 q 596 1064 526 1086 q 702 992 665 1042 q 752 881 739 943 q 765 725 765 819 m 632 350 l 632 726 q 629 817 632 785 q 615 883 626 850 q 580 931 603 915 q 517 956 557 946 q 418 965 478 965 q 319 956 358 965 q 256 931 279 946 q 222 883 233 915 q 207 817 210 850 q 204 726 204 785 l 204 350 q 210 240 204 278 q 236 170 215 203 q 300 126 257 138 q 418 114 343 114 q 536 126 493 114 q 600 170 579 138 q 626 240 621 203 q 632 350 632 278 m 267 1160 l 357 1318 l 488 1318 l 488 1315 l 378 1160 l 267 1160 m 481 1158 l 571 1318 l 701 1318 l 701 1315 l 593 1158 l 481 1158 z "},"ő":{"ha":747,"x_min":69,"x_max":678,"o":"m 374 101 q 506 144 467 101 q 546 296 546 188 l 546 528 q 505 668 546 632 q 374 704 464 704 q 242 668 283 704 q 201 528 201 632 l 201 296 q 242 144 201 188 q 374 101 282 101 m 374 -14 q 140 58 210 -14 q 69 296 69 129 l 69 528 q 148 753 69 683 q 374 822 226 822 q 599 753 521 822 q 678 528 678 683 l 678 296 q 606 58 678 131 q 374 -14 535 -14 m 200 913 l 290 1071 l 421 1071 l 421 1068 l 311 913 l 200 913 m 414 911 l 504 1071 l 635 1071 l 635 1068 l 526 911 l 414 911 z "},"Œ":{"ha":1033,"x_min":71,"x_max":975,"o":"m 418 1072 l 961 1072 l 961 956 l 618 956 l 618 633 l 922 633 l 922 510 l 618 510 l 618 124 l 975 124 l 975 0 l 418 0 q 240 22 310 0 q 134 92 171 43 q 84 203 97 142 q 71 358 71 264 l 71 711 q 84 867 71 806 q 134 978 97 929 q 240 1050 171 1028 q 418 1072 310 1072 m 204 357 q 210 247 204 285 q 236 174 215 208 q 301 128 257 140 q 418 115 344 115 l 493 115 l 493 961 l 418 961 q 319 951 358 961 q 256 924 279 940 q 222 872 233 907 q 207 804 210 838 q 204 713 204 771 l 204 357 z "},"œ":{"ha":1197,"x_min":69,"x_max":1139,"o":"m 1007 233 l 1136 233 q 835 -14 1136 -14 q 607 114 653 -14 q 374 -14 546 -14 q 140 58 210 -14 q 69 296 69 129 l 69 528 q 148 753 69 683 q 374 822 226 822 q 606 706 551 822 q 835 822 664 822 q 1139 528 1139 822 l 1139 351 l 663 351 l 663 290 q 702 147 663 185 q 835 110 742 110 q 1007 233 1007 110 m 242 144 q 262 123 242 144 q 374 101 282 101 q 505 144 465 101 q 546 296 544 186 l 546 528 q 505 668 546 632 q 374 704 464 704 q 242 668 283 704 q 201 528 201 632 l 201 296 q 242 144 201 188 m 663 528 l 663 469 l 1011 469 l 1011 528 q 967 667 1011 631 q 835 704 922 704 q 706 668 749 704 q 663 528 664 632 z "},"Ŕ":{"ha":750,"x_min":97,"x_max":721,"o":"m 689 706 q 643 499 689 572 q 489 404 597 425 l 721 0 l 565 0 l 350 396 l 229 396 l 229 -1 l 97 -1 l 97 1072 l 385 1074 q 610 1005 532 1074 q 689 781 689 936 l 689 706 m 385 947 l 229 947 l 229 522 l 385 522 q 517 560 478 522 q 557 706 557 599 l 557 781 q 520 913 557 883 q 385 947 483 942 m 414 1158 l 308 1158 l 308 1165 l 382 1342 l 513 1342 l 513 1338 l 414 1158 z "},"ŕ":{"ha":465,"x_min":83,"x_max":443,"o":"m 443 813 l 443 678 q 279 653 343 694 q 215 521 215 611 l 215 -1 l 83 -1 l 83 813 l 204 813 l 210 738 q 305 806 240 785 q 443 813 369 828 m 296 917 l 196 917 l 196 924 l 265 1088 l 389 1088 l 389 1083 l 296 917 z "},"Ŗ":{"ha":750,"x_min":97,"x_max":721,"o":"m 689 706 q 643 499 689 572 q 489 404 597 425 l 721 0 l 565 0 l 350 396 l 229 396 l 229 -1 l 97 -1 l 97 1072 l 385 1074 q 610 1005 532 1074 q 689 781 689 936 l 689 706 m 385 947 l 229 947 l 229 522 l 385 522 q 517 560 478 522 q 557 706 557 599 l 557 781 q 520 913 557 883 q 385 947 483 942 m 308 -315 l 267 -256 q 335 -181 321 -221 q 350 -65 350 -140 l 465 -65 q 430 -220 465 -165 q 308 -315 394 -275 z "},"ŗ":{"ha":465,"x_min":1,"x_max":443,"o":"m 443 813 l 443 678 q 279 653 343 694 q 215 521 215 611 l 215 -1 l 83 -1 l 83 813 l 204 813 l 210 738 q 305 806 240 785 q 443 813 369 828 m 44 -297 l 1 -243 q 73 -174 58 -211 q 88 -68 88 -136 l 207 -68 q 171 -210 207 -160 q 44 -297 135 -260 z "},"Ř":{"ha":750,"x_min":97,"x_max":721,"o":"m 689 706 q 643 499 689 572 q 489 404 597 425 l 721 0 l 565 0 l 350 396 l 229 396 l 229 -1 l 97 -1 l 97 1072 l 385 1074 q 610 1005 532 1074 q 689 781 689 936 l 689 706 m 385 947 l 229 947 l 229 522 l 385 522 q 517 560 478 522 q 557 706 557 599 l 557 781 q 520 913 557 883 q 385 947 483 942 m 417 1146 l 338 1146 l 165 1315 l 165 1325 l 294 1325 l 374 1246 l 454 1325 l 583 1325 l 583 1315 l 417 1146 z "},"ř":{"ha":478,"x_min":67,"x_max":485,"o":"m 443 813 l 443 678 q 279 653 343 694 q 215 521 215 611 l 215 -1 l 83 -1 l 83 813 l 204 813 l 210 738 q 305 806 240 785 q 443 813 369 828 m 318 901 l 239 901 l 67 1071 l 67 1081 l 196 1081 l 275 1001 l 356 1081 l 485 1081 l 485 1071 l 318 901 z "},"Ś":{"ha":788,"x_min":61,"x_max":725,"o":"m 696 807 l 558 807 q 517 919 553 881 q 388 957 481 957 q 247 914 283 957 q 210 782 210 871 q 214 742 210 760 q 224 710 218 724 q 242 684 229 696 q 263 665 254 672 q 292 651 272 657 q 322 641 311 644 q 358 634 332 638 q 394 629 383 631 q 434 625 404 628 q 474 621 464 622 q 725 324 725 596 q 653 72 725 150 q 417 -6 582 -6 l 390 -6 q 61 283 76 -6 l 204 283 q 251 166 210 208 q 389 124 293 124 l 415 124 q 553 169 518 124 q 589 317 589 215 q 573 415 589 378 q 517 471 557 453 q 448 494 476 489 q 354 504 419 499 q 340 506 344 506 q 245 524 289 510 q 160 569 201 539 q 96 653 119 600 q 72 781 72 707 q 147 1008 72 933 q 388 1082 222 1082 q 616 1013 543 1082 q 696 807 689 943 m 442 1154 l 336 1154 l 336 1161 l 410 1338 l 540 1338 l 540 1333 l 442 1154 z "},"ś":{"ha":678,"x_min":53,"x_max":635,"o":"m 613 583 l 486 583 q 338 703 486 703 q 192 574 192 703 q 202 522 192 542 q 235 492 213 501 q 282 478 258 482 q 343 472 306 475 q 364 471 357 471 q 440 462 411 467 q 511 443 469 457 q 576 406 553 429 q 617 342 600 383 q 635 244 635 301 q 556 57 635 121 q 347 -7 478 -7 q 53 251 63 -7 l 186 251 q 347 114 196 114 q 462 149 421 114 q 503 243 503 183 q 491 291 503 271 q 464 322 479 311 q 419 340 449 332 q 368 349 389 347 q 308 354 347 351 q 60 574 60 372 q 132 754 60 686 q 342 822 204 822 q 548 760 481 822 q 613 583 615 699 m 390 893 l 285 893 l 285 900 l 358 1076 l 489 1076 l 489 1072 l 390 893 z "},"Ŝ":{"ha":788,"x_min":61,"x_max":725,"o":"m 696 807 l 558 807 q 517 919 553 881 q 388 957 481 957 q 247 914 283 957 q 210 782 210 871 q 214 742 210 760 q 224 710 218 724 q 242 684 229 696 q 263 665 254 672 q 292 651 272 657 q 322 641 311 644 q 358 634 332 638 q 394 629 383 631 q 434 625 404 628 q 474 621 464 622 q 725 324 725 596 q 653 72 725 150 q 417 -6 582 -6 l 390 -6 q 61 283 76 -6 l 204 283 q 251 166 210 208 q 389 124 293 124 l 415 124 q 553 169 518 124 q 589 317 589 215 q 573 415 589 378 q 517 471 557 453 q 448 494 476 489 q 354 504 419 499 q 340 506 344 506 q 245 524 289 510 q 160 569 201 539 q 96 653 119 600 q 72 781 72 707 q 147 1008 72 933 q 388 1082 222 1082 q 616 1013 543 1082 q 696 807 689 943 m 361 1325 l 440 1325 l 613 1156 l 613 1146 l 483 1146 l 404 1225 l 324 1146 l 194 1146 l 194 1156 l 361 1325 z "},"ŝ":{"ha":678,"x_min":53,"x_max":635,"o":"m 613 583 l 486 583 q 338 703 486 703 q 192 574 192 703 q 202 522 192 542 q 235 492 213 501 q 282 478 258 482 q 343 472 306 475 q 364 471 357 471 q 440 462 411 467 q 511 443 469 457 q 576 406 553 429 q 617 342 600 383 q 635 244 635 301 q 556 57 635 121 q 347 -7 478 -7 q 53 251 63 -7 l 186 251 q 347 114 196 114 q 462 149 421 114 q 503 243 503 183 q 491 291 503 271 q 464 322 479 311 q 419 340 449 332 q 368 349 389 347 q 308 354 347 351 q 60 574 60 372 q 132 754 60 686 q 342 822 204 822 q 548 760 481 822 q 613 583 615 699 m 315 1088 l 394 1088 l 567 918 l 567 908 l 438 908 l 358 988 l 278 908 l 149 908 l 149 918 l 315 1088 z "},"Ş":{"ha":788,"x_min":61,"x_max":725,"o":"m 324 -108 l 321 -110 l 347 -4 q 61 283 75 14 l 204 283 q 251 166 210 208 q 389 124 293 124 l 415 124 q 553 169 518 124 q 589 317 589 215 q 573 415 589 378 q 517 471 557 453 q 448 494 476 489 q 354 504 419 499 q 340 506 344 506 q 245 524 289 510 q 160 569 201 539 q 96 653 119 600 q 72 781 72 707 q 147 1008 72 933 q 388 1082 222 1082 q 616 1013 543 1082 q 696 807 689 943 l 558 807 q 517 919 553 881 q 388 957 481 957 q 247 914 283 957 q 210 782 210 871 q 214 742 210 760 q 224 710 218 724 q 242 684 229 696 q 263 665 254 672 q 292 651 272 657 q 322 641 311 644 q 358 634 332 638 q 394 629 383 631 q 434 625 404 628 q 474 621 464 622 q 725 324 725 596 q 658 78 725 156 q 439 -6 592 0 l 428 -56 q 526 -98 499 -51 q 544 -199 554 -144 q 485 -292 532 -258 q 376 -322 438 -326 q 246 -254 285 -317 l 294 -183 q 379 -232 322 -232 q 446 -186 433 -232 q 422 -127 454 -149 q 343 -125 390 -106 l 324 -108 z "},"ş":{"ha":678,"x_min":53,"x_max":635,"o":"m 274 -108 l 271 -110 l 297 -4 q 53 251 61 17 l 186 251 q 347 114 196 114 q 462 149 421 114 q 503 243 503 183 q 491 291 503 271 q 464 322 479 311 q 419 340 449 332 q 368 349 389 347 q 308 354 347 351 q 60 574 60 372 q 132 754 60 686 q 342 822 204 822 q 548 760 481 822 q 613 583 615 699 l 486 583 q 338 703 486 703 q 192 574 192 703 q 202 522 192 542 q 235 492 213 501 q 282 478 258 482 q 343 472 306 475 q 364 471 357 471 q 440 462 411 467 q 511 443 469 457 q 576 406 553 429 q 617 342 600 383 q 635 244 635 301 q 567 67 635 131 q 386 -4 500 4 l 375 -57 q 472 -99 444 -53 q 490 -197 500 -144 q 432 -288 478 -256 q 324 -318 386 -321 q 197 -251 235 -312 l 244 -182 q 326 -229 274 -229 q 393 -185 381 -229 q 370 -127 401 -149 q 293 -125 339 -106 l 274 -108 z "},"Š":{"ha":788,"x_min":61,"x_max":725,"o":"m 444 1146 l 365 1146 l 193 1315 l 193 1325 l 322 1325 l 401 1246 l 482 1325 l 611 1325 l 611 1315 l 444 1146 m 696 807 l 558 807 q 517 919 553 881 q 388 957 481 957 q 247 914 283 957 q 210 782 210 871 q 214 742 210 760 q 224 710 218 724 q 242 684 229 696 q 263 665 254 672 q 292 651 272 657 q 322 641 311 644 q 358 634 332 638 q 394 629 383 631 q 434 625 404 628 q 474 621 464 622 q 725 324 725 596 q 653 72 725 150 q 417 -6 582 -6 l 390 -6 q 61 283 76 -6 l 204 283 q 251 166 210 208 q 389 124 293 124 l 415 124 q 553 169 518 124 q 589 317 589 215 q 573 415 589 378 q 517 471 557 453 q 448 494 476 489 q 354 504 419 499 q 340 506 344 506 q 245 524 289 510 q 160 569 201 539 q 96 653 119 600 q 72 781 72 707 q 147 1008 72 933 q 388 1082 222 1082 q 616 1013 543 1082 q 696 807 689 943 z "},"š":{"ha":678,"x_min":53,"x_max":635,"o":"m 613 583 l 486 583 q 338 703 486 703 q 192 574 192 703 q 202 522 192 542 q 235 492 213 501 q 282 478 258 482 q 343 472 306 475 q 364 471 357 471 q 440 462 411 467 q 511 443 469 457 q 576 406 553 429 q 617 342 600 383 q 635 244 635 301 q 556 57 635 121 q 347 -7 478 -7 q 53 251 63 -7 l 186 251 q 347 114 196 114 q 462 149 421 114 q 503 243 503 183 q 491 291 503 271 q 464 322 479 311 q 419 340 449 332 q 368 349 389 347 q 308 354 347 351 q 60 574 60 372 q 132 754 60 686 q 342 822 204 822 q 548 760 481 822 q 613 583 615 699 m 381 894 l 301 894 l 129 1064 l 129 1074 l 258 1074 l 338 994 l 418 1074 l 547 1074 l 547 1064 l 381 894 z "},"Ţ":{"ha":599,"x_min":11,"x_max":588,"o":"m 588 943 l 365 943 l 365 0 l 331 0 l 317 -61 q 414 -103 386 -57 q 432 -201 442 -149 q 374 -292 419 -260 q 265 -322 328 -325 q 136 -256 174 -317 l 183 -186 q 268 -233 213 -233 q 335 -189 322 -233 q 312 -131 343 -153 q 232 -129 281 -110 l 213 -112 l 210 -114 l 239 0 l 233 0 l 233 943 l 11 943 l 11 1065 l 588 1065 l 588 943 z "},"ţ":{"ha":407,"x_min":89,"x_max":364,"o":"m 89 224 l 89 954 l 218 969 l 218 808 l 358 808 l 358 683 l 218 683 l 218 228 q 251 138 218 164 q 364 122 285 113 l 364 0 q 269 -1 314 -6 l 254 -50 q 342 -87 317 -46 q 358 -178 367 -129 q 306 -262 347 -232 q 208 -289 264 -293 q 93 -228 129 -286 l 135 -165 q 210 -208 161 -208 q 271 -168 258 -208 q 250 -115 279 -135 q 179 -112 221 -94 l 161 -97 l 158 -99 l 193 15 q 89 224 89 60 z "},"Ť":{"ha":607,"x_min":11,"x_max":588,"o":"m 588 943 l 365 943 l 365 0 l 233 0 l 233 943 l 11 943 l 11 1065 l 588 1065 l 588 943 m 342 1144 l 263 1144 l 90 1314 l 90 1324 l 219 1324 l 299 1244 l 379 1324 l 508 1324 l 508 1314 l 342 1144 z "},"ť":{"ha":553,"x_min":89,"x_max":560,"o":"m 444 975 l 560 975 l 489 744 l 404 744 l 444 975 m 89 224 l 89 954 l 218 969 l 218 808 l 319 808 l 319 689 l 218 689 l 218 228 q 251 138 218 164 q 364 122 285 113 l 364 0 q 150 42 211 -17 q 89 224 89 100 z "},"Ŧ":{"ha":600,"x_min":11,"x_max":588,"o":"m 588 943 l 365 943 l 365 601 l 497 601 l 497 508 l 365 508 l 365 0 l 233 0 l 233 508 l 104 508 l 104 601 l 233 601 l 233 943 l 11 943 l 11 1065 l 588 1065 l 588 943 z "},"ŧ":{"ha":392,"x_min":18,"x_max":364,"o":"m 18 432 l 18 515 l 89 515 l 89 954 l 218 969 l 218 808 l 358 808 l 358 683 l 218 683 l 218 515 l 315 515 l 315 432 l 218 432 l 218 228 q 251 138 218 164 q 364 122 285 113 l 364 0 q 150 42 211 -17 q 89 224 89 100 l 89 432 l 18 432 z "},"Ũ":{"ha":836,"x_min":83,"x_max":744,"o":"m 611 351 l 611 1072 l 744 1072 l 744 353 q 672 80 744 168 q 415 -8 599 -8 q 158 80 232 -8 q 83 353 83 168 l 83 1071 l 217 1071 l 217 351 q 256 167 217 218 q 415 115 296 115 q 573 167 535 115 q 611 351 611 218 m 308 1149 l 232 1185 q 295 1276 247 1247 q 401 1283 343 1304 l 464 1254 q 535 1290 517 1235 l 614 1258 q 553 1161 600 1188 q 453 1156 506 1135 l 392 1183 q 308 1149 329 1206 z "},"ũ":{"ha":810,"x_min":108,"x_max":713,"o":"m 713 807 l 713 0 l 594 0 l 586 86 q 378 -10 528 -10 q 174 58 239 -10 q 108 283 108 125 l 108 807 l 242 807 l 242 285 q 284 156 242 200 q 400 111 326 111 q 529 156 479 111 q 579 283 579 200 l 579 807 l 713 807 m 297 938 l 221 974 q 284 1065 236 1036 q 390 1072 332 1093 l 453 1043 q 524 1079 506 1024 l 603 1047 q 542 950 589 976 q 442 944 494 924 l 381 972 q 297 938 318 994 z "},"Ū":{"ha":836,"x_min":83,"x_max":744,"o":"m 257 1267 l 571 1267 l 571 1158 l 257 1158 l 257 1267 m 611 351 l 611 1072 l 744 1072 l 744 353 q 672 80 744 168 q 415 -8 599 -8 q 158 80 232 -8 q 83 353 83 168 l 83 1071 l 217 1071 l 217 351 q 256 167 217 218 q 415 115 296 115 q 573 167 535 115 q 611 351 611 218 z "},"ū":{"ha":810,"x_min":108,"x_max":713,"o":"m 264 1051 l 581 1051 l 581 946 l 264 946 l 264 1051 m 713 807 l 713 0 l 594 0 l 586 86 q 378 -10 528 -10 q 174 58 239 -10 q 108 283 108 125 l 108 807 l 242 807 l 242 285 q 284 156 242 200 q 400 111 326 111 q 529 156 479 111 q 579 283 579 200 l 579 807 l 713 807 z "},"Ŭ":{"ha":836,"x_min":83,"x_max":744,"o":"m 611 351 l 611 1072 l 744 1072 l 744 353 q 672 80 744 168 q 415 -8 599 -8 q 158 80 232 -8 q 83 353 83 168 l 83 1071 l 217 1071 l 217 351 q 256 167 217 218 q 415 115 296 115 q 573 167 535 115 q 611 351 611 218 m 425 1138 q 249 1319 240 1138 l 347 1319 q 363 1252 347 1275 q 425 1229 378 1229 q 487 1251 472 1229 q 501 1319 501 1274 l 600 1319 q 425 1138 608 1138 z "},"ŭ":{"ha":810,"x_min":108,"x_max":713,"o":"m 713 807 l 713 0 l 594 0 l 586 86 q 378 -10 528 -10 q 174 58 239 -10 q 108 283 108 125 l 108 807 l 242 807 l 242 285 q 284 156 242 200 q 400 111 326 111 q 529 156 479 111 q 579 283 579 200 l 579 807 l 713 807 m 422 892 q 246 1074 238 892 l 344 1074 q 360 1006 344 1028 q 422 983 375 983 q 484 1006 469 983 q 499 1074 499 1028 l 597 1074 q 422 892 606 892 z "},"Ů":{"ha":836,"x_min":83,"x_max":744,"o":"m 611 351 l 611 1072 l 744 1072 l 744 353 q 672 80 744 168 q 415 -8 599 -8 q 158 80 232 -8 q 83 353 83 168 l 83 1071 l 217 1071 l 217 351 q 256 167 217 218 q 415 115 296 115 q 573 167 535 115 q 611 351 611 218 m 274 1238 q 316 1329 274 1296 q 418 1363 358 1363 q 520 1330 476 1363 q 564 1239 564 1297 q 522 1145 564 1179 q 417 1111 479 1111 q 313 1144 354 1111 q 274 1238 272 1178 m 418 1292 q 363 1264 379 1292 q 363 1209 347 1236 q 418 1182 379 1182 q 476 1209 460 1182 q 475 1264 492 1236 q 418 1292 458 1292 z "},"ů":{"ha":810,"x_min":108,"x_max":713,"o":"m 713 807 l 713 0 l 594 0 l 586 86 q 378 -10 528 -10 q 174 58 239 -10 q 108 283 108 125 l 108 807 l 242 807 l 242 285 q 284 156 242 200 q 400 111 326 111 q 529 156 479 111 q 579 283 579 200 l 579 807 l 713 807 m 279 978 q 322 1069 279 1036 q 424 1103 364 1103 q 526 1070 482 1103 q 569 979 569 1038 q 527 885 569 919 q 422 851 485 851 q 319 885 360 851 q 279 978 278 918 m 424 1032 q 369 1005 385 1032 q 369 950 353 978 q 424 922 385 922 q 481 950 465 922 q 481 1005 497 978 q 424 1032 464 1032 z "},"Ű":{"ha":836,"x_min":83,"x_max":744,"o":"m 611 351 l 611 1072 l 744 1072 l 744 353 q 672 80 744 168 q 415 -8 599 -8 q 158 80 232 -8 q 83 353 83 168 l 83 1071 l 217 1071 l 217 351 q 256 167 217 218 q 415 115 296 115 q 573 167 535 115 q 611 351 611 218 m 243 1149 l 333 1307 l 464 1307 l 464 1304 l 354 1149 l 243 1149 m 457 1147 l 547 1307 l 678 1307 l 678 1304 l 569 1147 l 457 1147 z "},"ű":{"ha":810,"x_min":108,"x_max":713,"o":"m 713 807 l 713 0 l 594 0 l 586 86 q 378 -10 528 -10 q 174 58 239 -10 q 108 283 108 125 l 108 807 l 242 807 l 242 285 q 284 156 242 200 q 400 111 326 111 q 529 156 479 111 q 579 283 579 200 l 579 807 l 713 807 m 243 918 l 333 1076 l 464 1076 l 464 1074 l 354 918 l 243 918 m 457 917 l 547 1076 l 678 1076 l 678 1074 l 569 917 l 457 917 z "},"Ų":{"ha":836,"x_min":83,"x_max":744,"o":"m 660 -79 l 719 -151 q 581 -228 657 -224 q 392 -125 421 -233 q 391 -66 383 -103 q 421 -8 399 -29 l 415 -8 q 158 80 232 -8 q 83 353 83 168 l 83 1071 l 217 1071 l 217 351 q 256 167 217 218 q 415 115 296 115 q 573 167 535 115 q 611 351 611 218 l 611 1072 l 744 1072 l 744 353 q 701 124 744 208 q 554 8 657 39 q 509 -31 524 -4 q 506 -83 494 -58 q 575 -121 522 -122 q 660 -79 622 -118 z "},"ų":{"ha":813,"x_min":108,"x_max":778,"o":"m 713 807 l 713 -44 q 617 -68 654 -35 q 594 -142 581 -101 q 656 -181 608 -182 q 725 -147 694 -178 l 778 -208 q 660 -265 733 -261 q 507 -174 538 -269 q 513 -75 490 -126 q 594 -3 536 -24 l 586 86 q 378 -10 528 -10 q 174 58 239 -10 q 108 283 108 125 l 108 807 l 242 807 l 242 285 q 284 156 242 200 q 400 111 326 111 q 529 156 479 111 q 579 283 579 200 l 579 807 l 713 807 z "},"Ŵ":{"ha":1115,"x_min":13,"x_max":1115,"o":"m 329 219 l 513 1014 l 615 1014 l 799 219 l 876 619 l 979 1072 l 1115 1072 l 860 -1 l 739 -1 l 649 358 l 564 743 l 479 358 l 389 -1 l 268 -1 l 13 1072 l 149 1072 l 251 619 l 329 219 m 524 1292 l 603 1292 l 775 1122 l 775 1113 l 646 1113 l 567 1192 l 486 1113 l 357 1113 l 357 1122 l 524 1292 z "},"ŵ":{"ha":1018,"x_min":11,"x_max":1019,"o":"m 797 542 l 881 813 l 1019 813 l 786 -1 l 654 -1 l 588 236 l 515 551 l 442 232 l 376 -1 l 244 -1 l 11 813 l 150 813 l 233 542 q 263 427 250 486 q 292 284 276 368 q 311 183 307 200 q 392 544 349 375 l 467 813 l 564 813 l 640 544 q 719 183 676 401 q 739 284 724 200 q 767 427 754 368 q 797 542 781 486 m 472 1083 l 551 1083 l 724 914 l 724 904 l 594 904 l 515 983 l 435 904 l 306 904 l 306 914 l 472 1083 z "},"Ŷ":{"ha":643,"x_min":-3,"x_max":644,"o":"m 226 864 l 321 597 l 415 864 l 501 1072 l 644 1072 l 386 449 l 386 -1 l 254 -1 l 254 449 l -3 1072 l 140 1072 l 226 864 m 279 1325 l 358 1325 l 531 1156 l 531 1146 l 401 1146 l 322 1225 l 242 1146 l 113 1146 l 113 1156 l 279 1325 z "},"ŷ":{"ha":665,"x_min":21,"x_max":665,"o":"m 243 551 l 347 175 q 449 560 376 324 l 528 813 l 665 813 l 411 -1 l 363 -156 q 253 -311 324 -278 q 67 -297 182 -344 l 90 -185 q 135 -199 115 -194 q 176 -199 154 -203 q 216 -174 199 -194 q 246 -117 233 -154 l 279 -1 l 21 813 l 165 813 l 243 551 m 303 1092 l 382 1092 l 554 922 l 554 913 l 425 913 l 346 992 l 265 913 l 136 913 l 136 922 l 303 1092 z "},"Ÿ":{"ha":640,"x_min":-3,"x_max":644,"o":"m 226 864 l 321 597 l 415 864 l 501 1072 l 644 1072 l 386 449 l 386 -1 l 254 -1 l 254 449 l -3 1072 l 140 1072 l 226 864 m 89 1235 q 114 1292 89 1271 q 169 1313 139 1313 q 224 1293 199 1314 q 249 1235 249 1272 q 208 1167 249 1188 q 128 1166 168 1147 q 89 1235 89 1185 m 392 1235 q 432 1303 392 1283 q 512 1304 472 1324 q 551 1235 551 1285 q 512 1167 551 1188 q 432 1166 472 1147 q 392 1235 392 1185 z "},"Ź":{"ha":643,"x_min":19,"x_max":635,"o":"m 635 1072 l 207 121 l 619 121 l 619 0 l 19 0 l 447 956 l 76 956 l 76 1072 l 635 1072 m 392 1149 l 286 1149 l 286 1156 l 360 1332 l 490 1332 l 490 1328 l 392 1149 z "},"ź":{"ha":668,"x_min":43,"x_max":647,"o":"m 43 0 l 43 21 l 443 692 l 81 692 l 81 813 l 639 813 l 639 789 l 244 124 l 647 124 l 647 0 l 43 0 m 397 899 l 292 899 l 292 906 l 365 1082 l 496 1082 l 496 1078 l 397 899 z "},"Ż":{"ha":638,"x_min":19,"x_max":635,"o":"m 321 1155 q 302 1164 321 1155 q 283 1221 283 1174 q 321 1287 283 1268 q 396 1287 358 1306 q 433 1221 433 1268 q 396 1155 433 1174 q 321 1155 358 1136 m 635 1072 l 207 121 l 619 121 l 619 0 l 19 0 l 447 956 l 76 956 l 76 1072 l 635 1072 z "},"ż":{"ha":668,"x_min":43,"x_max":647,"o":"m 43 0 l 43 21 l 443 692 l 81 692 l 81 813 l 639 813 l 639 789 l 244 124 l 647 124 l 647 0 l 43 0 m 282 999 q 307 1056 282 1035 q 362 1077 332 1076 q 417 1057 392 1078 q 442 999 442 1036 q 401 931 442 951 q 322 930 361 911 q 282 999 282 949 z "},"Ž":{"ha":653,"x_min":19,"x_max":635,"o":"m 635 1072 l 207 121 l 619 121 l 619 0 l 19 0 l 447 956 l 76 956 l 76 1072 l 635 1072 m 400 1139 l 321 1139 l 149 1308 l 149 1318 l 278 1318 l 357 1239 l 438 1318 l 567 1318 l 567 1308 l 400 1139 z "},"ž":{"ha":675,"x_min":43,"x_max":647,"o":"m 43 0 l 43 21 l 443 692 l 81 692 l 81 813 l 639 813 l 639 789 l 244 124 l 647 124 l 647 0 l 43 0 m 404 894 l 325 894 l 153 1064 l 153 1074 l 282 1074 l 361 994 l 442 1074 l 571 1074 l 571 1064 l 404 894 z "},"ſ":{"ha":429,"x_min":82,"x_max":411,"o":"m 82 -1 l 82 782 q 170 1019 82 944 q 411 1081 258 1094 l 411 960 q 263 932 313 969 q 214 782 214 894 l 214 -1 l 82 -1 z "},"ƒ":{"ha":536,"x_min":-17,"x_max":510,"o":"m 38 632 l 38 754 l 181 754 l 181 782 q 269 1019 181 944 q 510 1081 357 1094 l 510 960 q 362 932 411 969 q 313 782 313 894 l 313 754 l 486 754 l 486 632 l 313 632 l 313 46 q 224 -192 313 -117 q -17 -253 136 -267 l -17 -132 q 131 -104 82 -142 q 181 46 181 -67 l 181 632 l 38 632 z "},"Ǻ":{"ha":717,"x_min":13,"x_max":715,"o":"m 408 1372 l 558 1372 l 418 1258 l 308 1258 l 308 1264 l 408 1372 m 215 1085 q 259 1188 215 1151 q 364 1225 303 1225 q 469 1189 425 1225 q 514 1086 514 1153 q 457 972 514 1015 l 715 0 l 579 0 l 525 199 l 204 199 l 150 0 l 13 0 l 271 971 q 215 1085 214 1010 m 435 551 l 364 896 l 292 547 l 238 324 l 490 324 l 435 551 m 422 1114 q 413 1128 422 1114 q 364 1143 404 1143 q 307 1114 324 1143 q 307 1056 290 1085 q 364 1026 324 1026 q 422 1056 406 1026 q 422 1114 439 1085 z "},"ǻ":{"ha":713,"x_min":61,"x_max":640,"o":"m 399 1272 l 532 1272 l 413 1156 l 311 1156 l 311 1160 l 399 1272 m 640 549 l 640 0 l 521 0 l 510 110 q 430 27 486 61 q 303 -7 374 -7 q 61 188 81 -7 q 119 367 51 294 q 311 457 186 439 q 507 469 374 467 l 507 549 q 473 662 507 624 q 353 700 439 700 q 257 670 290 700 q 225 564 224 640 l 96 564 q 158 758 92 696 q 357 821 225 821 q 568 756 496 821 q 640 549 640 692 m 510 360 q 322 346 385 360 q 194 204 181 315 q 317 119 201 119 q 510 360 503 119 m 228 988 q 270 1081 228 1047 q 371 1115 313 1115 q 471 1082 428 1115 q 514 989 514 1049 q 472 894 514 929 q 369 860 431 860 q 267 894 308 860 q 228 988 226 928 m 371 1043 q 317 1016 333 1043 q 317 961 301 989 q 371 933 333 933 q 427 961 411 933 q 426 1016 443 989 q 371 1043 410 1043 z "},"Ǽ":{"ha":1031,"x_min":3,"x_max":994,"o":"m 664 1135 l 558 1135 l 558 1140 l 632 1303 l 763 1303 l 763 1299 l 664 1135 m 429 1072 l 982 1072 l 982 960 l 618 960 l 618 633 l 960 633 l 960 515 l 618 515 l 618 118 l 994 118 l 994 0 l 496 0 l 496 256 l 235 256 l 138 0 l 3 0 l 429 1072 m 279 374 l 496 374 l 496 951 l 413 713 l 279 374 z "},"ǽ":{"ha":1158,"x_min":67,"x_max":1092,"o":"m 960 233 l 1089 233 q 1020 48 1089 110 q 796 -14 951 -14 q 641 15 697 -14 q 553 107 585 44 q 444 15 501 43 q 308 -14 386 -14 q 67 188 88 -14 q 121 367 56 296 q 317 457 186 439 q 517 469 379 467 l 517 549 q 481 661 517 622 q 358 700 446 700 q 263 670 296 700 q 231 564 229 640 l 101 564 q 164 758 97 696 q 363 821 231 821 q 575 724 522 821 q 796 822 638 822 q 1016 753 940 822 q 1092 528 1092 683 l 1092 351 l 631 351 l 631 290 q 667 147 631 183 q 796 110 704 110 q 922 140 883 110 q 960 233 960 169 m 631 528 l 631 469 l 964 469 l 964 528 q 923 667 964 631 q 796 704 882 704 q 670 668 710 704 q 631 528 631 632 m 519 356 q 328 346 372 356 q 200 204 186 315 q 238 138 204 160 q 322 117 272 117 q 519 356 513 117 m 632 901 l 526 901 l 526 908 l 600 1085 l 731 1085 l 731 1081 l 632 901 z "},"Ǿ":{"ha":828,"x_min":71,"x_max":765,"o":"m 765 725 l 765 351 q 752 195 765 257 q 702 84 739 133 q 596 13 665 35 q 418 -10 526 -10 q 265 6 331 -10 l 224 -106 l 113 -106 l 171 49 q 92 163 114 90 q 71 351 71 235 l 71 725 q 84 881 71 819 q 134 992 97 943 q 240 1064 171 1042 q 418 1086 310 1086 q 557 1072 492 1086 l 601 1189 l 713 1189 l 654 1036 q 742 921 718 996 q 765 725 765 846 m 632 350 l 632 726 q 604 903 632 857 l 310 124 q 418 114 349 114 q 536 126 493 114 q 600 170 579 138 q 626 240 621 203 q 632 350 632 278 m 204 350 q 224 189 204 229 l 514 957 q 418 965 475 965 q 319 956 358 965 q 256 931 279 946 q 222 883 233 915 q 207 817 210 850 q 204 726 204 785 l 204 350 m 471 1167 l 364 1167 l 364 1172 l 439 1332 l 569 1332 l 569 1328 l 471 1167 z "},"ǿ":{"ha":747,"x_min":69,"x_max":678,"o":"m 219 -101 l 108 -101 l 165 35 q 69 296 69 103 l 69 528 q 148 753 69 683 q 374 822 226 822 q 489 810 436 822 l 526 900 l 638 900 l 582 767 q 678 528 678 694 l 678 296 q 606 58 678 131 q 374 -14 535 -14 q 260 -3 313 -14 l 219 -101 m 201 296 q 222 172 201 218 l 442 697 q 374 704 410 704 q 242 668 283 704 q 201 528 201 632 l 201 296 m 374 101 q 506 144 467 101 q 546 296 546 188 l 546 528 q 526 635 546 596 l 307 108 q 374 101 331 101 m 414 917 l 307 917 l 307 922 l 382 1082 l 513 1082 l 513 1078 l 414 917 z "},"Ș":{"ha":789,"x_min":61,"x_max":725,"o":"m 311 -318 l 257 -251 q 328 -176 314 -217 q 343 -62 343 -136 l 463 -62 q 430 -224 463 -167 q 311 -318 397 -282 m 696 807 l 558 807 q 517 919 553 881 q 388 957 481 957 q 247 914 283 957 q 210 782 210 871 q 214 742 210 760 q 224 710 218 724 q 242 684 229 696 q 263 665 254 672 q 292 651 272 657 q 322 641 311 644 q 358 634 332 638 q 394 629 383 631 q 434 625 404 628 q 474 621 464 622 q 725 324 725 596 q 653 72 725 150 q 417 -6 582 -6 l 390 -6 q 61 283 76 -6 l 204 283 q 251 166 210 208 q 389 124 293 124 l 415 124 q 553 169 518 124 q 589 317 589 215 q 573 415 589 378 q 517 471 557 453 q 448 494 476 489 q 354 504 419 499 q 340 506 344 506 q 245 524 289 510 q 160 569 201 539 q 96 653 119 600 q 72 781 72 707 q 147 1008 72 933 q 388 1082 222 1082 q 616 1013 543 1082 q 696 807 689 943 z "},"ș":{"ha":678,"x_min":53,"x_max":635,"o":"m 265 -333 l 211 -267 q 283 -192 268 -232 q 297 -78 297 -151 l 417 -78 q 384 -240 417 -182 q 265 -333 351 -297 m 613 583 l 486 583 q 338 703 486 703 q 192 574 192 703 q 202 522 192 542 q 235 492 213 501 q 282 478 258 482 q 343 472 306 475 q 364 471 357 471 q 440 462 411 467 q 511 443 469 457 q 576 406 553 429 q 617 342 600 383 q 635 244 635 301 q 556 57 635 121 q 347 -7 478 -7 q 53 251 63 -7 l 186 251 q 347 114 196 114 q 462 149 421 114 q 503 243 503 183 q 491 291 503 271 q 464 322 479 311 q 419 340 449 332 q 368 349 389 347 q 308 354 347 351 q 60 574 60 372 q 132 754 60 686 q 342 822 204 822 q 548 760 481 822 q 613 583 615 699 z "},"Ț":{"ha":601,"x_min":11,"x_max":588,"o":"m 210 -333 l 156 -267 q 227 -192 213 -232 q 242 -78 242 -151 l 361 -78 q 328 -240 361 -182 q 210 -333 296 -297 m 588 943 l 365 943 l 365 0 l 233 0 l 233 943 l 11 943 l 11 1065 l 588 1065 l 588 943 z "},"ț":{"ha":404,"x_min":89,"x_max":364,"o":"m 161 -333 l 107 -267 q 178 -192 164 -232 q 193 -78 193 -151 l 313 -78 q 280 -240 313 -182 q 161 -333 247 -297 m 89 224 l 89 954 l 218 969 l 218 808 l 358 808 l 358 683 l 218 683 l 218 228 q 251 138 218 164 q 364 122 285 113 l 364 0 q 150 42 211 -17 q 89 224 89 100 z "},"ȷ":{"ha":336,"x_min":1,"x_max":240,"o":"m 240 806 l 240 -37 q 183 -219 240 -165 q 1 -262 125 -274 l 1 -144 q 44 -146 25 -149 q 79 -135 64 -143 q 103 -102 94 -126 q 111 -37 111 -78 l 111 806 l 240 806 z "},"ˆ":{"ha":493,"x_min":36,"x_max":454,"o":"m 203 1078 l 282 1078 l 454 908 l 454 899 l 325 899 l 246 978 l 165 899 l 36 899 l 36 908 l 203 1078 z "},"ˇ":{"ha":575,"x_min":79,"x_max":497,"o":"m 331 894 l 251 894 l 79 1064 l 79 1074 l 208 1074 l 288 994 l 368 1074 l 497 1074 l 497 1064 l 331 894 z "},"˘":{"ha":436,"x_min":39,"x_max":390,"o":"m 215 892 q 39 1074 31 892 l 138 1074 q 153 1006 138 1028 q 215 983 168 983 q 277 1006 263 983 q 292 1074 292 1028 l 390 1074 q 215 892 399 892 z "},"˙":{"ha":294,"x_min":69,"x_max":229,"o":"m 69 1007 q 94 1064 69 1043 q 149 1085 119 1085 q 204 1065 179 1086 q 229 1007 229 1044 q 189 940 229 960 q 109 938 149 919 q 69 1007 69 957 z "},"˚":{"ha":444,"x_min":85,"x_max":383,"o":"m 85 935 q 128 1041 85 1003 q 233 1079 172 1079 q 338 1041 293 1079 q 383 936 383 1003 q 340 829 383 868 q 232 790 296 790 q 126 828 168 790 q 85 935 83 867 m 291 966 q 282 982 291 966 q 233 997 274 997 q 176 966 193 997 q 176 903 160 935 q 233 872 193 872 q 292 903 275 872 q 291 966 308 935 z "},"˛":{"ha":560,"x_min":199,"x_max":421,"o":"m 303 0 l 421 0 q 348 -50 374 -18 q 322 -101 322 -82 q 371 -147 322 -147 q 421 -144 399 -147 l 421 -262 q 199 -144 199 -275 q 303 0 199 -54 z "},"˜":{"ha":496,"x_min":56,"x_max":438,"o":"m 132 939 l 56 975 q 119 1066 71 1038 q 225 1074 167 1094 l 288 1044 q 358 1081 340 1025 l 438 1049 q 376 951 424 978 q 276 946 329 925 l 215 974 q 132 939 153 996 z "},"˝":{"ha":513,"x_min":60,"x_max":494,"o":"m 60 918 l 150 1076 l 281 1076 l 281 1074 l 171 918 l 60 918 m 274 917 l 364 1076 l 494 1076 l 494 1074 l 386 917 l 274 917 z "},"μ":{"ha":754,"x_min":82,"x_max":674,"o":"m 82 -307 l 82 -306 l 82 807 l 219 807 l 219 294 q 382 104 219 104 q 502 151 463 104 q 542 311 542 199 l 542 806 l 674 806 l 674 0 l 561 0 l 547 76 q 482 -6 528 24 q 378 -36 436 -36 q 211 60 246 -36 l 211 -307 l 82 -307 z "},"Ẁ":{"ha":1132,"x_min":13,"x_max":1115,"o":"m 329 219 l 513 1014 l 615 1014 l 799 219 l 876 619 l 979 1072 l 1115 1072 l 860 -1 l 739 -1 l 649 358 l 564 743 l 479 358 l 389 -1 l 268 -1 l 13 1072 l 149 1072 l 251 619 l 329 219 m 519 1126 l 421 1306 l 421 1310 l 556 1310 l 629 1133 l 629 1126 l 519 1126 z "},"ẁ":{"ha":1047,"x_min":11,"x_max":1019,"o":"m 465 901 l 367 1081 l 367 1085 l 501 1085 l 575 908 l 575 901 l 465 901 m 797 542 l 881 813 l 1019 813 l 786 -1 l 654 -1 l 588 236 l 515 551 l 442 232 l 376 -1 l 244 -1 l 11 813 l 150 813 l 233 542 q 263 427 250 486 q 292 284 276 368 q 311 183 307 200 q 392 544 349 375 l 467 813 l 564 813 l 640 544 q 719 183 676 401 q 739 284 724 200 q 767 427 754 368 q 797 542 781 486 z "},"Ẃ":{"ha":1135,"x_min":13,"x_max":1115,"o":"m 329 219 l 513 1014 l 615 1014 l 799 219 l 876 619 l 979 1072 l 1115 1072 l 860 -1 l 739 -1 l 649 358 l 564 743 l 479 358 l 389 -1 l 268 -1 l 13 1072 l 149 1072 l 251 619 l 329 219 m 619 1113 l 514 1113 l 514 1119 l 588 1296 l 718 1296 l 718 1292 l 619 1113 z "},"ẃ":{"ha":1038,"x_min":11,"x_max":1019,"o":"m 797 542 l 881 813 l 1019 813 l 786 -1 l 654 -1 l 588 236 l 515 551 l 442 232 l 376 -1 l 244 -1 l 11 813 l 150 813 l 233 542 q 263 427 250 486 q 292 284 276 368 q 311 183 307 200 q 392 544 349 375 l 467 813 l 564 813 l 640 544 q 719 183 676 401 q 739 284 724 200 q 767 427 754 368 q 797 542 781 486 m 565 899 l 460 899 l 460 906 l 533 1082 l 664 1082 l 664 1078 l 565 899 z "},"Ẅ":{"ha":1132,"x_min":13,"x_max":1115,"o":"m 329 219 l 513 1014 l 615 1014 l 799 219 l 876 619 l 979 1072 l 1115 1072 l 860 -1 l 739 -1 l 649 358 l 564 743 l 479 358 l 389 -1 l 268 -1 l 13 1072 l 149 1072 l 251 619 l 329 219 m 329 1190 q 354 1247 329 1226 q 409 1269 379 1268 q 464 1249 439 1269 q 489 1190 489 1228 q 449 1123 489 1143 q 369 1122 408 1103 q 329 1190 329 1140 m 632 1190 q 657 1247 632 1226 q 712 1269 682 1268 q 767 1249 742 1269 q 792 1190 792 1228 q 751 1123 792 1143 q 672 1122 711 1103 q 632 1190 632 1140 z "},"ẅ":{"ha":1033,"x_min":11,"x_max":1019,"o":"m 279 999 q 317 1066 279 1046 q 393 1066 356 1086 q 431 999 431 1046 q 407 944 431 964 q 355 924 383 924 q 303 944 326 924 q 279 999 279 964 m 604 997 q 642 1065 604 1044 q 717 1065 679 1085 q 754 999 754 1046 q 717 933 754 953 q 642 933 679 914 q 604 997 604 951 m 797 542 l 881 813 l 1019 813 l 786 -1 l 654 -1 l 588 236 l 515 551 l 442 232 l 376 -1 l 244 -1 l 11 813 l 150 813 l 233 542 q 263 427 250 486 q 292 284 276 368 q 311 183 307 200 q 392 544 349 375 l 467 813 l 564 813 l 640 544 q 719 183 676 401 q 739 284 724 200 q 767 427 754 368 q 797 542 781 486 z "},"Ỳ":{"ha":640,"x_min":-3,"x_max":644,"o":"m 226 864 l 321 597 l 415 864 l 501 1072 l 644 1072 l 386 449 l 386 -1 l 254 -1 l 254 449 l -3 1072 l 140 1072 l 226 864 m 281 1118 l 182 1297 l 182 1301 l 317 1301 l 390 1125 l 390 1118 l 281 1118 z "},"ỳ":{"ha":676,"x_min":21,"x_max":665,"o":"m 243 551 l 347 175 q 449 560 376 324 l 528 813 l 665 813 l 411 -1 l 363 -156 q 253 -311 324 -278 q 67 -297 182 -344 l 90 -185 q 135 -199 115 -194 q 176 -199 154 -203 q 216 -174 199 -194 q 246 -117 233 -154 l 279 -1 l 21 813 l 165 813 l 243 551 m 306 899 l 207 1078 l 207 1082 l 342 1082 l 415 906 l 415 899 l 306 899 z "},"–":{"ha":850,"x_min":107,"x_max":743,"o":"m 107 522 l 743 522 l 743 415 l 107 415 l 107 522 z "},"—":{"ha":992,"x_min":107,"x_max":885,"o":"m 107 525 l 885 525 l 885 418 l 107 418 l 107 525 z "},"‘":{"ha":340,"x_min":82,"x_max":268,"o":"m 268 1072 l 204 807 l 82 807 l 175 1072 l 268 1072 z "},"’":{"ha":333,"x_min":85,"x_max":272,"o":"m 85 806 l 150 1076 l 272 1076 l 179 806 l 85 806 z "},"‚":{"ha":350,"x_min":60,"x_max":246,"o":"m 60 -160 l 124 110 l 246 110 l 153 -160 l 60 -160 z "},"“":{"ha":525,"x_min":63,"x_max":453,"o":"m 250 1072 l 185 804 l 63 804 l 157 1072 l 250 1072 m 453 1072 l 386 804 l 264 804 l 358 1072 l 453 1072 z "},"”":{"ha":538,"x_min":88,"x_max":476,"o":"m 88 807 l 153 1071 l 275 1071 l 182 807 l 88 807 m 290 807 l 354 1071 l 476 1071 l 383 807 l 290 807 z "},"„":{"ha":551,"x_min":58,"x_max":447,"o":"m 58 -160 l 124 110 l 246 110 l 153 -160 l 58 -160 m 261 -160 l 325 110 l 447 110 l 354 -160 l 261 -160 z "},"†":{"ha":803,"x_min":54,"x_max":749,"o":"m 749 704 l 463 704 l 463 -69 l 342 -69 l 342 704 l 54 704 l 54 808 l 342 808 l 342 1076 l 463 1076 l 463 808 l 749 808 l 749 704 z "},"‡":{"ha":865,"x_min":85,"x_max":781,"o":"m 781 707 l 493 707 l 493 356 l 781 356 l 781 251 l 493 251 l 493 -74 l 372 -74 l 372 251 l 85 251 l 85 356 l 372 356 l 372 707 l 85 707 l 85 811 l 372 811 l 372 1078 l 493 1078 l 493 811 l 781 811 l 781 707 z "},"•":{"ha":563,"x_min":126,"x_max":435,"o":"m 282 290 l 282 292 q 170 333 214 292 q 126 443 126 375 q 170 553 126 511 q 282 596 214 596 q 391 553 347 596 q 435 442 435 510 q 391 332 435 374 q 282 290 347 290 z "},"…":{"ha":821,"x_min":69,"x_max":760,"o":"m 69 68 q 94 125 69 104 q 149 147 119 146 q 204 126 179 147 q 229 68 229 106 q 189 1 229 21 q 109 -1 149 -19 q 69 68 69 18 m 335 68 q 360 125 335 104 q 415 147 385 146 q 469 126 444 147 q 494 68 494 106 q 454 1 494 21 q 374 -1 414 -19 q 335 68 335 18 m 600 68 q 640 137 600 117 q 720 138 681 157 q 760 68 760 118 q 720 1 760 21 q 640 -1 681 -19 q 600 68 600 18 z "},"‰":{"ha":1585,"x_min":42,"x_max":1540,"o":"m 832 0 q 678 50 728 0 q 629 206 629 100 l 629 325 q 832 531 629 531 q 988 481 938 531 q 1038 325 1038 431 l 1038 206 q 988 50 1038 100 q 832 0 938 0 m 832 101 q 905 128 885 101 q 925 211 925 156 l 925 322 q 906 403 925 378 q 832 429 886 429 q 760 403 781 429 q 740 322 740 376 l 740 211 q 760 128 740 156 q 832 101 781 101 m 636 1082 l 736 1082 l 424 -19 l 321 -19 l 636 1082 m 244 549 q 91 599 140 549 q 42 754 42 649 l 42 874 q 244 1079 42 1079 q 400 1029 350 1079 q 450 874 450 979 l 450 754 q 400 599 450 649 q 244 549 350 549 m 244 650 q 317 677 297 650 q 338 760 338 704 l 338 871 q 318 952 338 926 q 244 978 299 978 q 173 951 193 978 q 153 871 153 925 l 153 760 q 173 677 153 704 q 244 650 193 650 m 1335 0 q 1181 50 1231 0 q 1132 206 1132 100 l 1132 325 q 1335 531 1132 531 q 1490 481 1440 531 q 1540 325 1540 431 l 1540 206 q 1490 50 1540 100 q 1335 0 1440 0 m 1335 101 q 1408 128 1388 101 q 1428 211 1428 156 l 1428 322 q 1408 403 1428 378 q 1335 429 1389 429 q 1263 403 1283 429 q 1243 322 1243 376 l 1243 211 q 1263 128 1243 156 q 1335 101 1283 101 z "},"‹":{"ha":453,"x_min":68,"x_max":382,"o":"m 68 414 l 260 719 l 382 719 l 192 414 l 382 107 l 260 107 l 68 414 z "},"›":{"ha":456,"x_min":74,"x_max":388,"o":"m 264 413 l 74 718 l 196 718 l 388 413 l 196 106 l 74 106 l 264 413 z "},"⁄":{"ha":226,"x_min":-185,"x_max":440,"o":"m -185 -4 l 310 1076 l 440 1076 l -54 -4 l -185 -4 z "},"€":{"ha":746,"x_min":39,"x_max":700,"o":"m 700 15 l 700 11 q 558 -19 626 -19 q 376 8 453 -19 q 252 92 300 36 q 177 217 204 147 q 135 382 150 286 l 40 382 l 40 488 l 122 488 q 121 528 121 493 q 122 574 121 558 l 39 574 l 39 681 l 135 681 q 268 974 164 864 q 557 1085 372 1085 q 679 1060 614 1085 l 649 949 q 560 964 608 964 q 435 944 488 964 q 349 885 382 925 q 296 798 315 846 q 261 681 276 750 l 561 681 l 540 574 l 240 574 l 240 531 l 240 492 l 522 492 l 506 386 l 260 386 q 349 174 286 243 q 560 104 413 104 q 671 131 617 104 l 700 15 z "},"™":{"ha":697,"x_min":35,"x_max":647,"o":"m 283 1067 l 283 992 l 199 992 l 199 628 l 119 628 l 119 992 l 35 992 l 35 1067 l 283 1067 m 339 626 l 339 1068 l 435 1068 l 493 896 l 551 1068 l 647 1068 l 647 626 l 569 626 l 569 774 l 576 900 l 511 704 l 475 704 l 410 900 l 417 774 l 417 626 l 339 626 z "},"ﬁ":{"ha":754,"x_min":4,"x_max":672,"o":"m 4 656 l 4 774 l 117 774 l 117 804 q 197 1029 117 967 q 426 1082 278 1092 l 426 961 q 291 940 333 969 q 249 804 249 910 l 249 776 l 656 776 l 656 0 l 524 0 l 524 656 l 249 656 l 249 -1 l 117 -1 l 117 656 l 4 656 m 513 999 q 538 1056 513 1035 q 592 1077 563 1076 q 647 1057 622 1078 q 672 999 672 1036 q 632 931 672 951 q 552 930 592 911 q 513 999 513 949 z "},"ﬂ":{"ha":771,"x_min":82,"x_max":729,"o":"m 82 -1 l 82 782 q 170 1019 82 944 q 411 1081 258 1094 l 411 960 q 263 932 313 969 q 214 782 214 894 l 214 754 l 388 754 l 388 632 l 214 632 l 214 -1 l 82 -1 m 517 211 l 517 1072 l 646 1072 l 646 213 q 665 148 646 165 q 729 131 683 131 l 729 0 q 562 43 607 0 q 517 211 517 86 z "}}}
